<svg xmlns="http://www.w3.org/2000/svg" viewBox="0 0 242.99 103.87"><defs><style>.cls-1{fill:none;}</style></defs><g id="Layer_2" data-name="Layer 2"><g id="Layer_1-2" data-name="Layer 1"><rect class="cls-1" width="242.99" height="103.87"/><path d="M134.26,30.87c-.08.07-.16.17-.24.25l-3.25,3.25-.08.08c-.08.1-.08.19,0,.33a11.2,11.2,0,0,1,1.51,4.47A11.82,11.82,0,0,1,123,52.15a12.13,12.13,0,0,1-3.8.16,11.22,11.22,0,0,1-5.66-2.24A11.59,11.59,0,0,1,109,42.91a10.87,10.87,0,0,1-.18-3.31,11.8,11.8,0,0,1,9.07-10.4,11.27,11.27,0,0,1,3.62-.25,11.72,11.72,0,0,1,4.93,1.54c.2.12.28,0,.4-.07L130,27.18c.07-.07.15-.17.25-.29l4,4m-7.34,10a6.41,6.41,0,1,0-6.4,6.21,6.41,6.41,0,0,0,6.4-6.21"/><path d="M131.87,67c0,3.17,0,6.36,0,9.53V77h-5.68v-.39c0-3.33,0-6.65,0-10a6,6,0,0,0-1.88-4.49,5.33,5.33,0,0,0-3-1.43,5.48,5.48,0,0,0-4.15,1.08,5.65,5.65,0,0,0-2.19,3.72,13.6,13.6,0,0,0-.14,2.21c0,3,0,5.9,0,8.85V77h-5.64v-.37c0-3.58,0-7.18,0-10.77a10.69,10.69,0,0,1,1.65-5.34A11,11,0,0,1,118,55.24a11.9,11.9,0,0,1,3-.27,10.93,10.93,0,0,1,7.89,3.7,11.06,11.06,0,0,1,2.8,5.89,14.56,14.56,0,0,1,.21,2.45"/></g></g></svg>