<svg xmlns="http://www.w3.org/2000/svg" width="21.343" height="21.343" viewBox="0 0 21.343 21.343"><path d="M10.671,1.9a32.721,32.721,0,0,1,4.269.119,5.5,5.5,0,0,1,2.016.356,4.164,4.164,0,0,1,2.016,2.016A5.5,5.5,0,0,1,19.327,6.4c0,1.067.119,1.423.119,4.269a32.721,32.721,0,0,1-.119,4.269,5.5,5.5,0,0,1-.356,2.016,4.164,4.164,0,0,1-2.016,2.016,5.5,5.5,0,0,1-2.016.356c-1.067,0-1.423.119-4.269.119A32.721,32.721,0,0,1,6.4,19.327a5.5,5.5,0,0,1-2.016-.356,4.164,4.164,0,0,1-2.016-2.016,5.5,5.5,0,0,1-.356-2.016c0-1.067-.119-1.423-.119-4.269A32.721,32.721,0,0,1,2.016,6.4a5.5,5.5,0,0,1,.356-2.016A4.259,4.259,0,0,1,3.2,3.2a2,2,0,0,1,1.186-.83A5.5,5.5,0,0,1,6.4,2.016,32.721,32.721,0,0,1,10.671,1.9m0-1.9A35.034,35.034,0,0,0,6.284.119,7.32,7.32,0,0,0,3.676.593a4.642,4.642,0,0,0-1.9,1.186,4.642,4.642,0,0,0-1.186,1.9A5.4,5.4,0,0,0,.119,6.284,35.034,35.034,0,0,0,0,10.671a35.034,35.034,0,0,0,.119,4.387,7.32,7.32,0,0,0,.474,2.609,4.642,4.642,0,0,0,1.186,1.9,4.642,4.642,0,0,0,1.9,1.186,7.32,7.32,0,0,0,2.609.474,35.034,35.034,0,0,0,4.387.119,35.034,35.034,0,0,0,4.387-.119,7.32,7.32,0,0,0,2.609-.474,4.975,4.975,0,0,0,3.083-3.083,7.32,7.32,0,0,0,.474-2.609c0-1.186.119-1.541.119-4.387a35.034,35.034,0,0,0-.119-4.387,7.32,7.32,0,0,0-.474-2.609,4.642,4.642,0,0,0-1.186-1.9,4.642,4.642,0,0,0-1.9-1.186A7.32,7.32,0,0,0,15.059.119,35.034,35.034,0,0,0,10.671,0m0,5.217a5.366,5.366,0,0,0-5.454,5.454,5.454,5.454,0,1,0,5.454-5.454m0,9.011a3.494,3.494,0,0,1-3.557-3.557,3.494,3.494,0,0,1,3.557-3.557,3.494,3.494,0,0,1,3.557,3.557,3.494,3.494,0,0,1-3.557,3.557M16.363,3.676a1.3,1.3,0,1,0,1.3,1.3,1.316,1.316,0,0,0-1.3-1.3" fill="#fff" fill-rule="evenodd"/></svg>