<svg xmlns="http://www.w3.org/2000/svg" viewBox="0 0 242.99 103.87"><defs><style>.cls-1{fill:none;}</style></defs><g id="Layer_2" data-name="Layer 2"><g id="Layer_1-2" data-name="Layer 1"><path id="Path_95" data-name="Path 95" d="M128.16,49.79v6.64h5.13a5.56,5.56,0,0,0,1.62-.22,3.26,3.26,0,0,0,2-4.84,3.21,3.21,0,0,0-2.63-1.5c-2-.19-4.07,0-6.12-.09Zm8,9.17,5.36,7.5h-4.15l-4.87-6.9h-4.37v6.9h-3.48V46.63a.59.59,0,0,1,.32,0h8.7A8.64,8.64,0,0,1,138,47.66a5.49,5.49,0,0,1,2.78,4.05,6.38,6.38,0,0,1-.93,4.77,6.27,6.27,0,0,1-3.36,2.37l-.34.11Z"/><path id="Path_96" data-name="Path 96" d="M182.79,54.83V46.62h3.49V66.45h-3.49V58.12h-9.47v8.34h-3.5V46.62h3.47v8.21Z"/><path id="Path_97" data-name="Path 97" d="M60.7,58.52a.71.71,0,0,0-.47-.1H57.11c-.73-.07-.94-.46-.58-1.1a10.48,10.48,0,0,1,.82-1.3,2.79,2.79,0,0,1,2.29-1.06c.55,0,1.1,0,1.64,0a.57.57,0,0,0,.63-.45,29.59,29.59,0,0,1,1.3-3.39,5.63,5.63,0,0,1,2-2.53,5,5,0,0,1,3.53-.63c.72.11.94.58.66,1.26a8.86,8.86,0,0,1-1,1.52,18,18,0,0,0-2,3.71.59.59,0,0,0-.08.41c.11.12.26.09.4.09h2.69a2.53,2.53,0,0,1,.78.1c.35.12.51.35.36.69a5.38,5.38,0,0,1-1.38,2.08,2.84,2.84,0,0,1-1.9.62c-.64,0-1.28,0-1.86,0a.79.79,0,0,0-.29.54c-.46,1.78-.89,3.57-1.51,5.3A9.57,9.57,0,0,1,60.3,69a6.48,6.48,0,0,1-7.9-.14,5.84,5.84,0,0,1-1.49-7.21,2.77,2.77,0,0,1,1.33-1.31,1.73,1.73,0,0,1,1.63.2c.11.07.1.07.2.29s-.17.32-.28.46a3.2,3.2,0,0,0,.55,4.51,3,3,0,0,0,4.63-1,10.87,10.87,0,0,0,1.2-3.31c.18-.84.35-1.67.52-2.51a.49.49,0,0,0,0-.41Z"/><path id="Path_98" data-name="Path 98" d="M152,58.06h6.38l-3.21-7.4L152,58.06Zm13.61,8.41H161.9l-2.22-5.27h-9c-.74,1.76-1.49,3.5-2.24,5.26h-3.6l8.75-20h3.26l8.75,20Z"/><path id="Path_99" data-name="Path 99" d="M113,58.07l-3.22-7.41-3.17,7.41Zm-7.69,3.13L103,66.46H99.41l8.76-20h3.25l8.75,20h-3.71l-2.21-5.25Z"/><path id="Path_100" data-name="Path 100" d="M83.87,46.61H100L98.62,49.8H87.38v5.09h9L95,58.07H87.38v8.38H83.87V46.61Z"/><path id="Path_101" data-name="Path 101" d="M65.24,46.51a12.9,12.9,0,0,1-4.9-1A41.13,41.13,0,0,0,56.05,44a4.81,4.81,0,0,0-2.47-.1,2.08,2.08,0,0,0-1.18,3.39,2.58,2.58,0,0,0,2,.8,6.29,6.29,0,0,0,3.07-.67,1.84,1.84,0,0,1,.36-.15.65.65,0,0,1,.84.38.67.67,0,0,1,0,.42,7.93,7.93,0,0,1-.4,1.28,2.92,2.92,0,0,1-2.45,2,6.58,6.58,0,0,1-3.94-.45,4.77,4.77,0,0,1-2.93-4.22,5,5,0,0,1,2.53-4.85,6.59,6.59,0,0,1,4-.78,48.6,48.6,0,0,1,6.79,1.14,9.88,9.88,0,0,0,6.34-.59A3.21,3.21,0,0,1,70,41.19a.83.83,0,0,1,.93.72h0A4.87,4.87,0,0,1,70.8,44a2.39,2.39,0,0,1-1.06,1.34,6.54,6.54,0,0,1-3.08,1.1,8.39,8.39,0,0,1-1.42.06Z"/><path id="Path_102" data-name="Path 102" d="M193.66,47.78A1.65,1.65,0,0,0,192,46.09h0a1.66,1.66,0,0,0-1.66,1.67v0A1.66,1.66,0,0,0,192,49.46h0a1.67,1.67,0,0,0,1.68-1.66v0Zm.44,0a2.08,2.08,0,0,1-2,2.11H192a2.05,2.05,0,0,1-2.09-2v-.08A2.1,2.1,0,0,1,192,45.66H192a2.08,2.08,0,0,1,2.09,2.07s0,0,0,0Z"/><path id="Path_103" data-name="Path 103" d="M191.59,47.69a3.07,3.07,0,0,0,.68,0,.32.32,0,0,0,0-.63,1.68,1.68,0,0,0-.67,0v.68Zm1.48,1.12h-.52l-.53-.74h-.41v.74h-.45V46.6a5.1,5.1,0,0,1,1.35.06.62.62,0,0,1,.48.57.68.68,0,0,1-.5.76l.58.82Z"/><rect class="cls-1" width="242.99" height="103.87"/></g></g></svg>