<svg xmlns="http://www.w3.org/2000/svg" viewBox="0 0 242.99 103.87"><defs><style>.cls-1{fill:none;}</style></defs><g id="Layer_2" data-name="Layer 2"><g id="Layer_1-2" data-name="Layer 1"><rect class="cls-1" width="242.99" height="103.87"/><path d="M76.39,64.53V50.94c0-4.85-3.64-7.64-10-7.64-5.58,0-9.43,2.61-10.57,7.15l-.15.6h2.76l.11-.34c1-3.11,3.69-4.75,7.85-4.75,6,0,7.26,2.7,7.26,5s-2.6,3-8.43,3.53c-5,.45-10.67,1.73-10.67,7.68,0,5,4.78,7.21,9.22,7.21,4.19,0,7.71-1.28,9.91-3.56a7.71,7.71,0,0,0,.68,2.86l.13.28h2.8l-.27-.67A12.25,12.25,0,0,1,76.39,64.53ZM63.8,66.66c-2.2,0-6.38-1-6.38-4.56,0-3.08,2.27-4.5,8.1-5.07,2.86-.25,6.06-.52,8.16-1.84v4.53c0,4.79-5,6.94-9.88,6.94Z"/><rect x="83.73" y="28.34" width="2.7" height="40.59"/><path d="M106,43.3a12,12,0,0,0-9.79,5.21V28.34H93.49v40.6H96.2V64.37A12.07,12.07,0,0,0,106,69.5a12.8,12.8,0,0,0,12.54-13C118.52,49.22,112.9,43.3,106,43.3Zm0,23.5A10.07,10.07,0,0,1,96.2,56.49c0-5.76,4.39-10.44,9.79-10.44s9.79,4.68,9.79,10.44A10.08,10.08,0,0,1,106,66.8Z"/><path d="M145.24,64.53V50.94c0-4.85-3.63-7.64-10-7.64-5.57,0-9.43,2.61-10.56,7.15l-.15.6h2.76l.1-.34c1-3.11,3.7-4.75,7.85-4.75,6,0,7.27,2.7,7.27,5s-2.6,3-8.43,3.53c-5,.45-10.67,1.73-10.67,7.68,0,5,4.78,7.21,9.22,7.21,4.18,0,7.71-1.28,9.91-3.56a7.52,7.52,0,0,0,.68,2.86l.13.28h2.8l-.27-.67A12.25,12.25,0,0,1,145.24,64.53Zm-12.58,2.13c-2.21,0-6.38-1-6.38-4.56,0-3.08,2.27-4.5,8.1-5.07,2.86-.24,6.05-.52,8.16-1.84v4.53c0,4.79-5,6.94-9.88,6.94Z"/><path d="M178.77,43.3A8.86,8.86,0,0,0,170.62,48a9.42,9.42,0,0,0-8.39-4.67,9.09,9.09,0,0,0-6.9,2.91v-2.3h-2.7v25h2.7v-16a6.92,6.92,0,0,1,13.84,0v16h2.7v-16a6.92,6.92,0,0,1,13.84,0v16h2.7v-16A9.32,9.32,0,0,0,178.77,43.3Z"/></g></g></svg>