<?xml version="1.0" encoding="UTF-8"?>
<svg id="Layer_2" data-name="Layer 2" xmlns="http://www.w3.org/2000/svg" viewBox="0 0 550.33 235.24">
  <defs>
    <style>
      .cls-1 {
        fill: none;
      }
    </style>
  </defs>
  <g id="Layer_4" data-name="Layer 4">
    <g>
      <g>
        <path d="m141.54,77.78c-.58.03-1.51.04-2.78.04-1.36,0-2.83-.01-4.38-.04-1.56-.02-3.27-.06-4.09-.11v.37c1.36.24,2.86.62,3.47,1.13.61.51.91,1.3.91,2.37,0,.97-.26,2.29-.77,3.95-.65,2.08-1.32,4.15-2.01,6.21l-10.45,30.17-8.9-24.53,1.66-4.69c1.02-2.82,1.91-5.11,2.67-6.87.75-1.75,1.47-3.17,2.15-4.24.68-1.07,1.39-1.85,2.12-2.34.73-.49,2.07-.88,3-1.17v-.37c-8.61.19-20.16.13-28.93,0v.37c.73.15,1.88.29,2.41.44.55.15,1.06.41,1.5.77.46.37.9.88,1.32,1.53.41.66.84,1.57,1.28,2.74l6.71,18.33-6.93,20.02-13.59-37.48c-.22-.65-.43-1.31-.62-1.97-.17-.58-.26-1.12-.26-1.61,0-.83.29-1.46.88-1.9.58-.44,2.1-.73,3.51-.88v-.36c-.83.05-2.4.09-3.69.11-1.33.03-2.65.04-3.98.04h-2.08c-.75,0-1.51-.01-2.26-.04-.76-.02-1.96-.05-2.6-.07-.51-.02-1.02-.03-1.53-.04v.37c.73.15,1.36.29,1.9.44.54.15,1.55.4,2.01.77.46.37.9.88,1.32,1.53.41.66.84,1.57,1.28,2.74l17.9,48.87h.44l9.6-27.05,9.91,27.05h.44l14.1-39.74c1.02-2.82,1.91-5.11,2.67-6.87.75-1.75,1.47-3.17,2.16-4.24.68-1.07,1.39-1.85,2.12-2.34.73-.49,2.07-.88,3-1.17v-.37c-.78.05-1.97.09-2.56.11Zm-30.29,15.95l-3.39-9.34c-.22-.65-.43-1.31-.62-1.97-.17-.58-.26-1.12-.26-1.61,0-.83.29-1.46.88-1.9.58-.44,1.58-.73,3-.88,1.36.24,2.35.62,2.96,1.13.61.51.91,1.3.91,2.37,0,.97-.26,2.29-.77,3.94-.65,2.08-1.32,4.15-2.01,6.21l-.7,2.04Z"/>
        <path d="m76.45,91.11c1.31-.02,2.36-.06,3.14-.11v.36c-.68.15-1.29.31-1.83.47-.52.16-.99.47-1.35.88-.37.41-.65,1.03-.84,1.86-.19.83-.29,1.97-.29,3.43v43.71c0,2.19-.15,4.19-.44,5.99-.29,1.8-.85,3.38-1.68,4.75-.83,1.36-1.99,2.48-3.47,3.36-1.49.88-3.4,1.46-5.73,1.75l-.07-.37c1.27-.24,2.29-.55,3.07-.91.78-.37,1.39-.88,1.83-1.53.44-.66.73-1.52.88-2.59.15-1.07.22-2.44.22-4.09v-50.06c0-1.46-.11-2.61-.33-3.43-.22-.83-.54-1.46-.95-1.9-.41-.44-.9-.74-1.46-.91-.56-.17-1.18-.3-1.86-.4v-.36c1.08.06,2.17.09,3.25.11,1.34.02,2.69.04,4.05.04,1.27,0,2.56-.01,3.87-.04Z"/>
        <path d="m277.27,106.63c-1.49-3.36-3.63-6.19-6.43-8.48-2.8-2.29-6.2-4.04-10.19-5.26-3.99-1.22-8.5-1.83-13.52-1.83-1.85,0-3.67.01-5.44.04-1.78.03-3.81.04-6.1.04h-1.68c-.63,0-1.28-.01-1.94-.04-.66-.02-1.28-.05-1.86-.07-.32-.01-.65-.02-.97-.03,0,0-.07,0-.11,0-.13,0-.39.02-.39.02-.66.04-1.37.06-2.17.08-1,.03-2.13.04-3.4.04-1.36,0-2.53-.01-3.51-.04-.9-.02-1.8-.06-2.7-.11v.37c.78.29,1.46.57,2.05.84.58.27,1.06.78,1.42,1.53.37.76.66,1.88.88,3.36.22,1.49.38,3.59.47,6.32.1,2.73.16,6.2.18,10.41.02,4.21.04,9.39.04,15.52v6.5l-41.35-45.95h-.51v16.15c0,6.09-.01,11.21-.04,15.38-.03,4.16-.09,7.6-.18,10.3-.1,2.7-.23,4.8-.4,6.28-.17,1.49-.44,2.62-.8,3.4-.37.78-.82,1.31-1.35,1.61-.54.29-1.19.58-1.97.88-.68-.1-1.23-.22-1.64-.37-.42-.15-.77-.4-1.06-.77-.29-.37-.56-.89-.8-1.57-.24-.68-.54-1.61-.88-2.78l-15.34-48.51h-.73l-16.51,43.91c-.78,2.09-1.46,3.75-2.04,4.97-.58,1.22-1.17,2.17-1.75,2.85-.58.68-1.21,1.18-1.86,1.5-.66.32-1.45.57-2.37.77v.37c.78-.05,1.49-.09,2.12-.11.63-.03,1.58-.04,2.85-.04,1.36,0,2.63.01,3.8.04,1.17.02,2.17.06,2.99.11v-.37c-1.27-.15-2.14-.51-2.63-1.1-.49-.58-.73-1.29-.73-2.12,0-.68.12-1.45.37-2.3.26-.9.55-1.79.88-2.67l4.38-11.83c1.27-.05,2.54-.07,3.84-.07h12.31l4.31,13.73c.24.73.45,1.41.62,2.05.17.63.26,1.22.26,1.75,0,.68-.23,1.25-.69,1.72-.46.46-1.3.74-2.52.84v.37c.83-.05,1.78-.09,2.85-.11,1.07-.03,2.29-.04,3.65-.04,1.27,0,2.45.01,3.54.04,1.1.02,2.03.06,2.81.11.78-.05,1.62-.09,2.52-.11.9-.03,1.98-.04,3.25-.04,1.36,0,2.53.01,3.51.04.97.02,1.87.06,2.7.11v-.37c-.83-.29-1.52-.57-2.08-.84-.56-.27-1.03-.79-1.42-1.57-.39-.78-.68-1.91-.88-3.4-.2-1.49-.34-3.58-.44-6.28-.1-2.7-.16-6.14-.18-10.3-.02-4.16-.04-9.29-.04-15.38v-6.58l41.5,46.17h.37v-16.8c0-6.09.01-11.2.04-15.34.02-4.14.08-7.56.18-10.27.1-2.7.26-4.8.47-6.28.22-1.49.51-2.6.88-3.36.37-.75.83-1.25,1.39-1.5.52-.22,1.16-.47,1.91-.74.61.12,1.21.25,1.8.41.63.17,1.17.46,1.61.88.44.41.78,1.03,1.02,1.86.24.83.37,1.97.37,3.43v39.23c0,1.46-.1,2.61-.29,3.43-.2.83-.5,1.46-.91,1.9-.41.44-.95.73-1.61.88-.79.17-1.58.32-2.37.44v.37c.83-.05,2.01-.09,3.54-.11,1.53-.03,2.98-.04,4.35-.04,1.07,0,2.28.01,3.62.04,2.63.05,5.26.09,7.89.15,1.24.02,2.35.04,3.32.04,4.82,0,9.01-.71,12.57-2.12,3.56-1.41,6.49-3.31,8.8-5.7,2.31-2.39,4.03-5.17,5.15-8.37,1.12-3.19,1.68-6.56,1.68-10.12,0-4.24-.74-8.04-2.23-11.4Zm-125.2,15.05h-3.47c-1.15,0-2.3-.02-3.47-.07l7.96-21.55,6.72,21.62h-7.74Zm119.58,8.04c-1.15,3.21-2.72,5.77-4.71,7.67-2,1.9-4.34,3.24-7.01,4.02-2.68.78-5.58,1.17-8.69,1.17-1.75,0-3.74-.08-5.95-.26-2.22-.17-4.25-.43-6.1-.77v-47.93c1.38-.33,2.78-.55,4.2-.66,1.4-.1,2.8-.15,4.2-.15,3.6,0,6.98.45,10.12,1.35,3.14.9,5.87,2.35,8.18,4.35,2.31,2,4.14,4.57,5.48,7.71,1.34,3.14,2.01,6.93,2.01,11.36,0,4.87-.57,8.91-1.72,12.13Z"/>
        <path d="m311.57,134.69h.37c0,1.56-.03,2.78-.07,3.65-.05.88-.1,1.63-.15,2.26-.05.63-.1,1.22-.15,1.75-.05.54-.07,1.2-.07,1.97-1.71-.05-3.13-.09-4.27-.11-1.15-.03-2.23-.05-3.25-.07-1.02-.02-4.29-.04-5.43-.04h-8.73c-1.56,0-3.03.01-4.42.04-1.39.02-2.61.05-3.65.07-1.05.02-1.77.04-2.15.04v-.37c.88-.15,1.58-.34,2.12-.58.52-.23.97-.61,1.28-1.1.32-.49.52-1.12.62-1.9.1-.78.15-1.8.15-3.07v-39.23c0-1.46-.07-2.61-.22-3.43-.15-.83-.4-1.46-.77-1.9s-.83-.73-1.39-.88c-.66-.17-1.33-.31-2.01-.44v-.37c.73.05,1.81.09,3.25.11,1.44.02,3.47.04,6.1.04h10.93c3.14,0,5.54-.05,7.2-.15,0,.43.02.85.04,1.28.02.61.04,1.21.04,1.79,0,.83-.03,1.84-.07,3.03-.05,1.19-.17,2.18-.37,2.96h-.37c0-1.61-.17-2.86-.51-3.76-.34-.9-.99-1.57-1.94-2.01-.95-.44-2.28-.71-3.98-.8-1.71-.1-2.44-.15-5.12-.15-1.02,0-1.14.01-1.79.04-.66.03-1.21.05-1.64.07-.44.03-.8.07-1.1.15-.29.07-.58.13-.88.18v21.77c3.36,0,3.81-.04,5.71-.11s3.35-.29,4.35-.66c1-.37,1.68-.93,2.05-1.68.37-.75.69-1.81.99-3.18h.37c-.05,1.12-.09,2.15-.11,3.1-.02.95-.04,2.18-.04,3.69v2.45c0,.6.01,1.19.04,1.79.02.54.05,1.05.07,1.53.02.49.04,1.05.04,1.68h-.37c-.29-1.56-.62-2.78-.99-3.65-.36-.88-1.05-1.52-2.05-1.94-1-.41-2.45-.66-4.35-.73s-2.35-.11-5.71-.11v23.74c.78.29,2.85.44,6.21.44,2.82,0,7.28-.04,9.01-.11,1.73-.07,3.08-.34,4.05-.8.97-.46,1.67-1.18,2.08-2.16.41-.97.77-2.36,1.06-4.16Z"/>
        <path d="m346.62,141.41c-1.19-1.27-2.38-2.75-3.54-4.46h0c-1.2-1.75-2.32-3.56-3.36-5.41-1-1.77-1.99-3.55-2.96-5.33-.78-1.44-1.58-2.88-2.38-4.31-.68-1.22-1.22-1.97-1.61-2.26,2.14-.49,4.02-1.21,5.63-2.15,1.61-.95,2.93-2.05,3.98-3.29s1.83-2.59,2.34-4.05c.51-1.46.77-2.99.77-4.53,0-2.09-.38-4.04-1.13-5.84-.74-1.78-1.88-3.37-3.32-4.64-1.46-1.29-3.26-2.3-5.41-3.03-2.14-.73-4.6-1.1-7.38-1.1-.83,0-2.02.03-3.58.07-1.56.05-2.9.07-4.02.07h-3.76c-.51,0-1.02-.01-1.54-.04-.57-.03-1.14-.06-1.72-.11v.37c.68.1,1.25.27,1.72.51.46.24.83.62,1.1,1.13.27.51.45,1.17.55,1.97.1.8.15,1.82.15,3.03v39.23c0,1.46-.06,2.61-.18,3.43-.12.83-.33,1.46-.62,1.9-.29.44-.67.74-1.13.91-.46.17-1.04.3-1.72.4v.37c.83-.05,1.75-.09,2.78-.11,1.19-.03,2.39-.04,3.58-.04,1.27,0,2.45.01,3.54.04,1.1.02,2.03.06,2.81.11v-.37c-.68-.1-1.25-.23-1.72-.4s-.84-.47-1.13-.91-.5-1.07-.62-1.9c-.12-.83-.18-1.97-.18-3.43v-16.88h4.67c.39.34.78.8,1.17,1.39.4.61.78,1.23,1.13,1.86.35.62.68,1.26.99,1.9.29.61.56,1.11.8,1.5,2.14,4.04,3.88,7.21,5.22,9.5,1.34,2.29,2.57,4.01,3.69,5.15,1.12,1.15,2.28,1.88,3.47,2.19,1.19.32,2.74.5,4.64.55h.99c.22,0,.5-.03.84-.07v-.44c-1.17-.39-2.35-1.22-3.54-2.48Zm-20.57-22.58h-3.51v-25.42c1.07-.29,2.01-.49,2.81-.58.81-.1,1.63-.15,2.45-.15,1.9,0,3.57.37,5,1.1,1.41.71,2.64,1.72,3.62,2.96.97,1.24,1.71,2.7,2.19,4.38s.73,3.49.73,5.44c0,1.75-.2,3.37-.58,4.86-.39,1.49-1.1,2.78-2.12,3.87-1.02,1.1-2.39,1.96-4.09,2.59-1.71.63-3.87.95-6.5.95Z"/>
        <path d="m373.26,117.81c1.61,1.47,2.97,3.2,4.02,5.11,1.07,1.95,1.61,4.31,1.61,7.09,0,2.29-.39,4.35-1.17,6.17-.78,1.83-1.85,3.39-3.21,4.68-1.36,1.29-2.97,2.28-4.82,2.96s-3.85,1.02-5.99,1.02c-1.22,0-2.29-.07-3.21-.22-.93-.15-1.78-.31-2.56-.47-.78-.17-1.55-.33-2.3-.47-.76-.15-1.57-.22-2.45-.22h-.55c-.12,0-.31.02-.55.07.05-.19.07-.47.07-.84v-1.06c0-.82-.06-1.64-.18-2.45-.12-.8-.18-1.67-.18-2.59,0-.76.07-1.52.18-2.26.12-.81.35-1.6.69-2.34h.37c-.05.34-.09.66-.11.95-.03.29-.04.58-.04.88,0,1.51.33,2.84.99,3.98.65,1.14,1.53,2.12,2.59,2.89,1.07.78,2.29,1.36,3.65,1.75,1.36.39,2.78.58,4.24.58,1.25,0,2.5-.2,3.69-.58,1.18-.38,2.26-1,3.18-1.83.92-.83,1.67-1.85,2.23-3.07.56-1.22.84-2.68.84-4.38,0-2.43-.54-4.5-1.61-6.21-1.07-1.7-2.42-3.23-4.05-4.57-1.68-1.38-3.45-2.65-5.3-3.8-1.87-1.17-3.64-2.49-5.3-3.94-1.61-1.4-2.97-3.06-4.05-4.9-1.07-1.83-1.61-4.08-1.61-6.76,0-1.95.34-3.74,1.02-5.37.68-1.63,1.62-3.01,2.81-4.13,1.19-1.12,2.62-2,4.27-2.63,1.65-.63,3.46-.95,5.41-.95,2.09,0,3.88.2,5.37.58,1.48.39,2.93.58,4.35.58h.62c.21,0,.42-.03.62-.07-.1.78-.16,1.53-.18,2.26-.02.73-.04,1.58-.04,2.56v2.01c0,.8.02,1.47.07,2.01h-.44c-.54-2.87-1.71-4.99-3.51-6.36-1.8-1.36-4.04-2.05-6.72-2.05-1.14,0-2.27.16-3.36.47-1.04.3-2.01.81-2.85,1.5-.83.68-1.49,1.53-1.97,2.56-.49,1.02-.73,2.26-.73,3.73,0,2.34.54,4.32,1.61,5.95,1.07,1.63,2.41,3.1,4.02,4.42,1.67,1.36,3.43,2.62,5.26,3.76,1.87,1.17,3.63,2.5,5.26,3.98h0Z"/>
        <path d="m431.06,107.03c-1.36-3.34-3.23-6.22-5.59-8.66-2.36-2.44-5.13-4.33-8.29-5.7-3.17-1.36-6.53-2.05-10.08-2.05-4.14,0-7.87.78-11.18,2.34-3.31,1.56-6.11,3.63-8.4,6.21-2.29,2.58-4.06,5.52-5.3,8.8-1.24,3.29-1.86,6.66-1.86,10.12s.6,6.65,1.79,9.86c1.19,3.21,2.92,6.06,5.19,8.55,2.26,2.48,5.02,4.49,8.26,6.03,3.24,1.53,6.88,2.3,10.92,2.3,3.8,0,7.32-.71,10.56-2.12,3.24-1.41,6.05-3.34,8.44-5.77,2.39-2.44,4.25-5.28,5.59-8.55,1.34-3.26,2.01-6.77,2.01-10.52s-.68-7.51-2.04-10.85Zm-6.25,22.32c-1.05,3.12-2.46,5.7-4.24,7.74-1.78,2.05-3.87,3.57-6.28,4.57-2.41,1-5,1.5-7.78,1.5s-5.19-.49-7.53-1.46c-2.34-.97-4.38-2.49-6.14-4.57-1.75-2.07-3.14-4.7-4.17-7.89-1.02-3.19-1.53-6.98-1.53-11.36s.55-8.49,1.64-11.73c1.1-3.24,2.56-5.89,4.38-7.96,1.83-2.07,3.9-3.58,6.21-4.53,2.31-.95,4.69-1.42,7.12-1.42s4.91.49,7.27,1.46c2.36.97,4.48,2.52,6.36,4.64,1.88,2.12,3.38,4.82,4.53,8.11,1.14,3.29,1.72,7.24,1.72,11.87,0,4.24-.52,7.92-1.57,11.03Z"/>
        <path d="m483.78,91.11c.89-.02,1.78-.06,2.67-.11v.37c-.7.24-1.4.51-2.08.8-.56.24-1.02.74-1.39,1.5-.36.76-.66,1.88-.88,3.36-.22,1.49-.38,3.58-.47,6.28-.1,2.7-.16,6.13-.18,10.27-.03,4.14-.04,9.25-.04,15.34v16.8h-.37l-41.5-46.17v6.58c0,6.09.01,11.21.04,15.38.02,4.16.08,7.6.18,10.3.1,2.7.24,4.8.44,6.28.19,1.49.49,2.62.88,3.4.39.78.86,1.3,1.42,1.57.56.27,1.25.55,2.08.84v.37c-.83-.05-1.73-.09-2.7-.11-.97-.02-2.14-.04-3.51-.04-1.27,0-2.35.01-3.25.04-.9.02-1.74.06-2.52.11v-.37c.78-.29,1.44-.58,1.97-.88.54-.29.99-.83,1.35-1.61.37-.78.63-1.91.8-3.4.17-1.49.3-3.58.4-6.28.1-2.7.16-6.14.18-10.3.02-4.16.04-9.29.04-15.38v-16.15h.51l41.35,45.95v-6.5c0-6.14-.01-11.31-.04-15.52-.03-4.21-.09-7.68-.18-10.41-.1-2.73-.26-4.83-.47-6.32-.22-1.49-.51-2.6-.88-3.36-.37-.75-.84-1.27-1.42-1.53-.58-.27-1.27-.55-2.05-.84v-.37c.9.05,1.8.09,2.7.11.97.02,2.14.04,3.51.04,1.27,0,2.4-.01,3.4-.04h0Z"/>
      </g>
      <rect class="cls-1" width="550.33" height="235.24"/>
    </g>
  </g>
</svg>