<svg xmlns="http://www.w3.org/2000/svg" viewBox="0 0 243 103.9"><g id="Layer_2" data-name="Layer 2"><g id="Layer_1-2" data-name="Layer 1"><g id="svg_1" data-name="svg 1"><path id="svg_2" data-name="svg 2" d="M55.9,35.8A9.4,9.4,0,0,0,51,39.7a23.2,23.2,0,0,0-3.2,9.8,44.6,44.6,0,0,0,1.3,13.3c.9,2.6,1.6,3.3,3.1,2.8s.5-.4.3-1.1-.6-3.2-1-6.5c-.2-1.6-.4-2.9-.4-2.9l1-.7a41.4,41.4,0,0,0,5.1-4,12.2,12.2,0,0,0,3.5-6.3,12.9,12.9,0,0,0,0-4.8c-.6-2.2-1.9-3.5-3.6-3.6Zm1.6,1.8c2,.7,2.2,4.1.4,7.8a17.5,17.5,0,0,1-6.1,7.1l-.9.7v-.3c0-.2-.1-1.1-.2-2.1a23.1,23.1,0,0,1,.4-5.9c.6-3,1.6-5.1,3.1-6.5A3,3,0,0,1,57.5,37.6Z"/><path id="svg_3" data-name="svg 3" d="M126.6,39.6a4.7,4.7,0,0,0-3.4,2.5,4.1,4.1,0,0,0,0,2.7c.4,1.1,2.2,3.4,5,6.5s5.2,7.2,5,8.8a2.6,2.6,0,0,1-.7,1.4,4.3,4.3,0,0,1-2.1.6c-1.6,0-2.8-.7-5.4-2.8l-1.5-1c-.4-.2-.4-.2-.6,0a.8.8,0,0,0-.2.5c0,.9,2.3,3.1,4.5,4.2s3.8,1.6,5.6,1.2,1.9-.9,2.4-2.4a5.2,5.2,0,0,0,.2-1.7,9.3,9.3,0,0,0-1.1-3.5c-1.1-2.2-2.3-3.9-5.4-7.7s-2.9-3.5-3.3-4.2a2.1,2.1,0,0,1-.2-2,2,2,0,0,1,1.5-1.2c1.2-.2,3.6.6,5.2,1.8s1.4,1.8.6,2.3-.4.7,0,.8a2.1,2.1,0,0,0,1.5-.3,1.4,1.4,0,0,0,.9-.8,1.6,1.6,0,0,0,.3-.9c0-.7-1-2.1-2.3-3a12.6,12.6,0,0,0-3.3-1.6A12,12,0,0,0,126.6,39.6Z"/><path id="svg_4" data-name="svg 4" d="M97.4,41.1a4.5,4.5,0,0,0-2.5,2.4,7.8,7.8,0,0,0-.8,3.9,7.2,7.2,0,0,0,.3,2.7,32.5,32.5,0,0,0,3.4,7.6,8.1,8.1,0,0,1,.7,1.4,9.2,9.2,0,0,1-1,2,2.7,2.7,0,0,1-2,.9c-2.3,0-3.7-1.4-6.6-6.6-.9-1.5-1.3-1.9-1.9-1.5a28.9,28.9,0,0,0-1.6,2.8,20.4,20.4,0,0,1-1.7,3.1,1.7,1.7,0,0,1-1.6.9c-.9-.2-1.4-1-2.6-5s-1.2-3.1-1.8-2.8-.8,1.2-1.6,3.7c-1.4,4.6-1.8,5.2-3,5a1.9,1.9,0,0,1-1.5-.9,18.3,18.3,0,0,1-1.4-4.3,16.6,16.6,0,0,0-1.6-4.1,3.6,3.6,0,0,0-3-2.2c-2.1-.2-3.9,1.2-5.5,4.3A12.3,12.3,0,0,0,59,58.6c-.2,3.2.5,5.1,2.5,6a6.1,6.1,0,0,0,4.4,0,3.6,3.6,0,0,0,1.6-1.5c1.4-1.7,2.5-1.6,3.6.1s1.5,1.6,2.5,1.4,1.8-.9,3.3-3.5c.7-1.1,1-1.3,1.4-1.3s.9.5,1.5,1.5,1.4,1.8,2.6,1.8l1.1-.2a12.2,12.2,0,0,0,2.6-2.6c1-1.2,1.3-1.4,1.7-1.5s1,.3,2,1.7a10.9,10.9,0,0,0,3.1,3.1,2.7,2.7,0,0,0,1.6.3,8.4,8.4,0,0,0,1.6,0,5.9,5.9,0,0,0,3.3-2.4l.4-.7.6.5a7,7,0,0,0,4.7,2,6.6,6.6,0,0,0,4.1-.9c.8-.5,1-.8.9-1.2a1.1,1.1,0,0,0-.8-.7l-1,.4a4.7,4.7,0,0,1-2.7.8c-1.6,0-2.8-.8-4.2-2.5l-.6-.7.2-.8a51.3,51.3,0,0,0,1.2-5.9c.7-4.3.2-7.9-1.3-9.8A3.5,3.5,0,0,0,97.4,41.1Zm1.9,1.6c.5.5.7,1.3.9,2.9a40.4,40.4,0,0,1-.6,9L99.3,56l-1.2-2.5c-1.5-2.9-1.7-3.4-1.9-4.7a10.1,10.1,0,0,1-.3-3.3c.3-2,1.2-3.2,2.5-3.2S98.9,42.4,99.3,42.7ZM66.2,52.3A5.2,5.2,0,0,1,68,55.7c0,.4.1,1.2.1,1.9a4.6,4.6,0,0,1-1.4,3.8,4.3,4.3,0,0,1-2.3,1.2,2.1,2.1,0,0,1-2.5-1.3,9.6,9.6,0,0,1-.3-3.4A11,11,0,0,1,63.3,53,2.4,2.4,0,0,1,66.2,52.3Z"/><path id="svg_5" data-name="svg 5" d="M162.3,41.4c-.4.3-.5.7-.5,1.5a2.4,2.4,0,0,0,.7,1.7,1.6,1.6,0,0,0,1.4.4c1.3-.3,1.1-2.5-.2-3.5A1.2,1.2,0,0,0,162.3,41.4Z"/><path id="svg_6" data-name="svg 6" d="M175.6,44c-.3.1-.5.6-.5,1.2s.1,1.1.2,2c.9,7.1.8,8.8-.2,11.1a9,9,0,0,1-1.7,2.6,4.2,4.2,0,0,1-2.1,1.2,2.1,2.1,0,0,1-1.4-.8c-.6-.4-1.9-2.5-3.2-4.9s-1.8-3-2.3-3.1-.6.5-1.4,2.3c-1.3,3.4-2.1,4.7-2.8,4.9s-1.5-.4-3.3-3.6-2.3-3.7-3.1-3.8-1.1.2-2.3,2.6-1.9,3.5-2.6,3.7-1.5-.3-3.4-3.9c-1-1.8-1.4-2.4-1.8-2.4s-.9.6-1.3,1.7a3.4,3.4,0,0,1-.8,1.4c-.4.4-.5.5-.8.4s-.8-.4-1.2-1.1-.6-1-.9-1.1-.6,0-.8.4a4.4,4.4,0,0,0,.3,2.3c.1.6.4,1.7.5,2.5.4,2.7.8,4.1,1.3,4.3s.2,0,.5-.1a10,10,0,0,0,1.4-2.4c1.3-2.5,1.6-2.9,2.2-2.9h.6a15.5,15.5,0,0,1,2.2,3.2c1.3,2.3,1.8,2.7,2.7,2.1s.9-1,2.1-3.3,1.8-3.2,2.5-3.2,1.1.6,3.2,3.9,2,3,2.5,3.2a1.1,1.1,0,0,0,1.2-.1,12.7,12.7,0,0,0,1.9-3c.8-1.6,1.5-2.4,1.9-2.4a2.3,2.3,0,0,1,1.2.6,18.8,18.8,0,0,0,1.3,1.7c1.5,1.8,2.3,2.7,2.9,3s2.3.3,3.6-.7l1.8-1.7,1.4-1.2a2.9,2.9,0,0,1,.8,1.1c1.9,3.2,2.8,3.9,4.5,3.9a2.5,2.5,0,0,0,2.3-1c1-1.3,1.4-1.7,2.1-1.7s.7.1,1.5.8.6.6,1,.6.8-.2,1.7-1.5a16.5,16.5,0,0,1,3.1-3.4,3.3,3.3,0,0,1,2.1-1c.8,0,1.3.3,3.4,2.5,4.3,4.5,4.3,4.4,5.5,4.7s2.9.1,5.3-.7c.8-.2,1.1-.6,1.1-1.2s-.4-.5-1.9-.2-3.5.7-4.4.1-5.4-5.3-6.6-6.7-1.8-1.7-2.9-1.3-2.8,1.8-4.6,3.5a2.9,2.9,0,0,1-2,1.1,1.4,1.4,0,0,1-1.2-.9,29.2,29.2,0,0,1-.3-5.8c0-5-.4-6.9-1.4-7.4s-1.6.7-1.4,3.2a75.4,75.4,0,0,1,.1,8.2c-.2,1.8-.7,3.5-1.3,4.1a1.6,1.6,0,0,1-2.3.3c-1.3-1-2.7-5.5-2.9-9.2-.2-2.2.2-2.6,2.7-3.2s2-.6,2-1.3a1.2,1.2,0,0,0-1.2-1.2l-1.2.2-1.4.2c-.7,0-1-.2-1.2-1S176.6,43.8,175.6,44Z"/></g><rect width="243" height="103.87" style="fill:none"/></g></g></svg>