<svg xmlns="http://www.w3.org/2000/svg" width="242.98763" height="103.86572" viewBox="0 0 242.98763 103.86572"><defs><style>.cls-1{fill:none;}</style></defs><g id="Layer_2" data-name="Layer 2"><g id="Layer_1-2" data-name="Layer 1"><rect class="cls-1" width="242.98763" height="103.86572"/><path d="M29.21767,51.19907c.105-.57831.16919-1.16763.32155-1.73316,1.06733-3.96174,4.40032-5.84741,8.19006-5.49437a6.106,6.106,0,0,1,5.88928,5.40365,2.44563,2.44563,0,0,1-.33994.04755c-.87818.00328-1.75675.01351-2.63419-.01259a.55571.55571,0,0,1-.42043-.2721,3.18734,3.18734,0,0,0-2.9455-2.2552,3.77366,3.77366,0,0,0-3.63385,1.60609,6.55484,6.55484,0,0,0,.00282,6.84329,4.06642,4.06642,0,0,0,4.983,1.31066A2.81152,2.81152,0,0,0,40.163,54.82322a.47565.47565,0,0,1,.53911-.40227c.965.02043,1.93082.00741,2.94742.00741a6.15224,6.15224,0,0,1-2.80972,4.45945,8.21039,8.21039,0,0,1-9.07071-.69765A7.4765,7.4765,0,0,1,29.308,53.22575c-.02346-.19141-.05988-.38123-.09028-.57178Z"/><path d="M210.43492,44.21881h3.335V59.652a13.65175,13.65175,0,0,0-1.77391.01476,1.79966,1.79966,0,0,1-1.85239-.917c-2.0485-2.79833-4.166-5.54606-6.25911-8.31172-.0816-.10781-.17266-.20847-.3166-.38123v9.55962h-3.31288V44.20128a12.61238,12.61238,0,0,0,1.74553-.01493,1.92443,1.92443,0,0,1,1.99657.99077c2.00154,2.75752,4.07447,5.46316,6.1215,8.18761.08029.10685.16913.20728.31624.38662Z"/><path d="M111.30444,48.941c-1.09864,0-2.12634.00458-3.15384-.00774a.36553.36553,0,0,1-.27047-.17351c-.7402-1.60584-2.13722-1.98211-3.70169-1.87535a4.20676,4.20676,0,0,0-3.9789,3.91533,6.70559,6.70559,0,0,0,.4527,3.78054,4.34149,4.34149,0,0,0,6.40969,1.647,2.90476,2.90476,0,0,0,1.20371-2.46007h-3.75951c0-.81289-.00615-1.58043.01108-2.34745.00146-.06486.15932-.18106.24461-.18115,2.13452-.00226,4.26906.00784,6.40359.01693.01194.00006.02381.01677.06748.04955v8.30913H109.107l-.2894-1.58988a.847.847,0,0,0-.18881.11905,5.267,5.267,0,0,1-3.80654,1.76392,7.314,7.314,0,0,1-8.08666-6.72818,8.62233,8.62233,0,0,1,1.36172-6.1523,7.28981,7.28981,0,0,1,5.98794-3.08521,7.42924,7.42924,0,0,1,5.23024,1.55568A5.59182,5.59182,0,0,1,111.30444,48.941Z"/><path d="M136.74451,53.7689h-3.697V51.266h6.67073v8.36131h-2.10771l-.3163-1.703c-.24236.26657-.39881.47058-.58646.64a5.98383,5.98383,0,0,1-4.84221,1.31231c-4.2666-.39669-6.78319-3.82905-6.70731-8.10793a8.14716,8.14716,0,0,1,1.62646-5.005,8.17242,8.17242,0,0,1,11.238-1.08355,5.35971,5.35971,0,0,1,1.76389,3.258c-1.08676,0-2.14111.00381-3.19528-.00818-.07386-.00084-.17739-.1041-.215-.18421a3.37628,3.37628,0,0,0-3.66616-1.86379,4.2897,4.2897,0,0,0-4.05869,4.29,6.71515,6.71515,0,0,0,.52166,3.46216,4.35212,4.35212,0,0,0,6.39719,1.58677A2.78028,2.78028,0,0,0,136.74451,53.7689Z"/><path d="M146.4114,44.28928c2.72669,0,5.4246-.10493,8.10971.0355a4.27566,4.27566,0,0,1,4.11823,2.97616,5.06108,5.06108,0,0,1-2.59689,6.42357,2.10572,2.10572,0,0,0-.19555.11728c.61311.972,1.21547,1.92754,1.81839,2.88268.59658.94513,1.19374,1.88989,1.82175,2.884-.15925.01827-.26917.04152-.37916.04183-.96909.00265-1.93836-.00969-2.90712.00785a.57853.57853,0,0,1-.57369-.32712c-.95891-1.57787-1.93793-3.14352-2.89647-4.72162a.61213.61213,0,0,0-.6104-.34971c-.7688.02188-1.53864.00731-2.36381.00731v5.35988h-3.345Zm3.374,2.63365v4.65043c1.2035,0,2.38175.035,3.557-.00935a2.19013,2.19013,0,0,0,2.13426-2.39579,2.08742,2.08742,0,0,0-2.11929-2.23594C152.19465,46.88768,151.02889,46.92293,149.78535,46.92293Z"/><path d="M49.41073,44.20128c1.91663,0,3.79252.00408,5.66838-.00149a11.93885,11.93885,0,0,1,3.46827.303A4.50248,4.50248,0,0,1,61.886,49.60355a4.63515,4.63515,0,0,1-2.8814,4.12818,1.8116,1.8116,0,0,0-.17941.11137l3.671,5.80883c-.43876,0-.80545,0-1.17213,0-.71161,0-1.4236-.01342-2.13464.00667a.5722.5722,0,0,1-.577-.3183c-.959-1.57774-1.9411-3.14145-2.89671-4.72122a.64751.64751,0,0,0-.65267-.3583c-.75325.01992-1.50737.0065-2.31184.0065v5.35731H49.41073Zm3.358,7.38474c1.06368,0,2.10287.00231,3.142-.00181a3.90959,3.90959,0,0,0,.67809-.042,2.23528,2.23528,0,0,0,1.88339-2.322,2.06681,2.06681,0,0,0-1.81507-2.23782,10.13638,10.13638,0,0,0-1.6269-.06849c-.75046-.00968-1.50113-.00243-2.26156-.00243Z"/><path d="M176.72093,56.77678v2.84486H165.25054V44.23778h11.22975v2.7889H168.6505v3.39157h6.35037v2.6606h-6.35022v3.69793Z"/><path d="M182.889,44.2264h11.23881v2.78622h-7.8364v3.40193h6.3567v2.67077h-6.368v3.71754h8.05863v2.82091H182.889Z"/><path d="M67.2119,59.65194c.53317-1.4774,1.04389-2.89774,1.55822-4.31678,1.29339-3.56847,2.5934-7.13455,3.87429-10.70751a.52991.52991,0,0,1,.602-.43576c1.17976.02476,2.36035.0094,3.55878.0094C78.66966,49.348,80.52733,54.4759,82.402,59.65089c-1.16021,0-2.263.00843-3.36519-.0135-.10606-.00211-.26-.17452-.30408-.299q-.44677-1.26142-.84825-2.5387a.3962.3962,0,0,0-.44813-.33037q-2.6808.01584-5.36172.00184a.39377.39377,0,0,0-.45255.323c-.25005.80894-.54661,1.60383-.78377,2.41625a.5359.5359,0,0,1-.63827.451C69.23215,59.6335,68.26289,59.65194,67.2119,59.65194Zm5.41781-5.92138h4.24283l-2.04225-6.29787L74.719,47.428Z"/><path d="M87.59469,44.213h3.29462V59.6252H87.59469Z"/></g></g></svg>