<svg xmlns="http://www.w3.org/2000/svg" viewBox="0 0 243 103.9"><g id="Layer_2" data-name="Layer 2"><g id="Layer_1-2" data-name="Layer 1"><polygon points="45.7 44.4 42 55.9 38 44.4 35.4 44.4 31.4 55.9 27.7 44.4 25.1 44.4 30.3 59.4 32.6 59.4 36.7 47.9 40.8 59.4 43.1 59.4 48.3 44.4 45.7 44.4"/><polygon points="67.5 44.4 65 44.4 65 59.4 76.6 59.4 76.6 57.2 67.5 57.2 67.5 44.4"/><polygon points="165.1 55.7 156.2 44.4 153.7 44.4 153.7 59.4 156.1 59.4 156.1 48 165.1 59.4 167.4 59.4 167.4 44.4 165.1 44.4 165.1 55.7"/><polygon points="182.7 55.7 173.8 44.4 171.3 44.4 171.3 59.4 173.7 59.4 173.7 48 182.7 59.4 185 59.4 185 44.4 182.7 44.4 182.7 55.7"/><path d="M142.7,44c-4.7,0-7.9,3.1-7.9,7.9s3.2,8,7.9,8,8-3.1,8-8S147.5,44,142.7,44Zm0,13.6c-3.3,0-5.4-2.3-5.4-5.7s2.1-5.7,5.4-5.7,5.5,2.4,5.5,5.7S146.1,57.6,142.7,57.6Z"/><path d="M129.4,51.5a3.6,3.6,0,0,0,2.4-3.3c0-1.1-.4-3.8-4.7-3.8h-7.8v15h7.8c3.9,0,5.1-2.2,5.1-4.2A3.6,3.6,0,0,0,129.4,51.5Zm-7.6-4.8h4.5c1.6,0,3,0,3,1.8s-1.2,1.9-2.7,1.9h-4.8ZM127,57.2h-5.2V52.7h4.8c2.8,0,3.2,1.5,3.2,2.3S128.9,57.2,127,57.2Z"/><path d="M97.3,48.2c0-1.2,1.4-2,3.8-2,3.9,0,4,2.2,4,2.2h2.4s-.1-4.4-6.4-4.4c-2.5,0-6.2.7-6.2,4.3,0,6,10.4,3.1,10.4,7.1,0,1.1-1.5,2.2-4,2.2s-4.4-1.4-4.4-3H94.4c0,2.2,1.1,5.3,6.9,5.3s6.5-2.6,6.5-4.7C107.8,48.9,97.3,51.7,97.3,48.2Z"/><path d="M213.8,53.2a4.3,4.3,0,0,0,3.4-4.4c0-3.3-2.2-4.4-5.2-4.4h-7.4v15H207V53.8h4.3l3.8,5.6h2.8ZM207,51.5V46.7h4c1.6,0,3.8-.1,3.8,2.2s-.5,2.6-3.3,2.6Z"/><polygon points="79.2 59.4 91.7 59.4 91.7 57.2 81.7 57.2 81.7 52.9 91 52.9 91 50.6 81.7 50.6 81.7 46.7 91.7 46.7 91.7 44.4 79.2 44.4 79.2 59.4"/><polygon points="188.9 59.4 201.4 59.4 201.4 57.2 191.4 57.2 191.4 52.9 200.7 52.9 200.7 50.6 191.4 50.6 191.4 46.7 201.4 46.7 201.4 44.4 188.9 44.4 188.9 59.4"/><path d="M54,44.4l-6.1,15h2.5l1.2-2.9h7.1l1.2,2.9h2.6l-6.2-15Zm-1.5,9.9,2.7-6.8,2.6,6.8Z"/><rect width="243" height="103.87" style="fill:none"/></g></g></svg>