<svg xmlns="http://www.w3.org/2000/svg" viewBox="0 0 242.99 103.87"><defs><style>.cls-1{fill:none;}</style></defs><g id="Layer_2" data-name="Layer 2"><g id="Layer_1-2" data-name="Layer 1"><path id="Path_56" data-name="Path 56" d="M126.9,52.2c1.09,0,1.39.69,1.39,1.78V66.12c0,1.19-.3,1.78-1.39,1.78v1.39h6.62V67.9c-1.19-.1-1.48-.49-1.48-2V53.78c0-1.19.39-1.78,1.48-1.78V50.62H126.9Z"/><path id="Path_57" data-name="Path 57" d="M143.2,60.3h0c-1-1.19-2-2-2.28-2.37l-2-2a3,3,0,0,1-1.09-1.68,2.08,2.08,0,0,1,.3-2,2,2,0,0,1,1.78-.6,3.43,3.43,0,0,1,1.87,1.19,10,10,0,0,1,1,1.78c.1.49.2.79.2.88s.1.5.1.6h1.58V50.62h-1.19a.71.71,0,0,1-.29.39c-.2.1-.3,0-.4,0a7.47,7.47,0,0,0-2.27-.69,6.51,6.51,0,0,0-3.65.39,8.31,8.31,0,0,0-1.48,1,4.75,4.75,0,0,0-1,1.48,4.64,4.64,0,0,0-.1,3.26,9.51,9.51,0,0,0,1.78,2.77l1.38,1.38A18.34,18.34,0,0,1,139,62.17c.5.5,1,1,1.68,1.78a3,3,0,0,1,.79,2.37,2,2,0,0,1-.89,1.48,2.06,2.06,0,0,1-1.87.1,2.83,2.83,0,0,1-1.39-1.19,7.6,7.6,0,0,1-.79-1.77c-.19-.6-.39-1.39-.39-1.39H134.7v5.63h1a2.52,2.52,0,0,1,.49-.49.94.94,0,0,1,.89,0,7.08,7.08,0,0,0,1.09.39,7.91,7.91,0,0,0,2.27.3,4.38,4.38,0,0,0,1.88-.49,4.44,4.44,0,0,0,2.08-2,6,6,0,0,0,.49-3.65A6.46,6.46,0,0,0,143.2,60.3Z"/><path id="Path_58" data-name="Path 58" d="M110.21,68c-1.38,0-2.17-1-2.17-2.57V60.3c2,0,3.75.69,3.95,2.47h1.28v-6H112c-.3,1.58-2,2.17-3.95,2.17V52.2h1a4.47,4.47,0,0,1,4.55,2.57h1.18v-4H102.41V52.2c1.09,0,1.58.6,1.58,1.78v12c0,1.29-.3,1.88-1.48,2v1.38h12l.49-4.74h-1.18C113.08,66.82,111.59,68,110.21,68Z"/><path id="Path_59" data-name="Path 59" d="M96.29,52.2h-.1c1.38.2,1.68,1,1.68,3v7h-.1l-7-11.35H85.43V52.2A3.84,3.84,0,0,1,87.9,54v9.87c0,2.87-.3,3.56-1.68,4.15v1.39h5V68c-1.48-.3-1.77-1.28-1.77-3V55.26l.09.1,8.6,14.12h1.28V54.77A3.27,3.27,0,0,1,100,52.5a2.77,2.77,0,0,1,1.48-.4V50.72H96.29Z"/><path id="Path_60" data-name="Path 60" d="M70.51,50.82H56v4h1.19c.49-2.47,2.76-2.67,4-2.67v14c0,1.19-.2,1.78-1.49,1.78v1.39h7.12V68c-1.49-.1-1.49-.79-1.49-2V52.2c1.39,0,3.36.39,3.86,2.67h1.28Z"/><path id="Path_61" data-name="Path 61" d="M53.52,60.3h0a26.78,26.78,0,0,0-2.27-2.37l-2-2a3,3,0,0,1-1.09-1.68,2,2,0,0,1,.3-2,2,2,0,0,1,1.77-.6,3.49,3.49,0,0,1,1.88,1.19,8.36,8.36,0,0,1,1,1.78c.1.49.19.79.19.88s.1.5.1.6H55V50.62H53.82a.73.73,0,0,1-.3.39c-.2.1-.29,0-.39,0a7.64,7.64,0,0,0-2.27-.69,6.54,6.54,0,0,0-3.66.39,8.31,8.31,0,0,0-1.48,1,4.93,4.93,0,0,0-1,1.48,4.64,4.64,0,0,0-.1,3.26,7.89,7.89,0,0,0,1.78,2.77l1.39,1.38a20.05,20.05,0,0,1,1.48,1.58c.49.5,1,1,1.68,1.78a3,3,0,0,1,.79,2.37,2,2,0,0,1-.89,1.48,2.08,2.08,0,0,1-1.88.1,2.77,2.77,0,0,1-1.38-1.19,7.2,7.2,0,0,1-.79-1.77c-.2-.6-.4-1.39-.4-1.39H45v5.63h1a2.33,2.33,0,0,1,.5-.49.94.94,0,0,1,.89,0,7,7,0,0,0,1.08.39,8,8,0,0,0,2.28.3,4.82,4.82,0,0,0,4-2.47,6,6,0,0,0,.49-3.65A6.46,6.46,0,0,0,53.52,60.3Z"/><path id="Path_62" data-name="Path 62" d="M78.11,50.52c-2.07,0-7.6,1.28-7.6,9.48s5.23,9.68,7.6,9.68S85.72,68.1,85.72,60,80.09,50.52,78.11,50.52Zm2.28,15.7c-.5,1.09-1,2.08-2.28,2.08s-2.17-1.39-2.47-2.37a25.91,25.91,0,0,1-.49-6,27.2,27.2,0,0,1,.49-5.62c.2-.79.89-2.47,2.47-2.47A2.68,2.68,0,0,1,80.48,54a26.8,26.8,0,0,1,.6,5.92c0,1.78-.2,5.24-.69,6.32Z"/><path id="Path_63" data-name="Path 63" d="M125.22,35.41l-3.85-18.67-3.75,18.67L99,39.16l18.67,3.76,3.75,18.66,3.75-18.66,18.67-3.76Zm-23.9,3.75,16.5-3.36,3.25,3.36Zm20.05,20.05L118,42.72l3.36-3.26Zm0-40.1,3.36,16.5-3.36,3.25ZM125,42.52l-3.26-3.36h19.75Z"/><path id="Path_64" data-name="Path 64" d="M180.43,52.2h.1c1.38.2,1.68,1.09,1.68,3.06v7h-.1L175.2,50.91h-4.74V52.3c.69.2,1.77,1.58,1.77,1.58V64.64c-.1,1.29-.1,2.57-.69,3.16a.83.83,0,0,1-.69.2c-.69,0-1.09-.59-1.78-3.26l-3.55-13.83h-3.85l.39,1.48L158.7,64.05c-.79,2.86-1.18,3.75-2.07,4.25v1.08h4.54V68.29a1.88,1.88,0,0,1-1.28-1.87,10.47,10.47,0,0,1,.29-1.58l.5-1.68h4l.5,2.08a9.17,9.17,0,0,1,.29,1.58,1.61,1.61,0,0,1-1.08,1.58v1.08h11.16V68.29c-1.48-.29-1.88-1.48-1.88-3.16V55.26l.1.1,8.59,14.12h1.29V54.77c0-1.58.1-2.37,1.18-2.57V50.81h-4.44Zm-19.16,9.18L162.85,55h.1l1.48,6.42Z"/><path id="Path_65" data-name="Path 65" d="M191,50.82h-5.33V52.2c.69.2.89.89.89,1.68V65.93c0,1.28,0,1.87-.89,2v1.39h5.82c5.83,0,7.11-4.84,7.11-9.28C198.6,53.38,196,50.82,191,50.82ZM191.79,68c-.89,0-1.39-.39-1.39-2.08V52.2h.5c1.87,0,3.45,1.48,3.45,7.7C194.36,64.64,193.86,68,191.79,68Z"/><path id="Path_66" data-name="Path 66" d="M151.69,68h0c-1,0-.89-1-.89-2.86V54.07c0-1.18.3-1.77,1.48-1.87V50.81h-6.42V52.2c1,.1,1.29.59,1.29,1.87V66.12c0,1.19-.2,1.78-1.29,1.88v1.38h10.08l.59-4.64h-1.09C154.55,66.82,153.07,68,151.69,68Z"/><rect class="cls-1" width="242.99" height="103.87"/></g></g></svg>