<svg xmlns="http://www.w3.org/2000/svg" viewBox="0 0 242.99 103.87"><defs><style>.cls-1{fill:none;}</style></defs><g id="Layer_2" data-name="Layer 2"><g id="Layer_1-2" data-name="Layer 1"><rect class="cls-1" width="242.99" height="103.87"/><path d="M107.17,50.27a11.13,11.13,0,1,0-4.08,15.21h0a11.12,11.12,0,0,0,4.07-15.2h0ZM102.82,65c-3.65,2.1-8.94-.3-11.9-5.36s-2.33-10.86,1.28-13,9,.3,11.9,5.35S106.47,62.9,102.82,65Zm-16.2,1.42v.32H80.35v-.32a1.53,1.53,0,0,0,1.53-1.54h0V47.4L77.82,66.75h-.25L73.45,47.13V64.89A1.55,1.55,0,0,0,75,66.43v.32h-3.5v-.32A1.53,1.53,0,0,0,73,64.91v0h0V46.78a1.53,1.53,0,0,0-1.52-1.53h0v-.32h4.9l2.79,13.29L82,44.93h4.65v.32a1.55,1.55,0,0,0-1.54,1.53V64.89A1.55,1.55,0,0,0,86.62,66.43ZM63.26,58.58h.32l-1,8.17h-10v-.32a1.55,1.55,0,0,0,1.54-1.53h0V46.78a1.55,1.55,0,0,0-1.54-1.53h0v-.32h9.45l.82,7h-.33c-.48-4.17-2.44-6.6-5.2-6.6v7.5c1.63,0,2.76-2.38,2.76-4.38h.32v9.19h-.32c0-2-1.13-4.38-2.76-4.38v11.6a1.54,1.54,0,0,0,1.54,1.54,1.57,1.57,0,0,0,1-.34s2.34-1.91,3.39-7.51Zm-11.1,0h.32l-1,8.17h-10v-.32a1.53,1.53,0,0,0,1.53-1.52v0h0V46.78a1.54,1.54,0,0,0-1.53-1.53h0v-.32h6.28v.32a1.54,1.54,0,0,0-1.54,1.53h0V64.89a1.53,1.53,0,0,0,1.52,1.54,1.45,1.45,0,0,0,1-.34s2.34-1.91,3.4-7.51Zm136-6.7c0-3.68-2.65-7-6-7h-5.88v.32a1.52,1.52,0,0,1,1.5,1.53V64.89a1.55,1.55,0,0,1-1.53,1.54v.32h6v-.32A1.28,1.28,0,0,1,181,65.15h0v-6.3h1l1.15,6.91v.1a.6.6,0,0,1-.6.6h0v.32h5.52v-.32a1.85,1.85,0,0,1-1.8-1.54l-1.16-7h0a7.35,7.35,0,0,0,3-6ZM181,58.39v-13c3.14,0,3.84,2.94,3.84,6.52S184.15,58.39,181,58.39Zm-5.34.19H176l-1,8.17h-10v-.32a1.54,1.54,0,0,0,1.54-1.53h0V46.78a1.55,1.55,0,0,0-1.54-1.53h0v-.32h9.46l.81,7H175c-.49-4.17-2.47-6.6-5.2-6.6v7.5c1.62,0,2.76-2.38,2.76-4.38h.32v9.19h-.35c0-2-1.14-4.38-2.76-4.38v11.6a1.53,1.53,0,0,0,1.53,1.54h0a1.58,1.58,0,0,0,1-.34s2.33-1.91,3.39-7.51Zm35.19,0-1,8.17h-10v-.32a1.53,1.53,0,0,0,1.53-1.54V46.78a1.53,1.53,0,0,0-1.53-1.53v-.32h6.28v.32a1.53,1.53,0,0,0-1.53,1.53V64.89a1.54,1.54,0,0,0,2.5,1.2s2.34-1.88,3.39-7.5Zm-51.18-4.75a4.4,4.4,0,0,0,3.1-4.31,4.58,4.58,0,0,0-4.55-4.59h-6v.32a1.53,1.53,0,0,1,1.54,1.53h0V64.89a1.54,1.54,0,0,1-1.53,1.54h0v.32h6c5.7,0,6.87-4.48,6.87-6.52A6.28,6.28,0,0,0,159.69,53.83ZM157,45.33c1.2,0,2.9.64,2.9,4.2s-1.7,4.21-2.9,4.21Zm1.28,21A1.28,1.28,0,0,1,157,65.06h0V54.15c3.66,0,4.92,2.08,4.92,6.08s-1.77,6.08-3.64,6.08ZM195.42,45h4v.32A2.28,2.28,0,0,0,197.13,47l-2.29,9.65v8.22a1.53,1.53,0,0,0,1.52,1.54h0v.32h-6.28v-.32a1.53,1.53,0,0,0,1.53-1.54V56.66L188.81,46.6A1.85,1.85,0,0,0,187,45.25v-.32h6.28v.32a1.18,1.18,0,0,0-1.17,1.17,1.55,1.55,0,0,0,0,.31l2.47,8.84,2.07-8.68a1.33,1.33,0,0,0-1-1.6,1.1,1.1,0,0,0-.31,0Zm-68.3,0h-6v.32a1.53,1.53,0,0,1,1.57,1.5v0h0v18.1a1.54,1.54,0,0,1-1.53,1.54h0v.32h6c4,0,6-5,6-10.91s-2-10.93-6-10.93Zm0,21.38a1.29,1.29,0,0,1-1.28-1.28h0V45.36c2.49,0,3.79.73,3.79,10.48,0,7.52-.69,10.47-2.51,10.47ZM144,58.6h.32l-1,8.17h-10v-.32a1.54,1.54,0,0,0,1.53-1.54V46.78a1.54,1.54,0,0,0-1.53-1.53v-.32h9.44l.82,7h-.32c-.49-4.17-2.44-6.6-5.2-6.6v7.5c1.62,0,2.75-2.38,2.75-4.38h.36v9.19h-.33c0-2-1.13-4.38-2.75-4.38v11.6a1.54,1.54,0,0,0,1.54,1.54,1.52,1.52,0,0,0,1-.34s2.34-1.91,3.4-7.51ZM108.09,45.25v-.32h4.7l5.64,12.78V46.78a1.55,1.55,0,0,0-1.54-1.53v-.32h3.5v.32a1.55,1.55,0,0,0-1.54,1.53h0v20h-.26l-8.17-18.54V64.89A1.54,1.54,0,0,0,112,66.43h0v.32h-3.51v-.32A1.53,1.53,0,0,0,110,64.89h0V47.23l-.47-1.07A1.55,1.55,0,0,0,108.09,45.25Z"/></g></g></svg>