<svg xmlns="http://www.w3.org/2000/svg" viewBox="0 0 243 103.9"><g id="Layer_2" data-name="Layer 2"><g id="Layer_1-2" data-name="Layer 1"><path d="M173.2,34.9a14.2,14.2,0,0,0-1.9.2l-5.7.2,1.7-2.2c1-1.3,1.3-1.6,1.1-1.8s-.5,0-1,0l-.9.3c-.3.2-2,2.2-3.4,3.8l-4.4.2c-.6.1-1.2.2-1.2.4s.2.1.7.1h4.4a21.2,21.2,0,0,0-1.4,1.9A21.8,21.8,0,0,0,159,41a25.7,25.7,0,0,1-3.9,3.5,2.9,2.9,0,0,1-1.8.7.4.4,0,0,1-.4-.4v-.2c.1-1.3,3.2-3.8,3.5-5.2s-.5-2-2-2a5.1,5.1,0,0,0-2.4.7,18.9,18.9,0,0,0-2.7,2c-.3.3-.7.7-.8.6s.1-.3.2-.5l.7-.9c.9-1.2,1.2-1.4,1.1-1.6s-.5-.1-1.1,0l-1,.2-1.1,1.3a27.9,27.9,0,0,1-5.8,5,6.7,6.7,0,0,1-3.6,1.2c-.9,0-1.1-.6-1.1-1.4a3.5,3.5,0,0,1,.8-2.2h1.9c1.3-.2,4.9-1.1,5.1-3s-.6-1.2-1.1-1.3a9.3,9.3,0,0,0-4.7,1c-1.7.8-4.2,2.6-4.1,5s1.7,2.4,3,2.4a6.4,6.4,0,0,0,3.8-1.2,17.9,17.9,0,0,0,2.8-2c.3-.1.6-.5.7-.4s0,.3-.2.4-.9,1.1-1.3,1.7-.9,1.1-.8,1.3.7.1,1.2.1a1.9,1.9,0,0,0,1-.3,3.4,3.4,0,0,0,1.2-1.2l2.3-2.6a16.1,16.1,0,0,1,3.8-3.1,3.2,3.2,0,0,1,1.8-.6.5.5,0,0,1,.5.6c-.1,1.3-3.6,3.5-3.7,5.5s.7,1.7,1.8,1.8a4.8,4.8,0,0,0,2.8-1,21.1,21.1,0,0,0,2.3-1.9l.6-.5c.1.1,0,.2-.1.5a1.1,1.1,0,0,1-.1.5c-.1,1.8,1.2,2.6,3,2.5a7.6,7.6,0,0,0,3.3-1.1,7.2,7.2,0,0,0,2.5-2.7c.4-.9.2-1.4-.1-1.3a10.2,10.2,0,0,1-.3,1.1,6.9,6.9,0,0,1-2.5,2.6,6.2,6.2,0,0,1-2.6.9c-1.5,0-1.4-1-1.3-1.4s1.9-3.9,3.4-5.9l1.6-2.1h5.4a5.2,5.2,0,0,0,2.1-.4c.5-.2.8-.5.6-.6Zm-31.7,3.3a4.1,4.1,0,0,1,1.8-.5c.5,0,.6.4.4.9s-1.6,2.1-4.2,2.6l-1.7.2A12.6,12.6,0,0,1,141.5,38.2Zm-52.2,17c.2.2-.2.3-.9.8-3.1,2-4.3,4.5-6.9,9.3a18.9,18.9,0,0,1-10.7,9.3A24.9,24.9,0,0,1,62.3,76c-1.1,0-6-.3-6-3.7s3.2-3.9,5-3.9a3.7,3.7,0,0,1,2.5.7,1.2,1.2,0,0,1,.4.8c.1.4-.1.6-.3.6s0-.3-.1-.5a1.8,1.8,0,0,0-.5-.7,4.1,4.1,0,0,0-2.2-.4c-1.5,0-4.4.9-4.3,3.4s4,3.2,5.5,3.2a16,16,0,0,0,7.5-2.2,30.5,30.5,0,0,0,8.4-7.6c3.3-4.3,5.2-6.6,7.5-8.5l2.6-1.7c.4-.2.9-.4,1-.3Zm-6.4,9.3c0-.2.1-.8.3-.7s.1.3.1.6a1.1,1.1,0,0,0,.2.6,2.1,2.1,0,0,0,1.8.8c4.1,0,6.5-3.8,6.7-6.1.5-5.4-4.8-6.7-8.6-6.9-6.3-.3-13.6,1.6-18.5,5.4-1.7,1.2-3.5,3.2-3.5,5.7s1.5,3.5,4.3,3.5c7.1,0,12.9-6.8,13.5-11.9.4-3.3-1.7-5.2-5.1-5.4s-8.7,2-10.2,4.6a3.4,3.4,0,0,0-.4,1.2,1.5,1.5,0,0,0-.1.7c0,.3.1.5-.1.5s-.3-.1-.4-.5A1.3,1.3,0,0,1,63,56a3.3,3.3,0,0,1,.4-1.4c1.1-2.1,5.1-5.1,10.7-5s6.9,2.8,6.6,6.1-3.4,8.2-7.9,10.4a15.5,15.5,0,0,1-7,1.8c-1.5,0-5-.6-4.9-4s2.7-5.3,3.7-6.1a29.4,29.4,0,0,1,18.8-5.4c10.2.3,10.7,5.7,10.6,7.4-.2,4.1-5.1,7.1-9,6.5a2.7,2.7,0,0,1-2-1.1,2,2,0,0,1-.1-.7Zm8.4,3.6a14.2,14.2,0,0,0-5.4,4.6,18,18,0,0,1-1.9,2,2,2,0,0,1-1.1.3c-.3.1-1.2.1-1.3-.1s.2-.4.9-1.2l4.1-5.2a6.9,6.9,0,0,1,1-1.2l.9-.2h1.1c.1.2-.1.3-1.1,1.6l-.7.9c-.1.1-.3.4-.2.5s.6-.5.9-.7A19.1,19.1,0,0,1,92,66.7a4.6,4.6,0,0,1,2-.5c.8,0,1,.3,1,.6s-.3.7-1.4.8a5.9,5.9,0,0,0-2.3.5Zm20.2-1.9c-.6,0-.6.5-.6.9a3.3,3.3,0,0,1,0,1.4,8.5,8.5,0,0,1-3.7,5.2,4.7,4.7,0,0,1-2.6,1.1c-.8-.1-.6-1.2-.2-1.9a28.1,28.1,0,0,1,3.3-4.4,6.5,6.5,0,0,0,1.1-1.5c-.1-.2-.6-.2-1.2-.1l-1,.2a7.7,7.7,0,0,1-4.4,1.9h-.1c0-.2.1-.4.1-.6a1.5,1.5,0,0,0-1.6-1.7,9.6,9.6,0,0,0-4.8,1c-1.8.8-4.3,2.8-4.3,5.2s1.9,2.4,3.1,2.4A6.2,6.2,0,0,0,98,74a11.6,11.6,0,0,0,3.8-4.4h.4a6.8,6.8,0,0,0,2.3-.7c.4-.2.7-.5.8-.4s-.4.4-.6.7S102,71.6,102,73s1.6,2.1,2.4,2.1a6,6,0,0,0,3.4-1.1c2.6-1.6,4.8-4.6,4.8-6.5a1.2,1.2,0,0,0-1.1-1.3Zm-10.4,2.1a10.2,10.2,0,0,1-3.5,5.4A4.7,4.7,0,0,1,95,74.8c-.9,0-1.2-.7-1.2-1.4.1-2.3,2.6-4.8,4.8-5.9a3.7,3.7,0,0,1,1.8-.5c.4,0,.9.2.7,1.3Zm84.6-2.1a4.6,4.6,0,0,0-2,.5,19.1,19.1,0,0,0-3.5,2.7c-.2.2-.8.8-.9.7s.2-.4.2-.5l.7-.9c1-1.3,1.3-1.6,1.2-1.7s-.5-.2-1.1,0l-.9.2-.9,1-.7,1a44.1,44.1,0,0,1-5.1,4.6,2.6,2.6,0,0,1-1.5.7c-.3,0-.4-.3-.3-.8s2.2-4.1,2.9-5,1.3-1.6,1.2-1.8a2.2,2.2,0,0,0-1.2,0l-1,.2-1.4,1.6-1.3,1.5a45.9,45.9,0,0,1-3.9,3.7,3.5,3.5,0,0,1-1.7.6c-.4,0-.4-.3-.4-.8s2.6-4.3,3.1-5,1.2-1.6,1.1-1.8-.4-.1-1.1,0l-1,.2a10.6,10.6,0,0,1-1.5,1.6,28.3,28.3,0,0,1-5.5,4.8,6.4,6.4,0,0,1-3.4,1.3c-.8,0-1.1-.7-1.1-1.4a4.9,4.9,0,0,1,.8-2.3h1.9c1.3-.2,4.9-1,5.2-3s-.6-1.2-1.2-1.2a10.1,10.1,0,0,0-4.8,1,7.7,7.7,0,0,0-3.6,3.1,24.4,24.4,0,0,1-2.7,2.9,3,3,0,0,1-1.6.8c-.5,0-.5-.5-.5-1s1.8-4.2,3.4-6.4l1.6-2.3a37.8,37.8,0,0,0,7.5.4c4.2,0,10.4-1.1,14.5-3.4s4.4-4.5,4.5-5.4-.5-3.9-6.7-3.9c-4,0-8.5,2-10,4.3a5.4,5.4,0,0,0-.5,1.1c0,.6.2,1,.4.8s0-.2,0-.7a2.3,2.3,0,0,1,.6-1.2c2.1-2.6,6.3-3.5,9.5-3.5s5.7,1.2,5.7,3.5-3.2,4.3-3.7,4.6-5.5,3.2-13.9,3.2a43.9,43.9,0,0,1-7.2-.7l1.5-2.1c.9-1.2,1.2-1.6,1.1-1.7s-.7-.1-1.2,0l-.8.2L152,63.5c-3.6-.9-6.5-2-8.7-2.7a57.4,57.4,0,0,0-10.1-2.5,42.1,42.1,0,0,0-9.4-.5c-4.9.3-10.2,1.8-10.3,4.8a2.4,2.4,0,0,0,.9,1.8c.5.3,1,.5,1.1.1l-.7-.4a2,2,0,0,1-.7-1.5c0-2.8,5.6-4.1,9.6-4.3a41.8,41.8,0,0,1,9.3.8,68.7,68.7,0,0,1,9.8,2.9,58.2,58.2,0,0,0,8.4,2.5l-2,2.5-1.9,2.6a30.8,30.8,0,0,1-3.9,4.2,2.8,2.8,0,0,1-1.5.8c-.4,0-.4-.4-.4-.8s2.4-4.4,2.9-5.1,1.2-1.5,1-1.7h-1.1l-1.2.2a3.8,3.8,0,0,0-2.1-.5,11.7,11.7,0,0,0-4.9,1.1,10.9,10.9,0,0,0-3,2.3,22,22,0,0,1-4.1,3.3,5.4,5.4,0,0,1-3.2,1.3c-.9-.1-1.1-.6-1.1-1.3.1-2.2,2.6-4.7,4.8-5.8a3,3,0,0,1,1.5-.5c.5,0,.5.2.6.5a1.9,1.9,0,0,1,.1.8c0,.3.2.8.7.7a1,1,0,0,0,.7-1.2c0-.1-.1-.2-.1-.3a2.1,2.1,0,0,0-1.8-.8,8.7,8.7,0,0,0-4.5.9h-.2a8.9,8.9,0,0,1-3.8,1.2h-.4a4.3,4.3,0,0,0,.1-.5,1.5,1.5,0,0,0-1.6-1.7,8.9,8.9,0,0,0-4.8,1c-1.8.8-4.3,2.7-4.3,5.1s1.9,2.4,3.1,2.4a5.2,5.2,0,0,0,3.4-1.2,12,12,0,0,0,3.9-4.5h2c.1,0-.2.3-.5.5a4.5,4.5,0,0,0-1.2,2.9c-.1,1.9,1.6,2.5,2.9,2.5a6.3,6.3,0,0,0,3.5-1.1l2.6-1.9.6-.4c.1,0-.1.6-.1,1-.1,2,1.3,2.5,2.6,2.4a4.3,4.3,0,0,0,2.4-1l2.2-1.9c.4-.3.9-.9,1-.8s-.1.4-.3.8a2.7,2.7,0,0,0-.3,1.2c-.1,1.1.7,1.6,1.7,1.6a3.8,3.8,0,0,0,2.6-1.1,11.4,11.4,0,0,0,1.9-1.9l.5-.4c.1,0,0,.2,0,.5a1.9,1.9,0,0,0-.2.7,1.9,1.9,0,0,0,1.7,2.2h.3a3.6,3.6,0,0,0,2.6-1.1,8.6,8.6,0,0,0,1.4-1.3c.2-.2.5-.7.6-.6s0,.3,0,.7c0,2,1.6,2.4,2.9,2.4a6.6,6.6,0,0,0,3.6-1.1,35.5,35.5,0,0,0,3.1-2.3l.5-.4c.1.1-.1.4-.3.9a2.7,2.7,0,0,0-.3,1.2,1.6,1.6,0,0,0,1.5,1.6h.2a4.7,4.7,0,0,0,2.7-1l2.2-1.9c.2-.2.5-.6.6-.5s-.3.6-.4,1.4a1.5,1.5,0,0,0,1.6,2,4.6,4.6,0,0,0,2.5-1l1.8-1.5c.4-.4.7-.7.8-.6s-.2.3-.5.7l-.8,1c-.8.8-.9,1.1-.9,1.2s.9.2,1.2.1a2,2,0,0,0,1.1-.3,19,19,0,0,0,1.9-2.1,14.7,14.7,0,0,1,5.4-4.5,6.9,6.9,0,0,1,2.4-.5c1-.1,1.3-.5,1.3-.8s-.2-.6-1-.6Zm-26.4,1.4a3.4,3.4,0,0,1,1.7-.5c.6,0,.6.5.4.9s-1.7,2.1-4.1,2.6l-1.7.2a9.5,9.5,0,0,1,3.7-3.2Zm-38,.7a10.2,10.2,0,0,1-3.5,5.4,4.7,4.7,0,0,1-2.6,1.1c-.9,0-1.2-.7-1.2-1.4.1-2.3,2.6-4.8,4.8-5.9a3.5,3.5,0,0,1,1.8-.5c.4,0,.9.2.7,1.3Zm15.9,5.2a4.1,4.1,0,0,1-2.4,1.2c-.6-.1-.7-.6-.7-1.3.2-2.2,2.8-4.7,5-5.7a4.6,4.6,0,0,1,2.3-.6,2.3,2.3,0,0,1,1.4.4,35.3,35.3,0,0,1-5.6,6ZM155.6,48c-.1,0-.2.4-.9,1a8.1,8.1,0,0,1-4.9,1.9c-2.2.2-4.6.1-10.3-1.3a77.1,77.1,0,0,0-10.7-1.8,98.3,98.3,0,0,0,5.9-8.5c1-1.2,1.3-1.5,1.1-1.7s-.5-.1-1.1,0l-1.1.2a6.7,6.7,0,0,0-2.4-.4,10.5,10.5,0,0,0-4.9,1,9.2,9.2,0,0,0-3.1,2.4,12,12,0,0,1-4.8,1.7,115.9,115.9,0,0,1,7.8-13.1,24.6,24.6,0,0,1,5.9-5.7c.6-.4,1.2-.7,1.1-1.2s-1-.4-1.5-.4a18.5,18.5,0,0,0-4.2,1.1,37.6,37.6,0,0,0-11.6,7.2c-1.2-3.2-3.9-5.8-7.3-5.7s-6,4.1-6,6.6a10.2,10.2,0,0,0,3.4,7.5c-3.5,2.9-9.1,6.3-15.4,6.6S81.4,42,81.4,40c0-5.2,6.1-8.9,12.3-9s7,1.9,7.1,4.2-2.9,6.6-8.7,6.7a3.8,3.8,0,0,1-1.7-.4.9.9,0,0,1-.6-.6c-.1-.2-.1-.5-.3-.5a.6.6,0,0,0-.1.6,1,1,0,0,0,.6.8,3.3,3.3,0,0,0,2.1.5c5.4,0,9.3-3.6,9.3-7.2s-2.8-5.4-7.7-5.4-13.3,4-13,10.3,6,6.3,9.7,6.4a25.4,25.4,0,0,0,17.2-6.3,16.4,16.4,0,0,0,6.8,2.8l-.7,1.2a6.2,6.2,0,0,0-1,1.6c.1.2.7.2,1.7.1a5.9,5.9,0,0,0,2.3-.5,5.3,5.3,0,0,0,1.1-1.5l.4-.8a9.5,9.5,0,0,0,2.9-.7l1.3-.5c.1.1-.1.4-.2.6a4.4,4.4,0,0,0-.2,1c0,2,1.5,2.5,2.8,2.4a4.6,4.6,0,0,0,2.5-1l2.3-1.9a2.7,2.7,0,0,1,.8-.7c.3,0-.2.6-.6,1.2s-1.6,2.3-3.2,4.2h-1.9a18.8,18.8,0,0,0-6.2,1.1c-1.8.6-4.2,1.9-4.6,3.8s.9,2.3,2.8,2.3a13.2,13.2,0,0,0,7.3-2.6,22.7,22.7,0,0,0,4.3-3.9c3.2.4,7.1,1.7,10.7,2.4a27.4,27.4,0,0,0,11.4.6,10.5,10.5,0,0,0,4.7-2.1c.6-.6.9-1.3.5-1.3Zm-49-9.7a10,10,0,0,1-2.4-7.2c0-3,1.9-5.5,4.6-5.7s5.5,2.2,6.6,5.3L108,37.2l-1.4,1.1Zm1.5,1.3,1.2-1.1c2.3-2.3,4.8-5.2,6.5-6.8a16.6,16.6,0,0,1,.3,3.2,23.8,23.8,0,0,1-1.5,7.5,15.2,15.2,0,0,1-6.5-2.8Zm8,1.2c-.4.5-.4.6-.5.5s.1-.3.2-.8a26.1,26.1,0,0,0,.8-5.5,15,15,0,0,0-.4-3.7,32.3,32.3,0,0,1,11.4-7.7,18.9,18.9,0,0,1,4.1-1c.3-.1.9-.1.9.1s-.4.4-1,.7-5.2,3.4-9.2,8.3a105.9,105.9,0,0,0-6.3,9.1Zm11.5,3.3c-1.3,1-2.1,1.3-2.6,1.2s-.8-.6-.7-1.3,2.8-4.7,5-5.7a3.9,3.9,0,0,1,2.4-.5,4,4,0,0,1,1.5.3,29.1,29.1,0,0,1-5.6,6Zm-4.2,7c-1.2,1-4.2,3.3-6.7,3.4s-2.7-.4-2.3-2.1,1.6-2.2,3.7-3a18.4,18.4,0,0,1,6.6-1.2h1.5a38.3,38.3,0,0,1-2.8,2.9Z"/><rect width="243" height="103.87" style="fill:none"/></g></g></svg>