<svg xmlns="http://www.w3.org/2000/svg" viewBox="0 0 243 103.9"><g id="Layer_2" data-name="Layer 2"><g id="Layer_1-2" data-name="Layer 1"><rect width="243" height="103.87" style="fill:none"/><path d="M104.2,75.2v5.1h3.2v-.8h-2.2V75.2Zm9.6,2.6c0-1.2-.5-1.8-1.4-1.8s-1.3.7-1.3,1.8.5,1.8,1.3,1.8,1.4-.7,1.4-1.8m-3.6,0c0-1.6.9-2.7,2.3-2.7s2.2,1.1,2.2,2.7-.9,2.7-2.2,2.7-2.3-1.1-2.3-2.7m10.7-2.6v3.6h0L119,75.2h-1v5.1h.9V76.8l2,3.5h1V75.2Zm6.2,4.3c.9,0,1.4-.5,1.4-1.7s-.5-1.7-1.4-1.7h-.7v3.4Zm-1.7-4.3h1.7a2.6,2.6,0,0,1,0,5.2h-1.7V75.2ZM136,77.8c0-1.2-.5-1.8-1.3-1.8s-1.3.7-1.3,1.8.5,1.8,1.3,1.8,1.3-.7,1.3-1.8m-3.6,0c0-1.6.9-2.7,2.3-2.7s2.2,1.1,2.2,2.7-.9,2.7-2.2,2.7-2.3-1.1-2.3-2.7m10.7-2.6v3.6l-1.9-3.6h-1v5.1h.9V76.8h.1l1.9,3.5h1V75.2Z"/><path d="M64.8,64.2h.4c2.3,0,3.4-1.3,3.4-3.8V39.9c0-2.5-1.2-3.8-3.4-3.8h-.4v-.9H76.1L83,53.6l6.9-18.4h10.7v.9h-.5c-2.2,0-3.3,1.3-3.3,3.8V60.4c0,2.5,1.1,3.7,3.3,3.7h.5v1H86.2v-1h.4c2.3,0,3.3-1.2,3.3-3.7V40.2L80.5,65.1h-.7L70.3,39.4v21c0,2.5,1.1,3.7,3.3,3.7H74v1H64.8Z"/><path d="M109.8,35.6a2,2,0,0,1,1.9-1.5,1.8,1.8,0,0,1,1.9,1.7,2.2,2.2,0,0,1-.8,1.7l-4.2,4.7h-1.7l2.9-6.6Zm3.6,15.9c0-3-1.2-6-3.4-6s-3.3,2.2-3.6,6ZM109.8,44c5.1,0,9,3.4,9,9H106.4c0,5.3,1.9,9.5,6,9.5,2.6,0,4.4-2.1,5.4-4.7l.6.2c-.8,4.8-4,7.7-8.5,7.7A10,10,0,0,1,99.5,55.5c.1-7.4,5.4-11.5,10.3-11.5m8.8.6c3.5,0,6.6-1.6,8-6.2h1.1v6.2h3.9v1h-3.9V60.2c0,1.6.7,2.4,1.9,2.4a2.8,2.8,0,0,0,2.4-1.4l.4.2c-.8,2.4-2.6,4.3-5.3,4.3s-5.9-2.5-5.9-6.2.3-5.6.3-9.6V45.6h-2.9v-1Zm21.2-9.7a3.5,3.5,0,1,1-3.5,3.5,3.4,3.4,0,0,1,3.5-3.5m-6.1,29.3h.4c1.9,0,2.6-.8,2.6-3.2V48.5c0-2.4-1.1-3-2.6-3h-.4v-.9l9.2-.6V61c0,2.4.7,3.2,2.5,3.2h.5v.9H133.7Zm25.9-12.7c0-3-1.1-6-3.4-6s-3.3,2.2-3.6,6ZM156,44c5.1,0,9,3.4,9,9H152.6c0,5.3,1.9,9.5,6.1,9.5,2.5,0,4.3-2.1,5.3-4.7l.6.2c-.8,4.8-4,7.7-8.4,7.7a10,10,0,0,1-10.4-10.2c0-7.4,5.4-11.5,10.2-11.5m9,20.2h.5c1.8,0,2.5-.8,2.5-3.2V48.7c0-2.4-.7-3.2-2.5-3.2H165v-.9l9.2-.6v3a6.2,6.2,0,0,1,5.3-3c2.2,0,3.9,1.3,3.9,3.3a3.1,3.1,0,0,1-3.1,3.4c-3,0-2.5-3.7-4.3-3.7s-1.8.9-1.8,4.1V61c0,2.4.7,3.2,2.5,3.2h.5v.9H165v-.9Z"/></g></g></svg>