<svg xmlns="http://www.w3.org/2000/svg" width="243" height="103.9" viewBox="0 0 243 103.9"><defs><style>.cls-1{fill:none;}</style></defs><g id="Layer_2" data-name="Layer 2"><g id="Layer_1-2" data-name="Layer 1"><rect class="cls-1" width="243" height="103.85"/><path d="M80.9,61.3H76.8V44.7c0-.1,0-.2.1-.2a16,16,0,0,1,3.8,0c.1.4,0,.9.1,1.3a5.3,5.3,0,0,1,8.3.2l.5-.4a5.4,5.4,0,0,1,3.9-1.7,7.9,7.9,0,0,1,4,1,5.2,5.2,0,0,1,2.6,3.9c.1,1.1.1,2.2.1,3.3v8.4a1.7,1.7,0,0,1-.1.7,22.8,22.8,0,0,1-3.8.1,2.2,2.2,0,0,1-.1-.8V50.9a3.1,3.1,0,0,0-.1-1A2.1,2.1,0,0,0,94.3,48a3.5,3.5,0,0,0-2.8.4,2.6,2.6,0,0,0-.9,1.7V60.4c0,.3.1.6,0,.8a22.4,22.4,0,0,1-3.8.1c-.2-.3-.1-.5-.1-.8V50.7a2.8,2.8,0,0,0-.4-1.5A2.9,2.9,0,0,0,84.8,48a3.7,3.7,0,0,0-2.9.4,2.6,2.6,0,0,0-.9,1.7V60.4C81,60.7,81.1,61,80.9,61.3Z"/><path d="M70.9,49.2l1.3.7a5.2,5.2,0,0,1,2.3,3.3,7.3,7.3,0,0,1-.3,4.6,6.4,6.4,0,0,1-2.3,2.6,9,9,0,0,1-3.6,1.2,11.8,11.8,0,0,1-5.3-.3,6.5,6.5,0,0,1-4.2-3.2,5.1,5.1,0,0,1-.7-2.4,6.3,6.3,0,0,1,1.1-4.6,6.5,6.5,0,0,1,2.2-1.8l.4-.2A5.3,5.3,0,0,1,60.3,48,4.9,4.9,0,0,1,59,44.9a5.3,5.3,0,0,1,1.4-4,5.9,5.9,0,0,1,2.4-1.7,8.7,8.7,0,0,1,3.2-.6,11.4,11.4,0,0,1,3.7.5,6.1,6.1,0,0,1,3.9,4.5,5.5,5.5,0,0,1-.8,4,4.7,4.7,0,0,1-1.5,1.3C71.2,49,71,49,70.9,49.2Zm-.6,5.3a3.2,3.2,0,0,0-2.4-3.3,4.9,4.9,0,0,0-2.4-.2,3.6,3.6,0,0,0-3,2.2,3.1,3.1,0,0,0,1.9,4.2,5.6,5.6,0,0,0,3.4.2A3,3,0,0,0,70.3,54.5ZM66.4,42.3a2.9,2.9,0,0,0-1.6.2,2.5,2.5,0,0,0-.8,4.2,3.6,3.6,0,0,0,4.5.1,2.4,2.4,0,0,0-.3-4.1A2.7,2.7,0,0,0,66.4,42.3Z"/><path d="M199.2,54.1h-11a.7.7,0,0,0-.2.6c.4,2.2,1.4,3.2,3.5,3.3a3.9,3.9,0,0,0,3.5-1.7c.2-.3.5-.5.6-.9a15.9,15.9,0,0,1,3,2.5,1.2,1.2,0,0,1-.4.8,11,11,0,0,1-2.3,2,6.7,6.7,0,0,1-3.4,1h-.9a7,7,0,0,1-2.9-.4,8.2,8.2,0,0,1-3.2-2.3,9.5,9.5,0,0,1-1.7-4.3,8.9,8.9,0,0,1-.1-2.8,8.4,8.4,0,0,1,2.4-5.8,7.9,7.9,0,0,1,8.8-1.3,5.9,5.9,0,0,1,2.6,2.1,8.9,8.9,0,0,1,1.7,5.4ZM195,50.8a3.4,3.4,0,0,0-3.9-3.1c-1.7.1-3.2,1.7-3,3.1Z"/><path d="M153.2,52.8a9.3,9.3,0,0,1,.8-4.4,7.1,7.1,0,0,1,5.5-4.3,7.7,7.7,0,0,1,7.2,2.1,8.1,8.1,0,0,1,2,3.9,13,13,0,0,1,.1,5.2,10.2,10.2,0,0,1-1.4,3.4,7.2,7.2,0,0,1-4.8,2.9,8.6,8.6,0,0,1-3.9-.2,6.9,6.9,0,0,1-4.2-3.1A9.6,9.6,0,0,1,153.2,52.8Zm11.6.1a6.5,6.5,0,0,0-.8-3.5,3.4,3.4,0,0,0-3.8-1.5,3.4,3.4,0,0,0-2.5,2.3,7.8,7.8,0,0,0-.1,5,3.5,3.5,0,0,0,2.4,2.6,3.4,3.4,0,0,0,4.2-2A7.2,7.2,0,0,0,164.8,52.9Z"/><path d="M109,44a7.2,7.2,0,0,1,4.8,1.4,8,8,0,0,1,3,4.6,12.2,12.2,0,0,1,.3,3.8,9.8,9.8,0,0,1-1.3,4.4,8.1,8.1,0,0,1-2.6,2.6,9,9,0,0,1-5.1.9A7,7,0,0,1,102,57a8.2,8.2,0,0,1-.7-3.1c0-.4-.2-.7-.1-1.1a11.6,11.6,0,0,1,1.1-4.8,7.4,7.4,0,0,1,4.2-3.6A5.9,5.9,0,0,1,109,44Zm-3.6,8.9a7.5,7.5,0,0,0,.4,2.6,3.5,3.5,0,0,0,2.7,2.4,4,4,0,0,0,2.6-.5,4.8,4.8,0,0,0,1.4-2,7.7,7.7,0,0,0-.1-5.2,3.1,3.1,0,0,0-1.9-2.1,3.3,3.3,0,0,0-4.5,1.8A6,6,0,0,0,105.4,52.9Z"/><path d="M122.1,61.3h-4c-.2-.6-.2-16-.1-16.8a24.2,24.2,0,0,1,4-.1c.2.5-.1,1,.1,1.5a5.6,5.6,0,0,1,2-1.4,8.6,8.6,0,0,1,2.3-.6,7.8,7.8,0,0,1,2.6.4,4.7,4.7,0,0,1,2.7,2.3,7.4,7.4,0,0,1,.8,2.9c.3,3.8,0,7.7.1,11.5v.2a27.2,27.2,0,0,1-4.2.1c-.2-.3-.1-.5-.1-.8-.1-3.2-.1-6.5,0-9.7a3.3,3.3,0,0,0-.4-1.7,2.4,2.4,0,0,0-2-1.2h-1.5a2.9,2.9,0,0,0-2.1,2.4,16.9,16.9,0,0,0-.1,2.3v7.7A3.1,3.1,0,0,1,122.1,61.3Z"/><path d="M172.7,54.7a4.1,4.1,0,0,1,.3.8,3.3,3.3,0,0,0,3.4,2.7,5.3,5.3,0,0,0,2.5-.5,1.3,1.3,0,0,0,.8-1.2c.1-.6-.2-.9-.7-1.2a8.1,8.1,0,0,0-2.2-.7,20.5,20.5,0,0,1-4.9-1.8,4,4,0,0,1-2.1-2.3,3.9,3.9,0,0,1,0-2.6,4.4,4.4,0,0,1,2.3-2.9,5.8,5.8,0,0,1,3.6-1,8.4,8.4,0,0,1,3.9.6,6.1,6.1,0,0,1,2.8,2.7,4.6,4.6,0,0,1,.7,1.6,25.5,25.5,0,0,1-3.3,1.1.7.7,0,0,1-.4-.3,3.2,3.2,0,0,0-3.2-2.2h-1.5q-1.2.4-1.2,1.2a1.2,1.2,0,0,0,.5,1.1l1.1.4,4.7,1.5a4.8,4.8,0,0,1,2.7,1.7,2.9,2.9,0,0,1,1,2.3,5,5,0,0,1-.2,2.1,4.6,4.6,0,0,1-2.3,2.8,6.3,6.3,0,0,1-3.7,1h-1.2a6.9,6.9,0,0,1-4.1-1.1,6.6,6.6,0,0,1-2.6-3.1l-.3-1.2a.6.6,0,0,1,0-.7Z"/><path d="M133.1,44.4h2.6v-4a18.7,18.7,0,0,1,4.1,0v4h4.1A13.3,13.3,0,0,1,144,48c-.4.2-.9,0-1.4.1H140a.7.7,0,0,0-.2.6v6.8c.2,1.2.5,1.6,1.8,1.7h1.8a25.1,25.1,0,0,1,0,3.9h-2.9a7,7,0,0,1-2.9-.8,4.3,4.3,0,0,1-1.4-1.6,4.7,4.7,0,0,1-.4-1.6,14.9,14.9,0,0,1-.2-2.1V48.9a2.5,2.5,0,0,0-.1-.8h-2.3A14,14,0,0,1,133.1,44.4Z"/><path d="M56,61.3H51.8v-.2h0V44l-4.7,2.9V42.2a13.7,13.7,0,0,1,2-1.3l2.7-1.6c.2-.2.3-.3.5-.3H56c0,.1.1.2.1.3V61C56.1,61.1,56,61.2,56,61.3Z"/><path d="M154.2,44.4l-.6,4c-.4.2-.8-.1-1.1-.1a2.5,2.5,0,0,0-2.9,2,6.8,6.8,0,0,0-.2,1.4v8.8a2.5,2.5,0,0,1-.1.8h-4.1c-.2-.6-.2-16.2-.1-16.9h4c.1.5,0,1.1.1,1.6A4.1,4.1,0,0,1,154.2,44.4Z"/></g></g></svg>