<svg xmlns="http://www.w3.org/2000/svg" viewBox="0 0 242.99 103.87"><defs><style>.cls-1{fill:none;}</style></defs><g id="Layer_2" data-name="Layer 2"><g id="Layer_1-2" data-name="Layer 1"><path id="Path_78" data-name="Path 78" d="M83.76,66.83H82.32v7.66h4.11V73.18H83.76ZM97,66.7a4,4,0,0,0-4,4,3.74,3.74,0,0,0,1.18,2.8A4.1,4.1,0,0,0,97,74.71a3.84,3.84,0,0,0,2.84-1.18,3.79,3.79,0,0,0,1.18-2.8,3.88,3.88,0,0,0-1.18-2.85A3.8,3.8,0,0,0,97,66.71Zm1.79,5.82a2.54,2.54,0,0,1-3.59,0h0a2.57,2.57,0,0,1-.74-1.83,2.76,2.76,0,0,1,.74-1.89,2.57,2.57,0,0,1,1.8-.74,2.46,2.46,0,0,1,1.79.74,2.61,2.61,0,0,1,.74,1.89,2.57,2.57,0,0,1-.74,1.83Zm15.32-.78c-.22-.22-.39-.44-.57-.62l-4.64-4.5-.22-.22v8.09h1.36v-4.9a6,6,0,0,0,.48.53l4.73,4.59.22.22v-8.1h-1.36v4.91Zm14.44-4.16a5.22,5.22,0,0,0-3.37-.7h-1.75V74.5h2.06a4.55,4.55,0,0,0,3.06-.7,4.24,4.24,0,0,0,.23-6,2.5,2.5,0,0,0-.23-.23Zm-1,5.08a2.62,2.62,0,0,1-1.88.44h-.88V68.19h.75a3.09,3.09,0,0,1,2,.44,2.55,2.55,0,0,1,.79,2,2.48,2.48,0,0,1-.79,2Zm13.65-6a4,4,0,0,0-2.84,1.14,3.81,3.81,0,0,0-1.18,2.85,3.76,3.76,0,0,0,1.18,2.8,4.1,4.1,0,0,0,2.84,1.18,4,4,0,0,0,2.85-1.18,4,4,0,0,0,0-5.69,4,4,0,0,0-2.84-1.09Zm1.8,5.82a2.54,2.54,0,0,1-3.59,0h0a2.57,2.57,0,0,1-.74-1.83,2.76,2.76,0,0,1,.74-1.89,2.56,2.56,0,0,1,1.79-.74,2.47,2.47,0,0,1,1.8.74,2.61,2.61,0,0,1,.74,1.89,2.57,2.57,0,0,1-.74,1.83Zm15.32-.78c-.22-.22-.4-.44-.57-.62l-4.64-4.5L153,66.4v8.09h1.36v-4.9a6,6,0,0,0,.48.53l4.73,4.59.22.22v-8.1h-1.36ZM34,36.59h3.28V51.82h2.28V36.59h3.19V33.92H34ZM55,51.82h7.13V49H57.28V43.55h4.86v-2.8H57.28V36.59h4.86V33.92H55Zm28.66-1.7c1.45-1.58,2.19-4.12,2.19-7.27s-.74-5.69-2.19-7.26S80.3,33.88,78,33.88H75.18V51.82h3.37c2.15,0,3.73-.09,5.13-1.7ZM79,49H77.46V36.72h1.32c1.48,0,2.54.09,3.41,1.1a7.7,7.7,0,0,1,1.36,5,7.64,7.64,0,0,1-1.36,5A3.57,3.57,0,0,1,79,49Zm42.19-6.7c1-.61,1.54-1.88,1.54-3.63a5.44,5.44,0,0,0-1.23-3.81c-.79-.87-1.84-.92-3.15-.92H115.1V51.87h3.24c1.79,0,3-.09,3.85-1.4a6.77,6.77,0,0,0,1-3.77c0-2.27-.74-3.89-2-4.42Zm-3.85-5.73H118c1.7,0,2.49.35,2.49,2.49,0,1.71-.66,2.32-2.49,2.32h-.62Zm2.85,12.12a3.18,3.18,0,0,1-2.28.53h-.57V43.81h1.18a2.34,2.34,0,0,1,1.54.4,2.84,2.84,0,0,1,.87,2.32,3,3,0,0,1-.74,2.14Zm20.39-15.36-.13-.39-.13.39-5.95,18.34-.05.17h2.37l0-.08,1.4-4.47h4.68l1.36,4.47,0,.08h2.41l0-.17ZM139,44.65s1.44-4.73,1.53-5.21c.13.52,1.53,5.21,1.53,5.21Zm23.72-2.76,4.81-7.79.14-.22h-2.76l-.05.08-4.15,6.92v-7h-2.23V51.87h2.23V43.2l4.6,8.58,0,.09h2.89l-.09-.18Zm17.42,9.93h7.13V49h-4.9V43.55h4.86v-2.8h-4.86V36.59h4.86V33.92h-7.14v17.9Zm28.84-.17-4.16-7.88c1.84-.39,2.76-2.06,2.76-4.86a6.11,6.11,0,0,0-1.22-4,3.82,3.82,0,0,0-3.16-1h-2.93V51.82h2.15V43.94h0l4.07,7.84,0,.09H209Zm-6.21-10.2h-.22V36.64h.22c1.7,0,2.49.39,2.49,2.49s-.75,2.32-2.5,2.32Z"/><rect class="cls-1" width="242.99" height="103.87"/></g></g></svg>