<svg xmlns="http://www.w3.org/2000/svg" viewBox="0 0 242.99 103.87"><defs><style>.cls-1{fill:none;}</style></defs><g id="Layer_2" data-name="Layer 2"><g id="Layer_1-2" data-name="Layer 1"><rect class="cls-1" width="242.99" height="103.87"/><polygon points="88.25 60.2 88.31 43.77 94.58 43.77 94.6 48.79 103.07 48.89 108.33 43.81 116.71 43.85 108.42 51.56 117.49 60.25 109.08 60.25 103.07 54.22 94.6 54.22 94.56 60.23 88.25 60.2"/><rect x="116" y="48.93" width="16.37" height="6.25" transform="translate(71.92 176.15) rotate(-89.9)"/><polygon points="131.85 54.62 132.73 48.79 143.18 48.81 142.37 54.62 131.85 54.62"/><path d="M166.11,60.25h6.23l-.48-10.69a11.67,11.67,0,0,0-.2-1.45c-1.25-6.09-7.16-4.36-7.16-4.36l-10.73,2h-6.32V60.27h6.24V51.33l8.79-1.67S165.1,49,165.4,51Z"/><rect x="171.61" y="49.03" width="16.37" height="6.21" transform="translate(127.35 231.84) rotate(-89.9)"/><path d="M75.48,48.23A2.24,2.24,0,0,1,78,50.12c0,.11,0,.23,0,.34v3.38c-.08.6-.52,1.93-3.28,1.93H69.07c-2.58-.08-3-1.68-3-2.43V50.56c.11-.68.45-2.23,3.09-2.23Zm1-4.74c-2.4,0-6.21,0-10.16.13-5.24.13-5.91,3.58-6.13,5-.15,1,0,6.19,0,6.19.1,1.68.9,5.26,6,5.41,2.07,0,4,.1,5.78.12h5.67c4.53.08,6-2.83,6.33-4.28a10.53,10.53,0,0,0,.18-2.38V49a5.75,5.75,0,0,0-4.67-5.23,14.64,14.64,0,0,0-3-.24l-.08.27"/></g></g></svg>