<svg xmlns="http://www.w3.org/2000/svg" viewBox="0 0 242.99 103.87"><defs><style>.cls-1{fill:none;}</style></defs><g id="Layer_2" data-name="Layer 2"><g id="Layer_1-2" data-name="Layer 1"><rect class="cls-1" width="242.99" height="103.87"/><path id="Path_68" data-name="Path 68" d="M68.06,33.35c-.46,0-.65.23-.8.63q-2.69,7.55-5.39,15.08Q60,54.34,58.13,59.63a2.81,2.81,0,0,1-.47.91c-.18-.46-.34-.82-.47-1.19Q54.3,51,51.42,42.53q-1.44-4.2-2.87-8.42c-.25-.75-.26-.75-1.08-.75H41.06a1.15,1.15,0,0,0-.73.12l1.86,1.12a3.36,3.36,0,0,1,1.87,3.28c-.09,1.7-.1,3.41-.13,5.11-.06,3.87-.2,7.74-.19,11.61,0,3.12-.24,6.24-.19,9.36a4.18,4.18,0,0,1-1.64,3.26,11.12,11.12,0,0,0-2,1.83h9.24a9.42,9.42,0,0,0-1.51-1.45,4.77,4.77,0,0,1-2-4c.06-3.6.19-7.2.18-10.8,0-4.11.28-8.22.19-12.33,0-.08-.05-.21.13-.26q5.16,14.1,10.33,28.19a.85.85,0,0,0,.17.25.11.11,0,0,0,.07,0l.14,0q5.06-14,10.12-28l.19,0a30.44,30.44,0,0,0,.14,3.17c0,5.63,0,11.27,0,16.9,0,1.55.17,3.09.14,4.64a2.58,2.58,0,0,1-1.08,2.12,7.65,7.65,0,0,1-1.35.85c-.37.19-.72.42-1.17.69A101.05,101.05,0,0,0,74.71,69c-.66-.38-1.29-.71-1.89-1.09a2.86,2.86,0,0,1-1.52-2.47c0-3.79,0-7.58-.12-11.37-.14-4.27,0-8.54-.05-12.82,0-1.17-.22-2.33-.15-3.51A3.21,3.21,0,0,1,72.45,35a16.67,16.67,0,0,1,1.74-1,1.87,1.87,0,0,0,.77-.53c-.09,0-.14-.09-.18-.09C72.55,33.36,70.3,33.37,68.06,33.35Z"/><path id="Path_69" data-name="Path 69" d="M125.44,51.37a6.39,6.39,0,0,0-7.81.41,2.33,2.33,0,0,1-.87.58,2.23,2.23,0,0,1-.09-1V29.13c0-.22,0-.43,0-.64,0-.56-.07-.6-.63-.47-1.43.32-2.86.65-4.29,1a3.63,3.63,0,0,0-1.47.44c.57.43,1,.81,1.55,1.15a3.32,3.32,0,0,1,1.48,3c0,11.16,0,22.32,0,33.48a1.4,1.4,0,0,0,1,1.5,13.77,13.77,0,0,0,5.29,1.1,7.69,7.69,0,0,0,6.25-3,12,12,0,0,0,2.29-11.42A6.91,6.91,0,0,0,125.44,51.37Zm-1.11,12.78a7,7,0,0,1-2,3.3,3.94,3.94,0,0,1-5.07,0,1.57,1.57,0,0,1-.59-1.32c0-1.87,0-3.74,0-5.61s0-3.74,0-5.6a1.16,1.16,0,0,1,.63-1.18,8.87,8.87,0,0,1,2.2-.93,3.6,3.6,0,0,1,3.92,1.5,8,8,0,0,1,1.37,4,15.28,15.28,0,0,1-.45,5.79Z"/><path id="Path_70" data-name="Path 70" d="M107.1,68a3.31,3.31,0,0,1-1.51-3.06q0-17.9,0-35.81v-.64c0-.63,0-.67-.65-.53-1.67.36-3.33.75-5,1.12l-.38.11c-.36.09-.38.27-.13.49a4.49,4.49,0,0,0,.73.5,4.13,4.13,0,0,1,2.07,3.94c0,10.2,0,20.41,0,30.61v.72a2.51,2.51,0,0,1-.75,1.79,13,13,0,0,1-1.65,1.4c-.14.09-.36.16-.25.42h8.73A3.69,3.69,0,0,0,107.1,68Z"/><path id="Path_71" data-name="Path 71" d="M93.9,64.33c0-1.28,0-2.56,0-3.85V51.11c0-.8,0-.83-.82-.65l-4.52,1.1c-.22,0-.48,0-.61.3.21.42.64.57,1,.82a3.38,3.38,0,0,1,1.63,3.08c-.1,1.92,0,3.85,0,5.77V65.3a1,1,0,0,1-.43,1,7.25,7.25,0,0,1-2.9,1.12c-1.93.26-3.46-.67-3.42-2.91.07-4.3,0-8.6,0-12.9,0-.24,0-.48,0-.73,0-.41-.22-.55-.63-.45-1,.24-1.93.45-2.89.68l-2.69.68a6.59,6.59,0,0,0,1.15,1,3.53,3.53,0,0,1,1.67,2.6c0,.29,0,.59,0,.88,0,3.07,0,6.14,0,9.21A3.93,3.93,0,0,0,82.65,69a5.42,5.42,0,0,0,3.59.37,8.82,8.82,0,0,0,3.56-1.59c.2-.14.36-.39.73-.36,0,.51,0,1,0,1.46s.11.59.65.45l4.57-1.2a2.64,2.64,0,0,0,1-.41L95.38,67A2.67,2.67,0,0,1,93.9,64.33Z"/><path id="Path_72" data-name="Path 72" d="M202.51,50.91c-2.27.05-4.54-.1-6.8.08,0,0,0,0,0,.06s.08,0-.07.11l1.11.68a1.69,1.69,0,0,1,.83,2.53c-.84,2-1.71,4-2.58,6-.35.83-.73,1.65-1.16,2.61-.16-.28-.24-.38-.29-.5-1.14-2.76-2.25-5.54-3.45-8.28a1.8,1.8,0,0,1,.66-2.46l0,0c.24-.17.55-.32.57-.69a55.31,55.31,0,0,0-7.83.08c.13.34.47.41.75.55a4,4,0,0,1,2,2.17c1.79,4.41,3.56,8.82,5.35,13.22a1.15,1.15,0,0,1,0,1c-.64,1.49-1.24,3-1.88,4.5a9.84,9.84,0,0,1-1,1.84A3.67,3.67,0,0,1,185.5,76a7,7,0,0,1-4.44-1.81c-.11-.09-.19-.27-.39-.16,0,0,0,.11,0,.15.39,1.41.78,2.83,1.18,4.24a.89.89,0,0,0,.61.58,5.77,5.77,0,0,0,2.37.28,5,5,0,0,0,3.33-1.35,8.71,8.71,0,0,0,2.13-2.87c.68-1.43,1.25-2.89,1.87-4.34,2.35-5.56,4.77-11.08,7.21-16.6a3.92,3.92,0,0,1,1.35-1.64,22.11,22.11,0,0,1,2-1.07c.17-.09.43-.12.41-.39A.72.72,0,0,0,202.51,50.91Z"/><path id="Path_73" data-name="Path 73" d="M149.05,63.41a.79.79,0,0,0-.68.34,10.15,10.15,0,0,1-1.1,1.17,6.58,6.58,0,0,1-5.7,1.85,4.6,4.6,0,0,1-3-1.75A8.52,8.52,0,0,1,137,60c0-.68.05-.76.71-1L146,56.56c1.33-.39,1.13-.12,1.08-1.64a2.56,2.56,0,0,0-.11-.46,5.43,5.43,0,0,0-5.6-4.2,5.88,5.88,0,0,0-1.82.19,8.07,8.07,0,0,0-4.78,4.13A12,12,0,0,0,133.45,62a9.81,9.81,0,0,0,1.78,4.74,6.87,6.87,0,0,0,7.33,2.79c3.24-.65,5.22-2.93,6.76-5.67C149.51,63.54,149.36,63.43,149.05,63.41Zm-11.91-6.14a11.26,11.26,0,0,1,.68-2.79,4.89,4.89,0,0,1,1.64-2.22,2.32,2.32,0,0,1,3.27.31,2.83,2.83,0,0,1,.2.28,4.84,4.84,0,0,1,.64,2.29.82.82,0,0,1-.6,1h-.07c-1.73.54-3.45,1.11-5.18,1.66-.63.2-.64.16-.58-.53Z"/><path id="Path_74" data-name="Path 74" d="M180.46,50.37a3.3,3.3,0,0,0-1.81-.21,6.82,6.82,0,0,0-4.07,2.49c-.18.22-.39.42-.69.76V51c0-.71-.06-.74-.74-.58-1.56.37-3.12.74-4.67,1.13-.19,0-.44,0-.56.34l1.07.8a3.89,3.89,0,0,1,1.69,3.35q-.08,4.36,0,8.74A3.75,3.75,0,0,1,169,68.15l-.84.61c-.1.08-.23.15-.2.31a58.67,58.67,0,0,0,8.49,0,5.21,5.21,0,0,0-1.22-1,3,3,0,0,1-1.36-2.41c0-3.07,0-6.15,0-9.22a2.79,2.79,0,0,1,1.8-2.7,2.6,2.6,0,0,1,2.91.77,2.74,2.74,0,0,0,.77.67c.07-.08.15-.13.17-.2.43-1.26.85-2.53,1.28-3.79a.53.53,0,0,0-.24-.71Z"/><path id="Path_75" data-name="Path 75" d="M164.47,50.45a3.06,3.06,0,0,0-1.86-.3,6.83,6.83,0,0,0-4.25,2.63c-.12.14-.16.36-.45.34a16.83,16.83,0,0,1,0-2.13c0-.67-.06-.7-.71-.55l-4.74,1.14c-.18,0-.38.06-.49.24s.21.31.36.4a8.43,8.43,0,0,1,1.58,1.34,2.5,2.5,0,0,1,.77,1.87v10a2.77,2.77,0,0,1-1.18,2.33l-1.21.92c-.14.11-.35.16-.28.42a53.3,53.3,0,0,0,8.52-.13,5.77,5.77,0,0,0-1.24-1,2.93,2.93,0,0,1-1.39-2.71c0-.56,0-1.12,0-1.68,0-2.46,0-4.92,0-7.37a2.76,2.76,0,0,1,1.47-2.42,2.4,2.4,0,0,1,2.71.23,12.55,12.55,0,0,1,1.27,1.15c.57-1.41,1-2.76,1.45-4.09a.45.45,0,0,0-.22-.61Z"/></g></g></svg>