<svg xmlns="http://www.w3.org/2000/svg" width="151.164" height="41" viewBox="0 0 151.164 41"><g transform="translate(573 -748.975)" opacity="0.987"><g transform="translate(-573 748.975)"><path d="M318.2.079h.258c5.066,0,10.133-.017,15.2.017a20.557,20.557,0,0,1,2.971.275,26.192,26.192,0,0,1,3.315.67c3.366.962,6.08,2.765,7.591,6.063a13.589,13.589,0,0,1,1.03,6.183,10.652,10.652,0,0,1-1.6,5.616A10.418,10.418,0,0,1,342.4,22.75a18.585,18.585,0,0,1-1.906.739c-.326.1-.275.206-.137.447l4.259,6.853,6.183,9.944.155.292h-9.36a.6.6,0,0,1-.6-.326l-9.343-15.113a.739.739,0,0,0-.721-.4q-1.6.034-3.194,0c-.326,0-.4.1-.4.412q.017,7.488,0,14.976v.429H318.2Zm9.154,12.95h0c0,1.855.017,3.71-.017,5.547,0,.309.069.378.361.378h5a10.082,10.082,0,0,0,3.589-.6,4.751,4.751,0,0,0,3.194-4.036,11.641,11.641,0,0,0,0-2.868A4.283,4.283,0,0,0,337.143,8a7.626,7.626,0,0,0-3.71-.859c-1.941-.069-3.881-.034-5.822-.034-.206,0-.275.069-.275.292C327.354,9.285,327.354,11.157,327.354,13.029Z" transform="translate(-263.551 -0.058)" fill="#fff"/><path d="M707-.021c.1,0,10.064-.017,14.959.017a21.368,21.368,0,0,1,2.834.275,20.578,20.578,0,0,1,2.748.515c3.641,1.03,6.595,2.954,8.123,6.595a12.057,12.057,0,0,1,.927,3.8,21.448,21.448,0,0,1,.137,2.765c-.206,3.435-1.219,6.509-3.984,8.793a13.12,13.12,0,0,1-4.139,2.25,20.062,20.062,0,0,1-4.1.893,29.711,29.711,0,0,1-3.109.189c-1.58.034-3.177,0-4.757,0h-.447V40.923H707Zm9.154,13.345h-.017v6.011c0,.275.12.309.344.309h4.173a9.805,9.805,0,0,0,3.658-.6,5.163,5.163,0,0,0,3.383-4.259,9.466,9.466,0,0,0,0-3.126,5.047,5.047,0,0,0-1.717-3.229,6.885,6.885,0,0,0-4.431-1.391c-1.6-.034-3.349,0-5.032,0-.326,0-.395.12-.378.412C716.154,9.408,716.154,11.366,716.154,13.324Z" transform="translate(-585.577 0.025)" fill="#fff"/><path d="M0,.1H9.205V33.453c0,.069.086.429.4.412H25.47c.343,0,.447.086.429.447-.017,2.13,0,4.259,0,6.372v.4H0Z" transform="translate(0 -0.079)" fill="#fff"/><path d="M190.781,84.58a5.041,5.041,0,1,1-5.066-4.981A4.977,4.977,0,0,1,190.781,84.58Z" transform="translate(-149.665 -65.924)" fill="#fff"/><path d="M579.15,84.546a5.077,5.077,0,1,1-5.084-4.946A4.966,4.966,0,0,1,579.15,84.546Z" transform="translate(-471.278 -65.925)" fill="#fff"/></g></g></svg>