<?xml version="1.0" encoding="UTF-8"?>
<svg id="Layer_2" data-name="Layer 2" xmlns="http://www.w3.org/2000/svg" viewBox="0 0 550.33 235.24">
  <defs>
    <style>
      .cls-1 {
        fill: none;
      }

      .cls-2 {
        fill-rule: evenodd;
      }
    </style>
  </defs>
  <g id="Layer_4" data-name="Layer 4">
    <g>
      <rect class="cls-1" width="550.33" height="235.24"/>
      <g id="Design">
        <g id="A_evisu_index" data-name="A evisu index">
          <g id="Group-6">
            <g id="Group-7">
              <path id="Combined-Shape" class="cls-2" d="m287.62,91.5v52.24c0,1.64-1.39,2.98-3.09,2.98h-10.87c-1.7,0-3.09-1.36-3.09-2.98v-52.23c0-1.65,1.38-2.98,3.09-2.98h10.87c1.7,0,3.09,1.33,3.09,2.98Zm-83.36,55.16h-36.88c-2.26,0-5.07-1.57-6.25-3.5l-30.95-51.12c-1.16-1.91-.24-3.5,2.02-3.5h36.88c2.27,0,5.06,1.59,6.21,3.51l4.58,7.66c1.15,1.93.2,3.5-2.05,3.5h-16.09c-2.27,0-3.26,1.42-2.19,3.18,1.06,1.77,3.27,2.48,5.56,2.48h16c2.26,0,5.06,1.57,6.21,3.47l5.14,8.45c1.15,1.92.24,3.47-2.04,3.47h-15.95c-2.27,0-3.19,1.57-2.02,3.47l.08.13c1.15,1.88,3.94,3.46,6.22,3.46h16.47c2.28,0,5.05,1.56,6.18,3.49l4.96,8.31c1.11,1.93.2,3.52-2.09,3.52Zm99.27-25.28v-29.88c0-1.65,1.38-2.98,3.08-2.98h42.59c1.7,0,3.08,1.33,3.08,2.99v5.81c0,1.66-1.38,2.98-3.08,2.98l-24.82-.05c-2.05,0-3.7,1.6-3.7,3.6v1.75c0,1.99,1.65,3.59,3.7,3.59l20.8-.03c1.71,0,3.08,1.36,3.08,3v31.58c0,1.64-1.37,2.98-3.08,2.98h-40.97c-1.66,0-3.07-1.33-3.07-2.98v-9.24c0-1.63,1.4-2.97,3.07-2.97h23.31c2.04,0,3.71-1.62,3.71-3.6s-1.67-3.61-3.71-3.61l-20.92.04c-1.7,0-3.08-1.34-3.08-2.98Zm-86.65-29.88l11.62,26.77c.34.48.89.8,1.53.8.78,0,1.44-.45,1.72-1.09l8.97-26.48c.62-1.65,2.49-2.98,4.2-2.98h15.07c1.69,0,2.57,1.33,1.96,2.98l-19.74,52.23c-.62,1.63-2.51,2.98-4.21,2.98h-11.54c-1.7,0-3.77-1.36-4.57-2.98l-26.22-52.23c-.83-1.65-.13-2.98,1.56-2.98h15.1c1.69,0,3.75,1.33,4.57,2.98Zm172.8,32.94l12.34-32.94c.6-1.65,2.49-2.98,4.16-2.98h12.29c1.7,0,2.58,1.33,1.97,2.98l-19.48,52.24c-.61,1.64-2.49,2.98-4.19,2.98h-39.83c-1.7,0-2.72-1.34-2.27-2.98l14.43-52.24c.47-1.65,2.21-2.98,3.9-2.98h10.88c1.69,0,2.71,1.33,2.26,2.98,0,0-8.75,32.44-8.87,32.94-.63,2.57,1.48,5.57,4.83,5.57,4.47,0,6.74-3.28,7.57-5.57Z"/>
            </g>
          </g>
        </g>
      </g>
    </g>
  </g>
</svg>