<svg xmlns="http://www.w3.org/2000/svg" viewBox="0 0 242.99 103.87"><defs><style>.cls-1{fill:none;}</style></defs><g id="Layer_2" data-name="Layer 2"><g id="Layer_1-2" data-name="Layer 1"><path id="Path_67" data-name="Path 67" d="M125.41,63.09A8.67,8.67,0,0,1,119,65.32a8.79,8.79,0,0,1-6.4-2.23,9,9,0,0,1-2.75-6.46,8.56,8.56,0,0,1,9.3-8.75,8.69,8.69,0,0,1,6.25,2.24,8.8,8.8,0,0,1,2.75,6.48,9,9,0,0,1-2.78,6.49Zm-6.49-12.71a5.85,5.85,0,0,0-6.08,6.19,6.17,6.17,0,1,0,12.34,0,5.86,5.86,0,0,0-6.26-6.22ZM53.34,48.1h-3.9L44,57.67,38.25,48.1H34.57V64.9h2.61V51.52L43.92,63l6.59-11.44V64.9H53.4V48.1Zm17.31,9.31c2.5-.49,3.72-1.94,3.72-4.44a4.51,4.51,0,0,0-2-4.14c-1.08-.59-2.18-.73-5.31-.73H59.48V64.9h2.9V57.66h5.16l4.34,7.24h3.27Zm-2.78-2.07H62.09V50.71h5.78a4.53,4.53,0,0,1,2.66.45A2.14,2.14,0,0,1,71.42,53a2.16,2.16,0,0,1-.89,1.86,4.81,4.81,0,0,1-2.66.46Zm35.46-6.41c-1-.6-2.09-.83-4.36-.83h-8.2V64.9h2.89V57.66h5.28c2.36,0,3.3-.17,4.34-.86a4.49,4.49,0,0,0,2-3.94,4.67,4.67,0,0,0-1.89-3.93ZM99,55.34H93.66V50.71H99a5.1,5.1,0,0,1,2.84.48,2.13,2.13,0,0,1,.8,1.85c0,1.73-.91,2.3-3.64,2.3Zm45.49,2.06c2.5-.49,3.72-1.95,3.72-4.42a4.5,4.5,0,0,0-2-4.15c-1.08-.58-2.18-.73-5.32-.73h-7.5V64.9h2.9V57.66h5.2l4.38,7.24H149l-4.48-7.5ZM142,55.34h-5.78V50.71H142a4.53,4.53,0,0,1,2.66.45,2.14,2.14,0,0,1,.89,1.86,2.17,2.17,0,0,1-.9,1.86,4.81,4.81,0,0,1-2.66.46Zm10.44-7.24v2.61h6.37V64.9h2.9V50.71h6.37V48.1Zm23.75,14.19V57.66h7.24V55.34h-7.24V50.71h10.71V48.1H173.31V64.9H187.5V62.29Zm27.7-4.89c2.5-.49,3.72-1.94,3.72-4.42a4.51,4.51,0,0,0-2-4.15c-1.07-.58-2.18-.73-5.32-.73h-7.55V64.9h2.9V57.66h5.2l4.38,7.24h3.21l-4.5-7.5Zm-2.51-2.06h-5.78V50.71h5.78a4.47,4.47,0,0,1,2.66.46,2.08,2.08,0,0,1,.88,1.86,2.15,2.15,0,0,1-.88,1.86,4.92,4.92,0,0,1-2.67.45Z"/><rect class="cls-1" width="242.99" height="103.87"/></g></g></svg>