<svg xmlns="http://www.w3.org/2000/svg" viewBox="0 0 242.99 103.87"><defs><style>.cls-1{fill:none;}</style></defs><g id="Layer_2" data-name="Layer 2"><g id="Layer_1-2" data-name="Layer 1"><rect class="cls-1" width="242.99" height="103.87"/><path d="M84,66h-.37a.6.6,0,0,1-.7.63c-.88,0-2.32-1.07-3.83-1.07-4.32,0-6.93,4.25-6.93,8s2.48,7.49,6.66,7.49c2.52,0,3.47-1.2,4.14-1.2.45,0,.7.55.78.86h.32V75.59h-.32l-.12.71c-.3,1.7-1.88,4.4-4.6,4.4-2.39,0-3.32-2.25-3.32-7.37C75.7,68,77,66,79.09,66c2.4,0,4.19,2.89,4.53,5H84V66Z"/><path d="M92.2,80.7c-2.46,0-3.15-2-3.15-7.37,0-6.65,1.53-7.37,3.15-7.37s3.17.72,3.17,7.37c0,5.35-.7,7.37-3.17,7.37m-6.69-7.37c-.08,3.94,3,7.75,6.69,7.75s6.78-3.81,6.7-7.75c0-4.13-2.72-7.74-6.7-7.74s-6.69,3.61-6.69,7.74"/><path d="M99.05,80.74h4.08v-.38h-.29c-1.14,0-1.58-.29-1.58-2V66.43h0l5,14.31h.57l4.91-14.06h0V80.36H110v.38h6.67v-.38h-1.57V66.3h1.57v-.38h-5.07l-3.56,10.17h0l-3.5-10.17H99.16v.38h1.59V78.56c0,.9-.2,1.8-1.62,1.8h-.08v.38Z"/><path d="M117.7,80.74h7.07v-.38h-2.08V74c.63.06,1.39.08,2.27.08,3.18,0,5.66-1.66,5.66-4.21s-1.72-4-5.4-4H117.7v.38h1.71V80.36H117.7Zm5-14.44h1.71c2.27,0,2.69,1,2.69,3.71,0,2.48-1,3.7-3.52,3.7a4.09,4.09,0,0,1-.88-.1Z"/><path d="M130.87,75.61l1.88-5.33h0l1.83,5.33Zm-3.53,5.13h3.81v-.38h-.59c-.42,0-1-.08-1-.77a1.72,1.72,0,0,1,.15-.64l1-3h4.08l1.54,4.37h-1.69v.38h6.28v-.38h-1l-5.63-14.77h-.32L129,79.1a1.59,1.59,0,0,1-1.43,1.26h-.27Z"/><path d="M141.83,80.74h4v-.38h-.19c-1.18,0-1.64-.21-1.64-1.41V68.2h0L153.83,81h.89V67.44a1.19,1.19,0,0,1,1.34-1.14h.3v-.38h-4v.38h.4c.92,0,1.43.4,1.43,1.2v8.63h-.05l-7.93-10.21H141.9v.38h.65l.92,1.24V78.85c0,1.28-.61,1.51-1.26,1.51h-.38v.38Z"/><path d="M161.06,80.74h6.52v-.38H166V74.7l2.87-6.42c.65-1.58,1.14-2,1.85-2h.15v-.38H167v.38h.27c.95,0,1.27.28,1.27.82a4.56,4.56,0,0,1-.43,1.46l-2.5,5.68-3.48-8h1.52v-.38H157.2v.38h1.4l4.08,9.29v4.77h-1.62v.38Z"/><path d="M112.5,22.05h-1c-.06,1.19-.68,1.7-1.88,1.7-2.39,0-6.25-2.9-10.34-2.9-11.64,0-18.69,11.48-18.69,21.59s6.71,20.22,18,20.22c6.82,0,9.38-3.24,11.2-3.24,1.19,0,1.87,1.48,2.1,2.32h.85V47.83h-.85l-.34,1.93c-.8,4.6-5.06,11.87-12.39,11.87-6.47,0-9-6.07-9-19.88,0-14.48,3.42-19.87,9.15-19.87,6.48,0,11.31,7.78,12.22,13.57h1V22.05Z"/><path d="M150.8,58.88a3.36,3.36,0,1,0,3.35-3.35,3.33,3.33,0,0,0-3.35,3.35"/><path d="M117.45,58.88a3.36,3.36,0,1,0,3.35-3.35,3.33,3.33,0,0,0-3.35,3.35"/><path d="M127.1,61.74h19.09v-1h-5.62V43.57c1.7.17,3.74.23,6.13.23,8.58,0,15.28-4.49,15.28-11.36s-4.66-10.68-14.6-10.68H127.1v1h4.61V60.72H127.1Zm13.47-39h4.6c6.13,0,7.26,2.79,7.26,10,0,6.7-2.72,10-9.48,10a10.55,10.55,0,0,1-2.38-.29V22.78Z"/></g></g></svg>