<svg xmlns="http://www.w3.org/2000/svg" viewBox="0 0 242.99 103.87"><defs><style>.cls-1{fill:none;}</style></defs><g id="Layer_2" data-name="Layer 2"><g id="Layer_1-2" data-name="Layer 1"><rect class="cls-1" width="242.99" height="103.87"/><path d="M73.22,68.74a.53.53,0,0,1,.68.55.54.54,0,0,1-.91.32.52.52,0,0,1,.23-.87Zm38.3.3a2.29,2.29,0,0,1,1.74-.26l-.12.68a1.43,1.43,0,0,0-1.13.09,1.49,1.49,0,0,0-.33,1.16c.39,0,.79,0,1.19,0v.68h-1.18v4.37H111c0-1.46,0-2.91,0-4.37h-1.07v-.68H111a1.91,1.91,0,0,1,.56-1.67Zm14-.31h.73c0,.92,0,1.83,0,2.75a2.11,2.11,0,0,1,1.72-.89,1.77,1.77,0,0,1,1.53.66,3.24,3.24,0,0,1,.36,1.91v2.61h-.74c0-.93,0-1.86,0-2.78a2,2,0,0,0-.41-1.41,1.47,1.47,0,0,0-1.84,0,2,2,0,0,0-.63,1.58v2.59h-.73Zm6.45,0a.53.53,0,1,1-.09.89.53.53,0,0,1,.09-.89Zm33.26,0a.53.53,0,1,1-.16.85A.53.53,0,0,1,165.26,68.76Zm-2.92,0c.25,0,.49,0,.74,0v7h-.73c0-2.32,0-4.64,0-7ZM75.92,71.06a2.34,2.34,0,0,1,2-.42,1.67,1.67,0,0,1,1.15.85,7.66,7.66,0,0,1-.66.45,1.26,1.26,0,0,0-1.91-.41.63.63,0,0,0,.1,1c.68.37,1.55.26,2.16.78a1.41,1.41,0,0,1-.19,2.24,2.82,2.82,0,0,1-1.72.28,2,2,0,0,1-1.55-.93l.64-.44A1.58,1.58,0,0,0,78,75a.7.7,0,0,0,.19-1.09,3.53,3.53,0,0,0-1.41-.48,1.66,1.66,0,0,1-1.26-.91,1.41,1.41,0,0,1,.38-1.49Zm5.09.37a2.65,2.65,0,0,1,3.91,0l-.6.46a1.71,1.71,0,0,0-2.59-.16,2.2,2.2,0,0,0,.18,3.1,1.72,1.72,0,0,0,2.42-.31l.6.46a2.35,2.35,0,0,1-1.53.82,3,3,0,0,1-1.78-.29A2.81,2.81,0,0,1,81,71.43Zm24.09-.66a2.29,2.29,0,0,1,1.37-.14c0,.25-.09.49-.14.73a2.08,2.08,0,0,0-1,0,1.61,1.61,0,0,0-1,1.47c0,1,0,1.93,0,2.89h-.73c0-1.68,0-3.37,0-5.05h.74c0,.29,0,.57,0,.86a2,2,0,0,1,.79-.8Zm15.64.33a2.38,2.38,0,0,1,2-.46,1.69,1.69,0,0,1,1.15.85c-.22.16-.44.31-.67.45a1.26,1.26,0,0,0-1.9-.42.64.64,0,0,0,.09,1c.72.39,1.66.26,2.26.87a1.41,1.41,0,0,1,.28,1.47,1.63,1.63,0,0,1-1.55,1,2.93,2.93,0,0,1-1.41-.18,2.23,2.23,0,0,1-.88-.76l.65-.44a1.56,1.56,0,0,0,2.15.53.69.69,0,0,0,.14-1.06,3.53,3.53,0,0,0-1.41-.48,1.66,1.66,0,0,1-1.26-.91,1.44,1.44,0,0,1,.33-1.45Zm21.2.38a2.21,2.21,0,0,1,1.47-.87,2,2,0,0,1,1.68.5,2.22,2.22,0,0,1,.46,1.49c0,1.06,0,2.11,0,3.17-.25,0-.5,0-.74,0,0-1,0-1.93,0-2.89a1.85,1.85,0,0,0-.45-1.34,1.48,1.48,0,0,0-1.94.19,2.24,2.24,0,0,0-.49,1.54c0,.83,0,1.67,0,2.5h-.73c0-1.69.06-3.38-.05-5.06h.76c0,.25,0,.51,0,.76Zm14.8,0a2.21,2.21,0,0,1,1.5-.89,2,2,0,0,1,1.67.52,2.31,2.31,0,0,1,.45,1.57c0,1,0,2,0,3.08h-.73V73a2,2,0,0,0-.44-1.43,1.49,1.49,0,0,0-2,.27,2.31,2.31,0,0,0-.42,1.45v2.51H156c0-1.69,0-3.38-.05-5.06h.76a6.77,6.77,0,0,1,0,.78Zm11.8,0a2.08,2.08,0,0,1,1.78-.9,1.74,1.74,0,0,1,1.45.64,2.59,2.59,0,0,1,.38,1.56v3h-.73c0-1,0-1.92,0-2.88a1.78,1.78,0,0,0-.46-1.38,1.49,1.49,0,0,0-2,.33,2.19,2.19,0,0,0-.4,1.33v2.6h-.73c0-1.69,0-3.38-.05-5.06h.76c0,.25,0,.51,0,.77ZM73,70.71h.74c0,1.68,0,3.37,0,5H73Zm18.63,0c.28,0,.57,0,.86,0a1.17,1.17,0,0,1,.15.32c.49,1.3,1,2.61,1.48,3.9.52-1.41,1.06-2.81,1.59-4.23h.85c-.69,1.69-1.38,3.37-2.06,5.06h-.82C93,74.08,92.31,72.4,91.63,70.71Zm40.23,0h.73c0,1.68,0,3.36,0,5h-.73Zm33.25,0h.74c0,1.68,0,3.36,0,5h-.73ZM71,68.73h-.74c0,.93,0,1.86,0,2.78a2.7,2.7,0,0,0-3.86-.21,2.75,2.75,0,0,0,.12,4,2.42,2.42,0,0,0,1.83.56A2.24,2.24,0,0,0,70.21,75v.81h.73c0-2.35,0-4.69,0-7Zm-1.27,5.91a2,2,0,0,1-2.59.21,2.16,2.16,0,0,1-.58-2.45,1.8,1.8,0,0,1,1.18-1.07,2,2,0,0,1,2,3.31Zm20.49-3.51a2.92,2.92,0,0,0-2.45-.45,2.46,2.46,0,0,0-1.4.94A2.83,2.83,0,0,0,86,74.4a2.49,2.49,0,0,0,1.73,1.41,7.37,7.37,0,0,0,1.41,0A2.53,2.53,0,0,0,91,74.22a2.74,2.74,0,0,0-.83-3.09Zm-.29,3.5a1.94,1.94,0,0,1-2.56.22,2.17,2.17,0,0,1-.57-2.42,1.78,1.78,0,0,1,1.16-1.09,1.93,1.93,0,0,1,2,.49A2.21,2.21,0,0,1,89.88,74.63ZM102,73.45a2.83,2.83,0,0,0-.72-2.2,2.53,2.53,0,0,0-3-.3,2.76,2.76,0,0,0-1.07,3.26,2.51,2.51,0,0,0,1.7,1.59,5.86,5.86,0,0,0,1.11,0,2.44,2.44,0,0,0,1.83-1l-.57-.46a1.94,1.94,0,0,1-2.1.8,2,2,0,0,1-1.36-1.71Zm-4.18-.61a1.79,1.79,0,0,1,1.63-1.58,1.64,1.64,0,0,1,1.39.53,1.85,1.85,0,0,1,.37,1Zm20.88-2.13H118v.49a2.87,2.87,0,0,0-3.76.18,2.74,2.74,0,0,0,.49,4.12,3.21,3.21,0,0,0,2,.33,2.53,2.53,0,0,0,1.24-.55v.49h.73c0-1.68,0-3.37,0-5.06Zm-1.35,4.11a1.94,1.94,0,0,1-2.42,0,2.16,2.16,0,0,1-.51-2.34,1.82,1.82,0,0,1,1.14-1.11,1.93,1.93,0,0,1,2,.58A2.16,2.16,0,0,1,117.38,74.82Zm21.3-3.64a2.88,2.88,0,0,0-2.49-.5,2.53,2.53,0,0,0-1.39.89,2.77,2.77,0,0,0,.61,3.91,3.37,3.37,0,0,0,2.12.35,2.51,2.51,0,0,0,1.89-1.53,2.77,2.77,0,0,0-.74-3.12Zm-.59,3.67a1.94,1.94,0,0,1-2.31,0,2.14,2.14,0,0,1-.52-2.56,1.74,1.74,0,0,1,1.1-1,1.93,1.93,0,0,1,1.95.5,2.15,2.15,0,0,1-.22,3Zm15.53-3.68a2.92,2.92,0,0,0-2.51-.49,2.51,2.51,0,0,0-1.49,1.06,2.75,2.75,0,0,0,.81,3.78,3.23,3.23,0,0,0,2,.31,2.47,2.47,0,0,0,1.95-1.68,2.74,2.74,0,0,0-.79-3Zm-.35,3.46a2,2,0,0,1-2.51.26,2.17,2.17,0,0,1-.6-2.52,1.78,1.78,0,0,1,1.13-1,1.93,1.93,0,0,1,2,.49,2.2,2.2,0,0,1,0,2.8Zm25.3-1.18a2.71,2.71,0,0,0-.44-1.94,2.52,2.52,0,0,0-3.66-.25,2.78,2.78,0,0,0,.34,4.23,3.17,3.17,0,0,0,2.12.33,2.77,2.77,0,0,0,1.52-1l-.57-.47a1.88,1.88,0,0,1-3.46-.9Zm-4.14-.61a1.81,1.81,0,0,1,2-1.56,1.49,1.49,0,0,1,1.07.62,1.92,1.92,0,0,1,.29.93Zm1.68-21.79a13.42,13.42,0,0,0-5.34-3.1c-2.63-.91-5.46-1.12-8.07-2.1a5.75,5.75,0,0,1-2.33-1.44,3.17,3.17,0,0,1,1.12-5,7.46,7.46,0,0,1,3.74-.53,5.89,5.89,0,0,1,3.54,1.4,5.22,5.22,0,0,1,1.56,2.88c0,.29.23.59.55.56,2.06,0,4.11.05,6.16.05a.43.43,0,0,0,.49-.51,11.06,11.06,0,0,0-1.74-4.61A10.18,10.18,0,0,0,171.1,35a16.78,16.78,0,0,0-5.43-1.1h-2.12a18.29,18.29,0,0,0-6.66,1.4,8.37,8.37,0,0,0-3.79,3.19,8.85,8.85,0,0,0-1.2,4.61,16.78,16.78,0,0,0-4.74-5.77,16.54,16.54,0,0,0-9.27-3.43h-1.73a16.2,16.2,0,0,0-6.59,1.85,17,17,0,0,0-7,7.06,11.46,11.46,0,0,0-1.34-3.62,9.73,9.73,0,0,0-3.75-3.59,15.83,15.83,0,0,0-6.66-1.7h-2.21a21.82,21.82,0,0,0-4.94.77,9.9,9.9,0,0,0-4.9,3,7.86,7.86,0,0,0-1.47,2.93V35.38a.63.63,0,0,0-.17-.54.75.75,0,0,0-.54-.15H91a.5.5,0,0,0-.51.5c0,.5,0,1,0,1.51a.28.28,0,0,1-.14.29,2.87,2.87,0,0,1-.53-.32,14.91,14.91,0,0,0-7.62-2.81H80.69a16.08,16.08,0,0,0-4.39.83,16.6,16.6,0,0,0-6.47,4.19,15.5,15.5,0,0,0-4.21,7.83,21.9,21.9,0,0,0-.34,2.67v1.83a16.55,16.55,0,0,0,1.36,5.88,17.14,17.14,0,0,0,6.22,7.17,15.54,15.54,0,0,0,8.67,2.45,13.61,13.61,0,0,0,8.42-3c.13-.09.37-.34.49-.1.06.58,0,1.17,0,1.76a.51.51,0,0,0,.5.5c1.93,0,3.85,0,5.78,0a.53.53,0,0,0,.51-.57c0-1.71,0-3.42,0-5.13a10.67,10.67,0,0,0,2.29,3.27,11.88,11.88,0,0,0,6.06,2.9,25.88,25.88,0,0,0,5.63.35,20.93,20.93,0,0,0,5.86-1,11.43,11.43,0,0,0,4.1-2.35,7.83,7.83,0,0,0,2.29-3.88,16.93,16.93,0,0,0,1.64,2.05,15.89,15.89,0,0,0,8.25,4.79,16.51,16.51,0,0,0,10.77-1.07,16.86,16.86,0,0,0,7.4-7,10.85,10.85,0,0,0,2.58,4.87,10.51,10.51,0,0,0,4,2.59,21.26,21.26,0,0,0,8.16,1,20.06,20.06,0,0,0,6.62-1.37,9.92,9.92,0,0,0,4.2-3.08A8,8,0,0,0,178.65,58V56.58a8.71,8.71,0,0,0-2.54-5.53ZM89,56.5A7.88,7.88,0,0,1,85,60a9.28,9.28,0,0,1-6.72.15,8.76,8.76,0,0,1-4.47-3.82,12.18,12.18,0,0,1-1.44-7,10.84,10.84,0,0,1,2.85-6.65,8.19,8.19,0,0,1,4.64-2.44,9.91,9.91,0,0,1,5.83.82,7.6,7.6,0,0,1,3.53,3.66A13.15,13.15,0,0,1,90.34,50,12.94,12.94,0,0,1,89,56.5Zm26.63,2.68A4.22,4.22,0,0,1,113.5,61a7.94,7.94,0,0,1-3.35.48,7.26,7.26,0,0,1-4.74-1.65,6,6,0,0,1-1.77-3.43c0-.25-.2-.53-.48-.51-2-.07-3.94,0-5.9-.1,0-3.39,0-6.78,0-10.16a7.46,7.46,0,0,0,.88,1.9,8.13,8.13,0,0,0,3,2.63,26,26,0,0,0,7.18,2.17,22.5,22.5,0,0,1,5.47,1.61,3.94,3.94,0,0,1,2.23,2.41,4.25,4.25,0,0,1-.46,2.88Zm5.22-8.48a14.21,14.21,0,0,0-5.18-2.81c-2-.67-4.07-1-6.09-1.49a12,12,0,0,1-3.11-1.18,3.51,3.51,0,0,1-1.61-1.85,3.26,3.26,0,0,1,.35-2.85,3.86,3.86,0,0,1,2.11-1.42,8.72,8.72,0,0,1,3.45-.2A5.48,5.48,0,0,1,114,40.37a5.2,5.2,0,0,1,1.44,2.76c0,.27.2.57.51.56,2.06,0,4.12.05,6.18.05a17.1,17.1,0,0,0-1.27,7Zm24,5.56a8.42,8.42,0,0,1-3.59,3.5,9.47,9.47,0,0,1-5.67.8,8.4,8.4,0,0,1-4.3-2.06,8.79,8.79,0,0,1-2.52-4,14,14,0,0,1-.51-5.86,10.23,10.23,0,0,1,2.58-5.89,8.49,8.49,0,0,1,5.24-2.6,9.3,9.3,0,0,1,5,.78,8.6,8.6,0,0,1,3.86,3.71,12,12,0,0,1,1.31,5.33,12.73,12.73,0,0,1-1.36,6.33Zm24.9,3.92a5.7,5.7,0,0,1-3.34,1.23,9.31,9.31,0,0,1-4.83-.81,5.41,5.41,0,0,1-2.63-3c-.2-.48-.25-1-.41-1.5s-.61-.23-.93-.28c-1.64,0-3.29-.05-4.93,0a18,18,0,0,0,.69-7.92,10,10,0,0,0,4.54,3c2.84,1.08,5.91,1.34,8.82,2.2a9.36,9.36,0,0,1,3.14,1.49,3.16,3.16,0,0,1,1.21,2,4.15,4.15,0,0,1-1.33,3.65Z"/></g></g></svg>