<svg xmlns="http://www.w3.org/2000/svg" viewBox="0 0 242.99 103.87"><defs><style>.cls-1{fill:none;}</style></defs><g id="Layer_2" data-name="Layer 2"><g id="Layer_1-2" data-name="Layer 1"><path id="Path_79" data-name="Path 79" d="M73.9,50.69s.18.08.18-.09c0,0-.38-.64-.75-.66,0,0-.39-.12-.27.13a1.2,1.2,0,0,0,.84.63"/><path id="Path_80" data-name="Path 80" d="M73.3,52.92a5.38,5.38,0,0,0-1.2-.07c-.49.06-.22.22,0,.31a3,3,0,0,0,1.25.2C74,53.36,73.49,53,73.3,52.92Z"/><path id="Path_81" data-name="Path 81" d="M71.86,52c.09,0,.72.15,1.06.24s.41.07.24-.2a1.84,1.84,0,0,0-1.4-.35C70.92,51.77,71.78,52,71.86,52Z"/><path id="Path_82" data-name="Path 82" d="M72.08,50.71l.77.55s.11.12.13-.09a1,1,0,0,0-.8-.69C71.5,50.37,72.08,50.71,72.08,50.71Z"/><path id="Path_83" data-name="Path 83" d="M73.56,44.94c-.12.28,0,.06,0,.15a1.87,1.87,0,0,0,1.14.18L74.8,45l-.13-.39S73.68,44.66,73.56,44.94Z"/><path id="Path_84" data-name="Path 84" d="M71.66,28.89C56.4,30,57.27,43,57.27,43V66.17c0,3.71,4.72,3.66,4.72,3.66,5.61,0,5.38-3.66,5.38-3.66v-9c1.24.9,6.3.63,6.3.63s15.1-.5,14.93-15.07C88.44,28.4,71.66,28.89,71.66,28.89Zm11.93,21s-5.83,3.46-7.15,3.94a11.32,11.32,0,0,1-3.22.49C66,54,62.1,52,62.1,52l-1.58-8,4.9-9.17c2-.8,8.19-1.28,8.19-1.28A50.16,50.16,0,0,0,80,35.12a7.73,7.73,0,0,1,2.3,3.41H80.81c-4.2-2.66-10.2-1.86-10.2-1.86A12.25,12.25,0,0,0,68,35.23c-.81-.38-1.09.21-1.09.21l-.76.69c-.71.59-.27,1.12-.27,1.12l.49,1.12a1.72,1.72,0,0,1,.21,1.38l-.59,1a1.82,1.82,0,0,0-.11,1.71c1.47,1.91,3.49,4.42,3.49,4.42A16.08,16.08,0,0,1,71.06,48a8.16,8.16,0,0,1,2,.41l1.52,1.12a1.36,1.36,0,0,0,1.36.21A18.73,18.73,0,0,0,78,48.92l.12-.74c5.61-3.89,4.79-6,4.79-6l.93-.16c1.63,3.25-.27,7.88-.27,7.88Zm-.19-8.34c-.53.18-.41-.32-.41-.32a4.65,4.65,0,0,1,.7-1.32c.16-.24-.06-.22-.06-.22a2,2,0,0,0-1.24,1.41l0,1.92a1.84,1.84,0,0,1-.1.77c-.72,1.76-3.91,3.65-3.91,3.65v-.64c0-1.25,1.08-1.13,1.08-1.13l-.9-.35c-.52-.19-.48.19-.48.19l-.47,2.7a.23.23,0,0,1-.19.25l-1.78.1c-.3,0-.24.15-.24.15l0,.38c0,.29-.55,0-.55,0l-1.13-.91a4,4,0,0,0-2.38-.74,3.93,3.93,0,0,1-1.49-.7L67,43.28a2.18,2.18,0,0,1-.55-2.18l.66-1.17a1,1,0,0,0,.1-1.22l-.43-.86c-.44-.85-.49-1-.33-1.32a4.82,4.82,0,0,1,1.15-1,.55.55,0,0,1,.45-.08c1.14.57,3.07,1.77,3.07,1.77C75.92,36.12,80.5,38.7,81,39a7.16,7.16,0,0,0,2.36,0s1.46-.26,1.5,1-1.49,1.6-1.49,1.6Z"/><path id="Path_85" data-name="Path 85" d="M79.59,62.33c.17,3.81,3.08,7.28,8.76,7.58s8.08-5.71,8.21-6.47a1.43,1.43,0,0,0-1-1.71c-.85-.26-1.88-.54-2.43.34s-2,3.77-4.6,3.75-4.65-1.35-4.78-4.07,3-4.19,6.2-3.19l-3.72,2.31a1.68,1.68,0,0,0-.1,2.39,1.37,1.37,0,0,0,.17.17c1.34,1.41,2.48.55,2.48.55s4.91-2.67,6-4.66-.11-5.52-6.43-5.13S79.42,58.52,79.59,62.33Z"/><path id="Path_86" data-name="Path 86" d="M112.77,68.27V59.61s.06-5-7.43-5.06-7.51,6.36-7.51,6.36V68.2s-.06,1.72,2.38,1.72c1.84,0,2-1.38,2-1.38V60.91s-.21-2.52,3-2.56,3.21,1.79,3.21,1.79-.09,7.12,0,8.24c.07.78.6,1.33,2.39,1.33C112.79,69.72,112.77,68.27,112.77,68.27Z"/><path id="Path_87" data-name="Path 87" d="M119.66,58.39l6.51,0a1.49,1.49,0,0,0,1.47-1.5v-.12a1.71,1.71,0,0,0-1.71-1.67h-6.1c0-4.08,3.71-3.31,5.83-3.37S127.55,50,127.55,50c0-2.19-4.3-2.15-4.3-2.15-8.09,0-7.77,6.13-7.77,6.13V68.23s0,1.58,2.2,1.55c1.9,0,2-1.45,2-1.45Z"/><path id="Path_88" data-name="Path 88" d="M132,54.15a2.81,2.81,0,1,0-3-2.8,2.91,2.91,0,0,0,3,2.8Z"/><path id="Path_89" data-name="Path 89" d="M134,68.46V57.22c0-1.1-1-1.48-2.13-1.48s-2.12.38-2.12,1.48V68.46c0,1.09.95,1.48,2.12,1.48S134,69.55,134,68.46Z"/><path id="Path_90" data-name="Path 90" d="M152,61.73c-.86-.26-1.88-.54-2.44.34s-2,3.77-4.59,3.75-4.66-1.36-4.79-4.07,3-4.19,6.2-3.19l-3.72,2.31a1.69,1.69,0,0,0-.11,2.39,1.37,1.37,0,0,0,.18.16c1.34,1.42,2.47.56,2.47.56s4.92-2.67,6-4.67-.1-5.52-6.43-5.12-8.85,4.33-8.67,8.14,3.07,7.27,8.76,7.58,8.08-5.71,8.21-6.47A1.43,1.43,0,0,0,152,61.73Z"/><path id="Path_91" data-name="Path 91" d="M157.5,69.94c1.17,0,2.11-.38,2.11-1.47V49.91c0-1.09-.94-1.47-2.11-1.47s-2.13.38-2.13,1.47V68.47C155.37,69.56,156.32,69.94,157.5,69.94Z"/><path id="Path_92" data-name="Path 92" d="M177.47,48.43c-2.23,0-2,1.85-2,1.85V62.44s-.16,3.42-4.69,3.42c-4.13,0-4.77-3.13-4.69-4s.37-3.33,4.53-3.43a1.87,1.87,0,0,0,1.87-1.86,1.74,1.74,0,0,0-1.56-1.89h-.17c-1.87-.08-9,.76-8.72,7.22s5.7,8.13,9.27,8.05,8.19-1.46,8.58-6.2V49.84S179.7,48.38,177.47,48.43Z"/><path id="Path_93" data-name="Path 93" d="M183.35,48.54h0a2.39,2.39,0,1,0,2.39,2.38A2.39,2.39,0,0,0,183.34,48.54Zm0,4.21a1.85,1.85,0,0,1,0-3.7h0a1.81,1.81,0,0,1,1.79,1.82v.05a1.78,1.78,0,0,1-1.73,1.83Z"/><path id="Path_94" data-name="Path 94" d="M183.89,51h0a.61.61,0,0,0,.48-.55.56.56,0,0,0-.24-.49,1.24,1.24,0,0,0-.79-.19,6.82,6.82,0,0,0-.9.07V52.1H183v-.93h.27c.3,0,.45.12.49.36a1.91,1.91,0,0,0,.19.57h.59a1.9,1.9,0,0,1-.18-.57C184.24,51.22,184.12,51,183.89,51Zm-.68-.21H183v-.66l.3,0c.34,0,.5.14.5.35s-.24.34-.54.34Z"/><rect class="cls-1" width="242.99" height="103.87"/></g></g></svg>