<svg xmlns="http://www.w3.org/2000/svg" width="21.343" height="17.311" viewBox="0 0 21.343 17.311"><path d="M44.759,19.311a12.339,12.339,0,0,0,12.45-12.45V6.269a9.638,9.638,0,0,0,2.134-2.253,9.843,9.843,0,0,1-2.49.711,4.613,4.613,0,0,0,1.9-2.371,10.876,10.876,0,0,1-2.727,1.067A4.235,4.235,0,0,0,52.821,2a4.455,4.455,0,0,0-4.387,4.387,2.312,2.312,0,0,0,.119.949,12.259,12.259,0,0,1-9.011-4.624,4.541,4.541,0,0,0-.593,2.253,4.711,4.711,0,0,0,1.9,3.676,4,4,0,0,1-2.016-.593h0a4.333,4.333,0,0,0,3.557,4.269,3.655,3.655,0,0,1-1.186.119,2.018,2.018,0,0,1-.83-.119,4.492,4.492,0,0,0,4.15,3.083,8.952,8.952,0,0,1-5.454,1.9A3.283,3.283,0,0,1,38,17.177a11.192,11.192,0,0,0,6.759,2.134" transform="translate(-38 -2)" fill="#fff" fill-rule="evenodd"/></svg>