<svg xmlns="http://www.w3.org/2000/svg" viewBox="0 0 243 103.9"><g id="Layer_2" data-name="Layer 2"><g id="Layer_1-2" data-name="Layer 1"><path d="M192.3,61.4a.7.7,0,1,0,.7.7.7.7,0,0,0-.7-.7m-1.8-2.1a.7.7,0,1,0,.7.7.7.7,0,0,0-.7-.7m-1.8-2.1a.7.7,0,1,0,.7.7.7.7,0,0,0-.7-.7m-62,9.9a.7.7,0,0,0-.7.7.8.8,0,0,0,.8.7.8.8,0,0,0,.6-.8.6.6,0,0,0-.7-.6m-1.6-2a.7.7,0,0,0,0,1.4.8.8,0,0,0,.7-.8c0-.4-.3-.6-.7-.6m3.3,3.9a.8.8,0,0,0-.7.7.8.8,0,0,0,.8.7c.3,0,.6-.4.6-.7s-.3-.8-.7-.7m36.3-32.9a.7.7,0,1,0-.7.7.7.7,0,0,0,.7-.7m-5,7.2a.7.7,0,0,0-.7.7.8.8,0,0,0,.7.7.8.8,0,0,0,.7-.7.8.8,0,0,0-.7-.7m1.1-2a.7.7,0,1,0,0,1.4.7.7,0,1,0,0-1.4m1-2a.8.8,0,0,0-.7.8.7.7,0,0,0,1.4,0,.7.7,0,0,0-.7-.8m1.1,2a.7.7,0,1,0,0,1.4.7.7,0,1,0,0-1.4m-4.3,3.9a.8.8,0,0,0-.7.7.7.7,0,1,0,1.4,0,.7.7,0,0,0-.7-.7m4.3-7.8a.7.7,0,0,0,0,1.4.7.7,0,1,0,0-1.4m2.2,3.9a.7.7,0,0,0,0,1.4.7.7,0,1,0,0-1.4m0-7.9a.9.9,0,0,0-.7.8.8.8,0,0,0,.7.7.9.9,0,0,0,.8-.7.8.8,0,0,0-.8-.8M50.6,62.4a.8.8,0,0,0-.8.7.8.8,0,0,0,.8.8.8.8,0,0,0,.7-.8.8.8,0,0,0-.7-.7m1.6,1.8a.8.8,0,0,0-.8.7.7.7,0,0,0,.8.7.8.8,0,0,0,.7-.7.7.7,0,0,0-.7-.7M49,60.7a.8.8,0,0,0-.8.7.7.7,0,0,0,.8.7.8.8,0,0,0,.7-.7.7.7,0,0,0-.7-.7m-3.2-3.5a.7.7,0,1,0,.7.7.7.7,0,0,0-.7-.7m1.6,1.7a.7.7,0,0,0-.7.7.8.8,0,0,0,.7.8.7.7,0,0,0,.7-.8.8.8,0,0,0-.7-.7m96.8-25.5a.8.8,0,0,0-.7.8.7.7,0,0,0,1.4,0,.7.7,0,0,0-.7-.8m3,11.8a.8.8,0,0,0-.7.7.7.7,0,1,0,1.4,0,.7.7,0,0,0-.7-.7m-3-9.4a.7.7,0,1,0,.7.7.7.7,0,0,0-.7-.7m0,2.3a.8.8,0,0,0-.7.7.7.7,0,1,0,1.4,0,.8.8,0,0,0-.7-.7m5.9,7.1a.8.8,0,0,0-.7.7.7.7,0,1,0,1.4,0,.7.7,0,0,0-.7-.7m-21.3-4.7a.7.7,0,1,0,.7.7.7.7,0,0,0-.7-.7m0-2.4a.8.8,0,0,0-.7.7.7.7,0,0,0,1.4,0,.8.8,0,0,0-.7-.7m0,7.1a.8.8,0,0,0-.7.7.7.7,0,1,0,1.4,0,.7.7,0,0,0-.7-.7m0-2.3a.7.7,0,1,0,.7.7.7.7,0,0,0-.7-.7m-9.7-9.5a.9.9,0,0,0-.7.8.8.8,0,0,0,.7.7.9.9,0,0,0,.8-.7.8.8,0,0,0-.8-.8m9.7,2.4a.7.7,0,1,0,.7.7.7.7,0,0,0-.7-.7m15.4,4.7a.7.7,0,1,0,.7.7.7.7,0,0,0-.7-.7m0,4.7a.8.8,0,0,0-.7.7.7.7,0,1,0,1.4,0,.7.7,0,0,0-.7-.7m0-2.3a.7.7,0,1,0,.7.7.7.7,0,0,0-.7-.7m-9.5,2.3a.8.8,0,0,0-.7.7.8.8,0,0,0,.7.8.9.9,0,0,0,.7-.8.7.7,0,0,0-.7-.7m-5.9-11.8a.8.8,0,0,0-.7.8.7.7,0,0,0,1.4,0,.7.7,0,0,0-.7-.8m2.9,11.8a.8.8,0,0,0-.7.7.7.7,0,1,0,1.4,0,.7.7,0,0,0-.7-.7M58.6,64.3a.7.7,0,1,0,.7.7.7.7,0,0,0-.7-.7m60.5-19.1a.8.8,0,0,0-.7.7.8.8,0,1,0,1.5,0,.8.8,0,0,0-.8-.7M58.6,69a.8.8,0,0,0-.7.7.7.7,0,1,0,1.4,0,.7.7,0,0,0-.7-.7m0-7.1a.8.8,0,0,0-.7.7.7.7,0,0,0,1.4,0,.8.8,0,0,0-.7-.7m0-2.3a.7.7,0,1,0,.7.7.7.7,0,0,0-.7-.7M45.8,64.3a.7.7,0,1,0,0,1.4.8.8,0,0,0,.7-.7.7.7,0,0,0-.7-.7m0,2.4a.7.7,0,1,0,0,1.4.8.8,0,0,0,.7-.7.7.7,0,0,0-.7-.7m0-4.8a.9.9,0,0,0-.8.7.8.8,0,0,0,.8.7.7.7,0,0,0,0-1.4m0,7.1a.8.8,0,1,0,.7.7.7.7,0,0,0-.7-.7m0-9.4a.7.7,0,1,0,0,1.4.8.8,0,0,0,.7-.7.7.7,0,0,0-.7-.7m12.8,7.1a.7.7,0,1,0,.7.7.7.7,0,0,0-.7-.7m64.9-8a.8.8,0,1,0-.7-.7.8.8,0,0,0,.7.7m2.3,0a.8.8,0,0,0,.7-.7.9.9,0,0,0-.7-.8.8.8,0,0,0-.7.8.8.8,0,0,0,.7.7m1.9.8a.8.8,0,1,0-.7-.7.7.7,0,0,0,.7.7M116.5,33.4a.8.8,0,0,0-.7.8.7.7,0,1,0,1.4,0,.7.7,0,0,0-.7-.8m-5.3,2.4a.7.7,0,1,0,.7.7.7.7,0,0,0-.7-.7m0-2.4a.8.8,0,0,0-.7.8.7.7,0,1,0,1.4,0,.7.7,0,0,0-.7-.8m2.7,11.8a.8.8,0,0,0-.7.7.7.7,0,1,0,1.4,0,.7.7,0,0,0-.7-.7m-2.7-4.7a.7.7,0,1,0,.7.7.7.7,0,0,0-.7-.7m2.7-1.2a.8.8,0,0,0-.7.8.7.7,0,1,0,1.4,0,.7.7,0,0,0-.7-.8m-2.7,3.6a.7.7,0,1,0,.7.7.7.7,0,0,0-.7-.7m0-4.8a.8.8,0,0,0-.7.7.7.7,0,0,0,1.4,0,.8.8,0,0,0-.7-.7m2.7-4.7a.8.8,0,0,0-.7.8.7.7,0,1,0,1.4,0,.7.7,0,0,0-.7-.8m2.6,5.9a.8.8,0,0,0-.7.8.7.7,0,1,0,1.4,0,.7.7,0,0,0-.7-.8m0,5.9a.8.8,0,0,0-.7.7.7.7,0,1,0,1.4,0,.7.7,0,0,0-.7-.7M94.4,33.4a.9.9,0,0,0-.7.8.8.8,0,0,0,.7.7.8.8,0,0,0,.7-.7.7.7,0,0,0-.7-.8M98,45.2a.8.8,0,0,0-.7.7.8.8,0,0,0,.7.8.9.9,0,0,0,.7-.8.8.8,0,0,0-.7-.7m13.2,0a.8.8,0,0,0-.7.7.7.7,0,1,0,1.4,0,.7.7,0,0,0-.7-.7M98,40.3a.7.7,0,0,0,0,1.4.7.7,0,0,0,0-1.4m-5.9-6.9a.8.8,0,0,0-.7.8.7.7,0,1,0,1.4,0,.7.7,0,0,0-.7-.8m4.6,0a.9.9,0,0,0-.7.8.8.8,0,0,0,.7.7.9.9,0,0,0,.8-.7.7.7,0,0,0-.8-.8M98,42.7a.8.8,0,0,0-.7.8.8.8,0,0,0,.7.7.8.8,0,0,0,.7-.7.9.9,0,0,0-.7-.8m0-4.8a.7.7,0,0,0,0,1.4.7.7,0,1,0,0-1.4m5.9-4.5a.8.8,0,1,0,0,1.5.8.8,0,0,0,.7-.7.8.8,0,0,0-.7-.8m-4.8,0a.9.9,0,0,0-.7.8.8.8,0,0,0,.7.7.9.9,0,0,0,.8-.7c-.1-.5-.4-.8-.8-.8m2.4,0a.8.8,0,0,0-.7.8.7.7,0,1,0,1.4,0,.7.7,0,0,0-.7-.8m-3.5,2a.7.7,0,0,0,0,1.4.7.7,0,1,0,0-1.4m67.2,31.3a.7.7,0,1,0,.7.7.7.7,0,0,0-.7-.7m0-2.4a.7.7,0,1,0,.7.7.7.7,0,0,0-.7-.7m0-4.7a.7.7,0,1,0,.7.7.7.7,0,0,0-.7-.7m0-2.4a.8.8,0,0,0-.7.8.7.7,0,1,0,1.4,0,.7.7,0,0,0-.7-.8M173.9,69a.8.8,0,0,0-.7.7.7.7,0,1,0,1.4,0,.7.7,0,0,0-.7-.7m-8.7-7.1a.8.8,0,0,0-.7.7.7.7,0,0,0,1.4,0,.8.8,0,0,0-.7-.7M154.5,69a.8.8,0,0,0-.7.7.7.7,0,1,0,1.4,0c.1-.4-.3-.7-.7-.7m-9.9-11.8a.8.8,0,0,0-.7.8.7.7,0,1,0,1.4,0,.7.7,0,0,0-.7-.8m2.3,0a.9.9,0,0,0-.7.8.8.8,0,0,0,.7.7.9.9,0,0,0,.8-.7.7.7,0,0,0-.8-.8m-4.6,0a.8.8,0,1,0,0,1.5.8.8,0,0,0,.7-.7.8.8,0,0,0-.7-.8M141,61.7a.7.7,0,0,0,0,1.4.8.8,0,0,0,.8-.7.7.7,0,0,0-.8-.7m32.9,5a.7.7,0,1,0,.7.7.7.7,0,0,0-.7-.7M141,59.2a.7.7,0,0,0,0,1.4.8.8,0,0,0,.8-.7.7.7,0,0,0-.8-.7m13.5,2.7a.8.8,0,0,0-.7.7.7.7,0,0,0,1.4,0,.8.8,0,0,0-.7-.7m0-2.3a.7.7,0,1,0,.7.7c.1-.4-.3-.7-.7-.7m0,7.1a.7.7,0,1,0,.7.7c.1-.4-.3-.7-.7-.7m0-2.4a.7.7,0,1,0,.7.7c.1-.4-.3-.7-.7-.7M194.2,69a.8.8,0,1,0,.7.7.8.8,0,0,0-.7-.7M181.8,57.2a.8.8,0,0,0-.7.8.7.7,0,0,0,1.4,0,.7.7,0,0,0-.7-.8m0,11.8a.8.8,0,0,0-.7.7.7.7,0,1,0,1.4,0,.7.7,0,0,0-.7-.7m12.4-2.7a.8.8,0,0,0-.8.7.9.9,0,0,0,.8.7.8.8,0,0,0,.7-.7.8.8,0,0,0-.7-.7m-20.3-9.1a.8.8,0,0,0-.7.8.7.7,0,0,0,1.4,0,.7.7,0,0,0-.7-.8m5.2,0a.9.9,0,0,0-.7.8.8.8,0,0,0,.7.7.8.8,0,0,0,.7-.7c.1-.5-.2-.8-.7-.8m-2.6,5.9a.8.8,0,0,0-.7.8.7.7,0,0,0,1.4,0,.7.7,0,0,0-.7-.8m0,5.9a.8.8,0,0,0-.7.7.7.7,0,1,0,1.4,0,.7.7,0,0,0-.7-.7m-2.6-7.1a.8.8,0,0,0-.7.7.7.7,0,0,0,1.4,0,.8.8,0,0,0-.7-.7m0-2.3a.7.7,0,1,0,.7.7.7.7,0,0,0-.7-.7m5.2,9.4a.8.8,0,0,0-.7.7.9.9,0,0,0,.7.8.8.8,0,0,0,.7-.8c.1-.4-.2-.7-.7-.7m0-5.9a.9.9,0,0,0-.7.8.8.8,0,0,0,.7.7.8.8,0,0,0,.7-.7c.1-.5-.2-.8-.7-.8m-5.2,1.2a.7.7,0,1,0,.7.7.7.7,0,0,0-.7-.7m2.6-7.1a.8.8,0,0,0-.7.8.7.7,0,1,0,1.4,0,.7.7,0,0,0-.7-.8m-48,5.6a.8.8,0,0,0-.8-.7.7.7,0,0,0,0,1.4.8.8,0,0,0,.8-.7M141,64.1a.7.7,0,0,0,0,1.4.8.8,0,0,0,.8-.7.7.7,0,0,0-.8-.7m53.2-.6a.7.7,0,1,0,0,1.4.7.7,0,1,0,0-1.4m-65-2.7a.8.8,0,0,0-.7-.7.7.7,0,1,0,0,1.4.8.8,0,0,0,.7-.7M141,69a.8.8,0,0,0-.7.7.8.8,0,1,0,1.5,0,.7.7,0,0,0-.8-.7m-1.1-11.8a.8.8,0,1,0,0,1.5.8.8,0,0,0,.7-.7.7.7,0,0,0-.7-.8m1.1,9.3a.9.9,0,0,0-.7.8.8.8,0,0,0,.7.7.9.9,0,0,0,.8-.7.8.8,0,0,0-.8-.8m-5.8-9.3a.8.8,0,1,0,0,1.5.8.8,0,0,0,.7-.7.7.7,0,0,0-.7-.8m2.3,0a.8.8,0,0,0-.7.8.7.7,0,1,0,1.4,0,.7.7,0,0,0-.7-.8M119,64.3a.7.7,0,1,0,.7.7.7.7,0,0,0-.7-.7m2.3-7.1a.8.8,0,1,0,0,1.5.8.8,0,0,0,.7-.7.8.8,0,0,0-.7-.8M119,69a.8.8,0,0,0-.7.7.7.7,0,1,0,1.4,0,.7.7,0,0,0-.7-.7m0-2.3a.7.7,0,1,0,.7.7.7.7,0,0,0-.7-.7m0-9.5a.8.8,0,0,0-.7.8.7.7,0,0,0,1.4,0,.7.7,0,0,0-.7-.8m4.5,7.4a.8.8,0,0,0,.7-.7.7.7,0,1,0-1.4,0,.8.8,0,0,0,.7.7m2.3,0a.8.8,0,0,0,.7-.7.9.9,0,0,0-.7-.8.8.8,0,0,0-.7.8.8.8,0,0,0,.7.7m-4.6-1.5a.8.8,0,0,0-.7.8.7.7,0,1,0,1.4,0,.7.7,0,0,0-.7-.8M119,59.6a.7.7,0,1,0,.7.7.7.7,0,0,0-.7-.7m0,2.3a.8.8,0,0,0-.7.7.7.7,0,1,0,1.4,0,.8.8,0,0,0-.7-.7M53,63.1a.8.8,0,1,0,1.5,0,.8.8,0,0,0-.7-.7.8.8,0,0,0-.8.7m1.6-1.7a.8.8,0,0,0,.8.7.7.7,0,0,0,0-1.4.7.7,0,0,0-.8.7M57.8,58a.7.7,0,0,0,1.4,0,.8.8,0,0,0-.7-.8.7.7,0,0,0-.7.8m-1.6,1.7a.7.7,0,1,0,.7-.7.7.7,0,0,0-.7.7m50.1.9a.7.7,0,1,0-.7-.7.7.7,0,0,0,.7.7m3.7,7.2a.7.7,0,0,0,1.4,0,.7.7,0,0,0-1.4,0m-1.1-2a.7.7,0,1,0,.7-.7.7.7,0,0,0-.7.7m-1.1-1.9a.7.7,0,1,0,1.4,0,.8.8,0,0,0-.7-.8.7.7,0,0,0-.7.8m-1.1,1.9a.7.7,0,1,0,.7-.7.7.7,0,0,0-.7.7m4.4,3.9a.7.7,0,1,0,1.4,0,.8.8,0,0,0-.7-.7.7.7,0,0,0-.7.7m-4.4-7.8a.7.7,0,1,0,.7-.7.7.7,0,0,0-.7.7m-2.2,3.9a.7.7,0,1,0,.7-.7.7.7,0,0,0-.7.7m0-7.8a.7.7,0,0,0,1.4,0,.8.8,0,0,0-.7-.8.7.7,0,0,0-.7.8m90.8,4.1a.7.7,0,0,0,.7.7.7.7,0,0,0,0-1.4.6.6,0,0,0-.7.7m1.8-2.1a.7.7,0,1,0,.7-.7.7.7,0,0,0-.7.7m1.8-2.1a.7.7,0,1,0,.7-.7.7.7,0,0,0-.7.7m-35.5,9.2a.7.7,0,0,0-.7.7.7.7,0,0,0,1.4,0,.7.7,0,0,0-.7-.7m-1.8-2a.7.7,0,1,0,.7.7c.1-.4-.3-.7-.7-.7m3.6,3.9a.7.7,0,0,0-.7.7.8.8,0,0,0,.7.8.7.7,0,0,0,.7-.8.7.7,0,0,0-.7-.7m-5.3-5.9a.8.8,0,0,0-.8.8.8.8,0,0,0,.8.7.8.8,0,0,0,.7-.7.7.7,0,0,0-.7-.8m-1.8-1.9a.7.7,0,1,0,.7.7.7.7,0,0,0-.7-.7m-1.8-2a.7.7,0,1,0,.7.7.7.7,0,0,0-.7-.7m-1.8-2a.7.7,0,0,0-.7.8.8.8,0,0,0,.7.7.7.7,0,0,0,.7-.7.7.7,0,0,0-.7-.8M75.9,67.7a.8.8,0,1,0,.7.7.8.8,0,0,0-.7-.7m-2.1,1.2a.7.7,0,1,0,.7.7.7.7,0,0,0-.7-.7m-2.4.3a.8.8,0,0,0-.7.8.7.7,0,0,0,1.4,0,.8.8,0,0,0-.7-.8m-2.3-.4a.7.7,0,1,0,.7.7.7.7,0,0,0-.7-.7m-1.7-1.7a.8.8,0,1,0,0,1.5.8.8,0,0,0,.7-.7.7.7,0,0,0-.7-.8m-.6-2.3a.7.7,0,1,0,0,1.4.7.7,0,1,0,0-1.4m.6-2.3a.7.7,0,1,0,0,1.4.8.8,0,0,0,.7-.7.7.7,0,0,0-.7-.7m1.7-1.7a.8.8,0,0,0-.7.7.7.7,0,1,0,1.4,0,.7.7,0,0,0-.7-.7m2.3-.5a.8.8,0,0,0-.7.7.7.7,0,1,0,1.4,0,.8.8,0,0,0-.7-.7m2.4.4a.7.7,0,0,0-.7.7.7.7,0,0,0,1.4,0,.7.7,0,0,0-.7-.7m2.1,1.1a.8.8,0,1,0,.7.7.8.8,0,0,0-.7-.7m20.7-2.7a.7.7,0,1,0,.7.7.7.7,0,0,0-.7-.7m-1.9-1.4a.7.7,0,1,0,.7.7.7.7,0,0,0-.7-.7M92.4,57a.7.7,0,1,0,.7.7.7.7,0,0,0-.7-.7m-2.5-.1a.7.7,0,1,0,.7.7.7.7,0,0,0-.7-.7m-2.4.4a.8.8,0,0,0-.7.7.7.7,0,1,0,1.4,0c.1-.4-.3-.7-.7-.7m-1.9,1.3a.7.7,0,0,0-.7.7.7.7,0,1,0,1.4,0,.7.7,0,0,0-.7-.7m-1.3,2.1a.7.7,0,0,0-.7.7.7.7,0,0,0,1.4,0,.7.7,0,0,0-.7-.7m-.5,2.4a.7.7,0,0,0-.7.7.7.7,0,0,0,1.4,0,.7.7,0,0,0-.7-.7m12.8,5.4a.8.8,0,0,1-.7-.7.7.7,0,1,1,1.4,0,.8.8,0,0,1-.7.7m-1.9,1.4a.8.8,0,0,1-.7-.7.7.7,0,1,1,1.4,0,.8.8,0,0,1-.7.7m-2.3.7a.7.7,0,1,1,.7-.7.7.7,0,0,1-.7.7m-2.5.1a.7.7,0,1,1,.7-.7.7.7,0,0,1-.7.7m-2.4-.4a.8.8,0,0,1-.7-.8.7.7,0,0,1,1.4,0,.7.7,0,0,1-.7.8M85.6,69a.7.7,0,1,1,.7-.7.7.7,0,0,1-.7.7m-1.3-2.1a.7.7,0,1,1,.7-.7.7.7,0,0,1-.7.7M79.9,45.4a.7.7,0,1,0,.7.7.7.7,0,0,0-.7-.7m.5-5.5a.8.8,0,0,0-.7-.7.7.7,0,1,0,0,1.4.8.8,0,0,0,.7-.7m-2.7,4.7a.7.7,0,1,0,.7.7.7.7,0,0,0-.7-.7m-1.4-6.9a.7.7,0,1,0,0-1.4.7.7,0,1,0,0,1.4M76,42.8a.7.7,0,1,0,0,1.4.7.7,0,0,0,0-1.4M84.7,45a.7.7,0,1,0,.7.7.7.7,0,0,0-.7-.7m-8-5.9a.7.7,0,1,0,.7-.7.7.7,0,0,0-.7.7m9.7,4.3a.7.7,0,0,0,0,1.4.7.7,0,1,0,0-1.4m-1.2-3.1a.7.7,0,1,0-1.4,0,.8.8,0,0,0,.7.8.7.7,0,0,0,.7-.8m-2.8,5.2a.8.8,0,1,0,.7.7.8.8,0,0,0-.7-.7m.4-5.4a.8.8,0,1,0-.7.7.7.7,0,0,0,.7-.7m-3.4-5.4a.7.7,0,0,0,0-1.4.7.7,0,0,0-.7.7.6.6,0,0,0,.7.7m7,6.3a.7.7,0,1,0,0,1.4.7.7,0,1,0,0-1.4m-4.6-6.4a.8.8,0,0,0,.7-.7.8.8,0,0,0-.7-.7.8.8,0,0,0-.8.7.9.9,0,0,0,.8.7m-4.7,1a.8.8,0,0,0,.7-.8.8.8,0,0,0-.7-.7.8.8,0,0,0-.7.8.7.7,0,0,0,.7.7m9.1.7a.7.7,0,1,0-.7-.7.7.7,0,0,0,.7.7m-2-1.3a.7.7,0,0,0,0-1.4.8.8,0,0,0-.8.7.7.7,0,0,0,.8.7"/><rect width="243" height="103.87" style="fill:none"/></g></g></svg>