<svg xmlns="http://www.w3.org/2000/svg" viewBox="0 0 243 103.9"><g id="Layer_2" data-name="Layer 2"><g id="Layer_1-2" data-name="Layer 1"><rect width="243" height="103.87" style="fill:none"/><polygon points="112.5 40.8 112.5 40.8 112.5 40.8 116.3 41 116.9 40.4 116.9 40.4 116.9 40.4 112.5 40.8"/><polygon points="112.3 41.9 112.3 41.9 112.3 41.9 115.2 42.3 115.7 41.8 115.7 41.8 115.7 41.8 112.3 41.9"/><path d="M112.3,42.8h0l1.6.4.4-.3h-2Z"/><path d="M109.9,43.5h-.2c-.7-.1-.7-.4-.7-.4h-.1l-.2.2-.3.3c-.1,0-.1.1-.2.2h0c0,.1.1.1.1,0h.3l.6-.2h.7c.1,0,.1,0,.1-.1Z"/><path d="M109.9,42.9l.5-1-1.1.6S109.6,42.9,109.9,42.9Z"/><path d="M118.4,43.7h0s.8.6,3.3.3l5.4-1.5h0A33.9,33.9,0,0,1,118.4,43.7Z"/><path d="M121.7,44a26.9,26.9,0,0,0,5.4-1.5h0Z"/><path d="M131,43.8a.9.9,0,1,0,.9-.9A.9.9,0,0,0,131,43.8Zm1.4-.3c0,.3-.1.4-.3.4l.4.5h-.2l-.4-.5h-.2v.5h-.2V43.2h.5C132.3,43.2,132.4,43.3,132.4,43.5Z"/><path d="M132.2,43.5a.2.2,0,0,0-.2-.2h-.3v.4h.2C132.1,43.7,132.2,43.7,132.2,43.5Z"/><path d="M145.1,18.4a8.5,8.5,0,0,0-3.2-3,11.3,11.3,0,0,0-2.4-1.1,31.3,31.3,0,0,1-2.8,4.3,18.1,18.1,0,0,1-3.1,3.1,33.5,33.5,0,0,1-3.6,2.7l-2.8,1.9-2.3,1.3-.8,2.9a19,19,0,0,1-1.6,3.7,15,15,0,0,0-1.4-4.5c-1-1.8-2.3-2.8-2.4-3.2-.7-3.9-1.7-4.5-2.6-5.5a9.5,9.5,0,0,0-3.9-2.9,12.2,12.2,0,0,0-7.1-.8,32,32,0,0,0-4.2,1.3,21,21,0,0,1,1.9,2.4,27.1,27.1,0,0,1,3,5,36.3,36.3,0,0,1,1.6,4.6l.5,3.1a11.1,11.1,0,0,1,2.6,1.5,6.3,6.3,0,0,1,1.9,2.5,17.2,17.2,0,0,0-2.7,1.5c-1.5,1-2.2,1.7-2.4,2.8s-1.9,1.5-1.7,3.2a2.7,2.7,0,0,0,.8,1.6,2.5,2.5,0,0,0,2.2.8c1.1-.3,2.4-1.7,4.5-1s1.4,1.6,1.9,2.4a12.4,12.4,0,0,1,1,2,2.1,2.1,0,0,1-.7,2c-.4.5-2,1.3-2.4,2.6a2.3,2.3,0,0,0,1.1,3,3.8,3.8,0,0,0,2.5.2,4,4,0,0,0,3.2,1.2,9.2,9.2,0,0,0,3.8-2.4,18.2,18.2,0,0,1,2.9-2.4,15.7,15.7,0,0,1,4.5-1.7,16.4,16.4,0,0,0,5.2-2.4,25.3,25.3,0,0,0,3.2-2.9,13.6,13.6,0,0,0,2.5-3.4c1.6-2.8,1.2-4.1,1.1-4l-5.3,1.8-3.2.9c-.1.1-.3-.4-.6-.9a2.7,2.7,0,0,0-.8-.7s1.8-2.1,2.4-3l2.9-4.1a21.1,21.1,0,0,0,4.9-4.4,11,11,0,0,0,2.9-5.9A8.6,8.6,0,0,0,145.1,18.4Zm-35.6,14c-1.9-9.5-6-13.2-6-13.2,1.9-1,4.5,3.1,4.5,3.1s-1.9-3.9-1.9-3.9c2.3.2,3.7,3.8,3.7,3.8s-1.1-3.6-1.1-3.6c2,.1,2.9,4.1,2.9,4.1s-.8-3.6-.8-3.6c1.9.6,2.7,4.6,2.7,4.6a11.9,11.9,0,0,0-.6-3.6c2,1.3,2.4,6,2.4,6s-.4-3.9-.4-3.9a7.6,7.6,0,0,1,2,6.4l.6-.9c5.7,5.6,2.2,11.5,2.2,11.5-4.2-10.6-8.2-8.8-8.2-8.8a10.9,10.9,0,0,1,1.9.5l-1.3.2a10,10,0,0,1,2.4.6l-1.5.4a8.7,8.7,0,0,1,2.7.7,5.1,5.1,0,0,0-1.8.4,11.1,11.1,0,0,1,2.7.8,7,7,0,0,0-2,.3,10,10,0,0,1,2.8.9,6.4,6.4,0,0,0-2.1.4,7.2,7.2,0,0,1,3,1.2,6.4,6.4,0,0,0-2.4.4c2.5.5,3.2,1.2,3.2,1.2a35.7,35.7,0,0,0-4.4.6A10.2,10.2,0,0,0,109.5,32.4Zm6,23.5s-.8,1.1.4,1.6-1.5.2-1.8-.6a4.5,4.5,0,0,1,.8-1.8c.1-.2.5-.3.7-.4a3.8,3.8,0,0,0,1.2-1,5.1,5.1,0,0,0,.9-1.6,1.9,1.9,0,0,0-.1-1.8,4.5,4.5,0,0,0,3.1,1.6c.1.4.4.6.1,1.4a5,5,0,0,0-2.6.8c-.4.3-.7.5-.7,1a.6.6,0,0,0,.1.4,1.1,1.1,0,0,0,.8,0s-1.8,1.4-1.7-.2c0,0-1,1.5.7,1.3C117.4,56.6,115.4,57.8,115.5,55.9Zm29.1-32.1s1.1,2.2-6.4,4.5a14.5,14.5,0,0,0,5.4-1.5s.6,1.8-6.6,3.5c0,0,1.4.2,5-1,0,0-.9,2.1-6,3,0,0,.7.2,3.8-.6,0,0-.1,1.3-6.7,3.5,0,0,.5.3,3.2-.6,0,0-9.2,15.5-15.6,11,0,0,.7,2.3,6.1.6l2.2.4a50.3,50.3,0,0,0,12-3.7s-.7,2.9-9.5,4.5c0,0,5.2-.8,7.5-1.4,0,0-1,2.2-7.9,2.4h5.7s-1.8,1.9-6.4,1a24.8,24.8,0,0,0,4.2.7s-1.6,1.8-5.6.1a10.4,10.4,0,0,0,3,1s-1.2,1.2-4.2-.2a6.2,6.2,0,0,1-2.5.7,3.9,3.9,0,0,0,1.8,1,27.3,27.3,0,0,1-3.2.8,3.6,3.6,0,0,0,1.2.5,13.8,13.8,0,0,0-3.1,1.3s-1.4,1.3.5,1.1c0,0-2.1,1.5-1.9-.2,0,0-1.1,1.6.7,1.4,0,0-2.2,1.3-2-.8,0,0-1,1.2.4,1.8s-1.7.3-2-.7a5.2,5.2,0,0,1,.9-2s5.3-2.1,1.3-5.6l.6,1.1s-3.1-.4-4.7-4.3c0,0-1.2-2.1-3-2.1a8.1,8.1,0,0,0-2.4.2l-1,.6-.6.2h-.2a.1.1,0,0,1-.1-.1c.1-.1.1-.2.2-.2l.6-.7.3-.3v-.5a1.9,1.9,0,0,1-1.2.7.8.8,0,0,0-.3,1.2s.2.5-.3,0-1.1-.9-.4-2l1.4-1.3s-.6-.2.2-1a12.9,12.9,0,0,1,4.5-2.9v.6l4-.6-.2.6h2.4l-1,1.5a19.2,19.2,0,0,0,7.8-12.4s10.7-6,13.9-12.2c0,0,2.4,1.4-3.7,7.6,0,0,4.2-2.7,6.1-6,0,0,2.5,2.2-4.9,7.1,0,0,2.4-.3,6.8-4.7,0,0,1.8,2.3-5.8,6.1A13.9,13.9,0,0,0,144.6,23.8ZM133,43.8a1.1,1.1,0,1,1-1.1-1.1A1.1,1.1,0,0,1,133,43.8Z"/><path d="M119.6,42.4h0s2.9,1.1,10.2-3.2h0A40.8,40.8,0,0,1,119.6,42.4Z"/><path d="M152.3,68.8a7.4,7.4,0,0,1-.7,3.4,4,4,0,0,1-1,1.5,4.4,4.4,0,0,1-1.5,1.2,4.8,4.8,0,0,1-2.7.4A5,5,0,0,1,143,73a7.2,7.2,0,0,1-.9-2,8.9,8.9,0,0,1,0-5.1,6.6,6.6,0,0,1,1.7-2.8,3.8,3.8,0,0,1,1.5-.9,4.9,4.9,0,0,1,3.9.3,8.6,8.6,0,0,1,1.4,1.3,4.8,4.8,0,0,1,1.2,2.2,11.6,11.6,0,0,1,.4,1.8C152.2,68.2,152.3,68.6,152.3,68.8Zm-5.8,4.1h.6a1.9,1.9,0,0,0,1.4-.7,5.7,5.7,0,0,0,.8-1.3,5.7,5.7,0,0,0,.4-1.4,6.1,6.1,0,0,0,0-1.9,5,5,0,0,0-.3-1.3,3.5,3.5,0,0,0-.8-1.3,2.3,2.3,0,0,0-2.5-.4,2.8,2.8,0,0,0-1,.9,5.1,5.1,0,0,0-.7,1.7,8.5,8.5,0,0,0,.2,3.9,4.2,4.2,0,0,0,.9,1.4c.3.1.5.3.8.3Z"/><path d="M104.7,67.2h4v.2a14.8,14.8,0,0,0,.1,2.1c-.1.2-.4.1-.6.1h-3.6a4.1,4.1,0,0,1,0,1.1,9.7,9.7,0,0,1,0,1.7h.1c1.8.2,3.7,0,5.6.1.1,0,.2-.1.3,0s0,1.6.1,2.3l-.3.2h-8c-.3-.1-.2-.4-.2-.6V62.3a.4.4,0,0,1,.1-.3h6.8a.2.2,0,0,1,.2.2v2.2h-4.5A12.6,12.6,0,0,0,104.7,67.2Z"/><path d="M140.8,62.2c.1.1.2.2.1.3a13.6,13.6,0,0,1-.2,2h-2.3a4.7,4.7,0,0,0-1.7.3,4.2,4.2,0,0,0-1.8,1.4,5.1,5.1,0,0,0-.5,4.5,2.8,2.8,0,0,0,1.9,1.9h.3a3.8,3.8,0,0,0,2.3-.4,5.1,5.1,0,0,0,1.3-.9l.5-.4a.2.2,0,0,1,.2.2c0,.2-.1.9-.1,1V74a.3.3,0,0,0-.1.2l-.2.2a9.2,9.2,0,0,1-2.3.9h-1a5.3,5.3,0,0,1-3.7-1.6,6.2,6.2,0,0,1-1.5-2.1,7.8,7.8,0,0,1-.4-2.2,6,6,0,0,1,0-1.5,4.8,4.8,0,0,1,1.2-3.3,6,6,0,0,1,3.5-2.4,9,9,0,0,1,2.8-.2Z"/><path d="M129.7,62a.4.4,0,0,1,.1.3v2a.1.1,0,0,0-.1.1h-2.6a1.2,1.2,0,0,0-1.2.8.6.6,0,0,0,0,.6,2.5,2.5,0,0,0,.4.7l1.4,1.2,1.3,1a8.3,8.3,0,0,1,1.1,1.5,3.7,3.7,0,0,1,.5,2.3,2.9,2.9,0,0,1-1.8,2.5,2,2,0,0,1-1.1.3h-3.6l-.4-.2a7.5,7.5,0,0,0,0-1.5.6.6,0,0,1,0-.6v-.2h3.9a.9.9,0,0,0,.5-1.1,3,3,0,0,0-.4-.8l-1.3-1.1a10.1,10.1,0,0,1-1.9-1.7,3.9,3.9,0,0,1-1.1-3.1,2.4,2.4,0,0,1,.7-1.8l.6-.5a3.5,3.5,0,0,1,2.1-.7,26.1,26.1,0,0,1,2.8,0Z"/><path d="M86.4,61.9a19.8,19.8,0,0,1,1.1,2l1.1,1.9c.1.1.2,0,.2-.1l1.9-3.6c0-.1.1-.1.1-.2a21,21,0,0,1,2.6,0,.1.1,0,0,1,.1.1c.1,0,0,.1,0,.2l-.3.5-1.4,2.8a21.2,21.2,0,0,0-1.1,2.1l-.4.7a2.4,2.4,0,0,0-.2.8v6a.1.1,0,0,1-.1.1H87.7a.8.8,0,0,1-.1-.4V69.2a1.5,1.5,0,0,0-.2-.9l-2.9-5.1-.7-1.1a.3.3,0,0,1,.1-.2h2.5Z"/><path d="M163.4,64.7h-2.5V62.3h7.7c.1,0,.1.1.1.2v2.1h-2.6c-.1.1,0,.3,0,.4v9.8a.8.8,0,0,1-.1.4h-2.1a.5.5,0,0,1-.4-.2c.1-1.4,0-2.8,0-4.3V65A.4.4,0,0,0,163.4,64.7Z"/><path d="M152.4,64.7a.4.4,0,0,1-.1-.3V62.6a.4.4,0,0,1,.1-.3H160a.1.1,0,0,1,.1.1v2.1h0a10.5,10.5,0,0,1-2.5.1h-.1c0,.1-.1.1-.1.2v8.7c0,.5.1,1,.1,1.6l-.3.2h-2.1c-.2-.1-.2-.2-.2-.4V65.1a.6.6,0,0,0-.1-.4Z"/><path d="M94.4,61.9h2.2c.1.1.1.1.1.2V72.8c0,.1.1.1.2.1h4.5a16.1,16.1,0,0,1,0,2.2c-.4.2-1,0-1.5.1H94.3V64.1C94.3,63.3,94,62.5,94.4,61.9Z"/><path d="M78.7,62A8.8,8.8,0,0,1,81,62c.1,0,.1.1.1.2V72.7c0,.1,0,.2.1.2h4.5a16.2,16.2,0,0,1,.1,2.2l-.3.2H78.6v-13h0A.1.1,0,0,0,78.7,62Z"/><path d="M118.9,70.8h2.4a5.4,5.4,0,0,1,0,1.8h-.8v.4a3.7,3.7,0,0,1-3.2,2.3,5.2,5.2,0,0,1-2.1-.4,3.3,3.3,0,0,1-1.8-2.2,3.3,3.3,0,0,1,0-1.7,1.9,1.9,0,0,1,.9-1.4l.3-.3c0-.1,0-.2-.1-.2a3.5,3.5,0,0,1-1-2.1,2.5,2.5,0,0,1,.7-2,3,3,0,0,1,1.3-.9h2.3a.2.2,0,0,1,.2.2c0,.2.1.3.1.4v1c0,.1,0,.2-.2.3a3.3,3.3,0,0,0-1.4,0,1.3,1.3,0,0,0-.7,2.1,1.8,1.8,0,0,0,1.7.5h.3v1.6c0,.1,0,.2-.1.2h-1.2a.9.9,0,0,0-.6.3,1.1,1.1,0,0,0-.6.7,1.5,1.5,0,0,0,.2,1.6,1.9,1.9,0,0,0,2.6.1,2.6,2.6,0,0,0,.7-1.6v-.4A.4.4,0,0,1,118.9,70.8Z"/><path d="M168.6,82a1.2,1.2,0,0,1,.1.8.5.5,0,0,1-.5.1H142.9c-.3-.1-.2-.6-.1-.9h25.8Z"/><path d="M104.6,82.7c0,.2-.1.2-.3.2H78.7a1.1,1.1,0,0,1,0-.8h25.8C104.7,82.2,104.6,82.5,104.6,82.7Z"/><path d="M128.2,82.5h-.1a1.4,1.4,0,0,1,.3-2.2,1.6,1.6,0,0,1,2.1.5,1.5,1.5,0,0,1,0,1.6h-.2v.2A1.4,1.4,0,0,1,130,85a1.9,1.9,0,0,1-2.1-.4.9.9,0,0,1-.3-.7h0a1.3,1.3,0,0,1,.5-1.2Zm.3.9a.6.6,0,0,0,0,.6l.4.3h.5c.3-.1.5-.2.6-.5a.6.6,0,0,0-.2-.7c-.1-.2-.3-.2-.5-.3A.9.9,0,0,0,128.5,83.4Zm.1-2.2c-.1,0-.1.1-.1.2a.6.6,0,0,0,.3.6.7.7,0,0,0,1.1-.4c.1-.2,0-.4-.2-.6a.6.6,0,0,0-.8-.1Q128.8,80.9,128.6,81.2Z"/><path d="M110.7,82.8h-2.1v1.4h1.8c.1,0,.2-.1.3,0a1.1,1.1,0,0,1,.1.5l-.2.2h-2.7c-.2-1.2,0-2.7-.1-4v-.8h2.9v.5h-2.1v1.4h1.9C110.8,82.3,110.7,82.6,110.7,82.8Z"/><path d="M114.4,81.2c-.1,0-.1-.1-.2-.2s-.5-.3-.9-.2a.6.6,0,0,0-.6.3.9.9,0,0,0,.3.7c.6.5,1.6.8,1.8,1.7a1.5,1.5,0,0,1-.1.7,1.3,1.3,0,0,1-1,.9,2.8,2.8,0,0,1-1.3-.1l-.5-.4v-.8h.3a1.4,1.4,0,0,0,1.5.5c.6-.4.2-1.1-.3-1.3l-.7-.5-.4-.3a1.3,1.3,0,0,1,.1-2l.5-.2a2,2,0,0,1,1.5.2.1.1,0,0,1,.1.1,1.5,1.5,0,0,1,.1.7Z"/><path d="M138.2,83.5c-.3-.1-2.4.4-2-.5l.7-.9,1.1-1.3.5-.7h.4c.1.1.1.2.1.4v2.3h.4v.7h-.6v1.6h-.8Zm0-2v.2l-.9,1.1h1Z"/><path d="M118.2,85c-.2.1-.5.2-.7,0a.4.4,0,0,1-.1-.3V80.8c-.5-.2-1.2.2-1.6-.1a.5.5,0,0,1,0-.5h4.1a.7.7,0,0,1,.1.5h-1.7c-.1.1,0,.2,0,.3v3.4A.9.9,0,0,1,118.2,85Z"/><path d="M133,85.1a.7.7,0,0,1-.6-.3,29,29,0,0,0,1.6-3.9c0-.1-.1,0-.2,0H132a.7.7,0,0,1,.1-.5.1.1,0,0,1,.1-.1h3.1l-.3.6c-.6,1.4-1.3,2.8-1.9,4.3Z"/><path d="M125.1,85.1c-.2-.1-.4.1-.6-.1h0V80.2a.5.5,0,0,1,.5-.1h.3v4.6C125.3,84.9,125.3,85,125.1,85.1Z"/></g></g></svg>