<svg xmlns="http://www.w3.org/2000/svg" width="242.98763" height="103.86572" viewBox="0 0 242.98763 103.86572"><defs><style>.cls-1{fill:none;}</style></defs><g id="Layer_2" data-name="Layer 2"><g id="Layer_1-2" data-name="Layer 1"><rect class="cls-1" width="242.98763" height="103.86572"/><path d="M207.0457,55.44629h1.87814v.38858c0,1.19812-.68,1.61909-1.48955,1.61909-.87432,0-1.58672-.51811-1.58672-1.87815V48.25752c0-1.39242.80954-1.84576,1.55432-1.84576.84192,0,1.55432.38858,1.522,2.36387l4.37155.09715c.09714-6.12017-3.85345-7.02686-5.92587-7.02686-2.65532,0-6.08778,1.36-6.08778,6.63828v6.63827c0,5.89349,3.62677,6.86494,6.08778,6.86494,2.42863,0,5.92587-1.23051,5.92587-6.86494V51.49571H207.0457ZM189.43,61.43692h4.6306V42.4288h-4.242v8.87261h-.16191l-3.40009-8.84023H181.3993V61.4693h4.2744V51.65761h.16191Zm-27.45977-5.99063c0,5.05156,2.72007,6.57351,5.95825,6.57351s5.92587-1.52195,5.92587-6.57351V42.4288h-4.59822V55.51105c0,1.36-.58287,1.81338-1.39242,1.81338s-1.36-.45334-1.36-1.81338V42.4288h-4.53344Zm-12.30509,5.99063h4.53345V42.4288h-4.53345v6.76779h-2.49341V42.4288h-4.53345V61.43692h4.53345V53.56814h2.49341ZM130.8189,49.03469h4.37154c.12953-5.89349-3.141-7.15639-5.63443-7.15639-2.26673,0-5.86111.97146-5.86111,6.28207V55.7701c0,5.37538,3.62676,6.24969,5.86111,6.24969,2.59054,0,5.79634-1.29527,5.63443-7.44782H130.8189c.06476,2.23435-.38859,2.81722-1.29528,2.81722-.80954,0-1.26288-.51811-1.26288-1.68385V48.2899c0-1.101.38858-1.68385,1.26288-1.68385.93908-.03238,1.36.58287,1.29528,2.42864m-20.271-.84193.93907,5.764h-2.10482l.97145-5.764Zm-7.124,13.24416h4.56584l.64763-3.52961h3.59439l.64763,3.52961h4.69537L113.20319,42.4288h-5.31062ZM92.41407,42.46118,90.69783,47.707H90.5683l-1.68385-5.24585H83.99479L87.62156,51.69,83.83288,61.4693h4.56584L90.27687,55.673h.12952l1.91053,5.79634h4.88966l-3.85344-9.87645,3.562-9.13167Zm-24.934,18.97574h9.71454V56.8387H72.07828v-3.141h4.79251V49.39089H72.07828V46.99463h5.01919V42.4288h-9.6174Zm-16.48235,0h9.22882V56.8387H55.53118V42.4288H50.99772ZM36.84687,48.19276l.93907,5.764H35.68112l.97146-5.764ZM29.69049,61.43692h4.56584l.64763-3.52961h3.59438l.64764,3.52961h4.69536L39.4698,42.4288H34.15918Z"/></g></g></svg>